<svg width="17" height="19" viewBox="0 0 17 19" fill="none" xmlns="http://www.w3.org/2000/svg">
    <path fill-rule="evenodd" clip-rule="evenodd" d="M6.15 1.3C5.9567 1.3 5.8 1.4567 5.8 1.65V3H10.5V1.65C10.5 1.4567 10.3433 1.3 10.15 1.3H6.15ZM11.8 3V1.65C11.8 0.73873 11.0613 0 10.15 0H6.15C5.23873 0 4.5 0.73873 4.5 1.65V3H2.65C1.18645 3 0 4.18645 0 5.65V6.65C0 7.00899 0.291015 7.3 0.65 7.3H1.5V16.15C1.5 17.6136 2.68645 18.8 4.15 18.8H12.15C13.6136 18.8 14.8 17.6136 14.8 16.15V7.3H15.65C16.009 7.3 16.3 7.00899 16.3 6.65V5.65C16.3 4.18645 15.1136 3 13.65 3H11.8ZM13.5 7.3H2.8V16.15C2.8 16.8956 3.40442 17.5 4.15 17.5H12.15C12.8956 17.5 13.5 16.8956 13.5 16.15V7.3ZM2.65 4.3C1.90442 4.3 1.3 4.90442 1.3 5.65V6H15V5.65C15 4.90442 14.3956 4.3 13.65 4.3H2.65ZM6.15 9C6.50899 9 6.8 9.29101 6.8 9.65V14.15C6.8 14.509 6.50899 14.8 6.15 14.8C5.79102 14.8 5.5 14.509 5.5 14.15V9.65C5.5 9.29101 5.79102 9 6.15 9ZM10.15 9C10.509 9 10.8 9.29101 10.8 9.65V14.15C10.8 14.509 10.509 14.8 10.15 14.8C9.79101 14.8 9.5 14.509 9.5 14.15V9.65C9.5 9.29101 9.79101 9 10.15 9Z" fill="#BEB3AD" />
</svg>