<svg width="27" height="36" viewBox="0 0 27 36" fill="none" xmlns="http://www.w3.org/2000/svg">
<path d="M19.2862 1.15646L25.8345 7.70472V7.74007L25.9288 7.83442C25.9375 7.86849 25.9405 7.89288 25.9405 7.92187V33.0942C25.9405 33.5918 25.7148 34.1027 25.3799 34.4376C25.0421 34.7754 24.5656 34.9983 24.0365 34.9983H2.50566C2.00798 34.9983 1.49708 34.7725 1.1622 34.4376C0.824429 34.0998 0.601562 33.6233 0.601562 33.0942V3.00761C0.601562 2.50993 0.827322 1.99904 1.1622 1.66416L1.1622 1.66415L1.19756 1.6288C1.19756 1.6288 1.19756 1.6288 1.19756 1.6288C1.52459 1.30177 1.99693 1.10352 2.50566 1.10352H19.1576C19.1829 1.10352 19.2022 1.10354 19.2185 1.10379C19.2411 1.12444 19.264 1.14186 19.2862 1.15646ZM20.1828 2.79548L19.3293 1.94192V3.14903V6.08344C19.3293 6.50994 19.53 6.9074 19.7782 7.16351C20.0704 7.50159 20.5006 7.64407 20.8899 7.64407H23.8243H25.0314L24.1779 6.79052L20.1828 2.79548ZM1.51572 34.1194L1.53531 34.139L1.55693 34.1563C1.78811 34.3413 2.10742 34.5134 2.50566 34.5134H24.0011C24.4067 34.5134 24.7402 34.3349 24.991 34.0841C25.2418 33.8333 25.4203 33.4998 25.4203 33.0942V8.62895V8.12895H24.9203H20.996C20.4179 8.12895 19.8744 7.8963 19.5111 7.53296C19.1036 7.12545 18.8798 6.61389 18.8798 6.04808V2.05304V1.55304H18.3798H2.54101C2.16932 1.55304 1.8488 1.73316 1.62764 1.91009L1.60601 1.92739L1.58643 1.94697L1.55108 1.98233C1.55108 1.98233 1.55108 1.98233 1.55108 1.98233C1.30029 2.23311 1.1218 2.56663 1.1218 2.97226V33.1295C1.1218 33.4841 1.22859 33.8323 1.51572 34.1194ZM5.69038 11.5081C5.69038 11.3828 5.792 11.2811 5.91735 11.2811H16.822C16.9473 11.2811 17.0489 11.3828 17.0489 11.5081C17.0489 11.6335 16.9473 11.7351 16.822 11.7351H5.91735C5.792 11.7351 5.69038 11.6335 5.69038 11.5081ZM5.69038 15.143C5.69038 15.0176 5.792 14.916 5.91735 14.916H13.9141C14.0394 14.916 14.141 15.0176 14.141 15.143C14.141 15.2683 14.0394 15.37 13.9141 15.37H5.91735C5.792 15.37 5.69038 15.2683 5.69038 15.143ZM5.69038 18.7779C5.69038 18.6525 5.792 18.5509 5.91735 18.5509H15.368C15.4934 18.5509 15.595 18.6525 15.595 18.7779C15.595 18.9032 15.4934 19.0048 15.368 19.0048H5.91735C5.792 19.0048 5.69038 18.9032 5.69038 18.7779ZM5.69038 24.5936C5.69038 24.4683 5.792 24.3667 5.91735 24.3667H19.0029C19.1282 24.3667 19.2299 24.4683 19.2299 24.5936C19.2299 24.719 19.1282 24.8206 19.0029 24.8206H5.91735C5.792 24.8206 5.69038 24.719 5.69038 24.5936ZM5.69038 28.2285C5.69038 28.1032 5.792 28.0015 5.91735 28.0015H14.641C14.7664 28.0015 14.868 28.1032 14.868 28.2285C14.868 28.3539 14.7664 28.4555 14.641 28.4555H5.91735C5.792 28.4555 5.69038 28.3539 5.69038 28.2285Z" fill="#BEB3AD" stroke="#BEB3AD"/>
</svg>
