<svg width="17" height="18" viewBox="0 0 17 18" fill="none" xmlns="http://www.w3.org/2000/svg">
    <path d="M7.99911 13.0426C7.99938 13.0428 7.99964 13.043 7.99988 13.0433C8.01615 13.0595 8.03321 13.0749 8.05101 13.0895C8.05924 13.0963 8.06791 13.1021 8.07638 13.1084C8.0864 13.1159 8.09623 13.1238 8.10669 13.1307C8.11678 13.1375 8.12728 13.1433 8.13764 13.1495C8.1471 13.1552 8.15636 13.1611 8.16609 13.1663C8.17665 13.172 8.18754 13.1768 8.19833 13.1819C8.20849 13.1867 8.21849 13.1917 8.22891 13.1961C8.23937 13.2004 8.25006 13.2039 8.26069 13.2077C8.27188 13.2117 8.2829 13.216 8.29432 13.2194C8.30495 13.2227 8.31577 13.225 8.3265 13.2277C8.33815 13.2307 8.34967 13.2339 8.36153 13.2363C8.37398 13.2387 8.38653 13.2402 8.39904 13.242C8.40937 13.2435 8.41953 13.2455 8.43002 13.2465C8.47651 13.2511 8.52336 13.2511 8.56984 13.2465C8.5803 13.2455 8.59046 13.2435 8.60082 13.242C8.61334 13.2402 8.62592 13.2388 8.63834 13.2363C8.65023 13.2339 8.66171 13.2307 8.67337 13.2277C8.68413 13.225 8.69492 13.2227 8.70554 13.2194C8.71696 13.216 8.72802 13.2117 8.73918 13.2077C8.7498 13.2039 8.76049 13.2004 8.77095 13.1961C8.78138 13.1918 8.79137 13.1867 8.80153 13.1819C8.81232 13.1768 8.82322 13.172 8.83377 13.1663C8.8435 13.1611 8.85277 13.1552 8.86223 13.1495C8.87259 13.1433 8.88308 13.1375 8.89317 13.1307C8.90363 13.1237 8.91346 13.1159 8.92349 13.1084C8.93196 13.1021 8.94062 13.0962 8.94886 13.0895C8.96662 13.0749 8.98372 13.0595 8.99999 13.0433C9.00025 13.043 9.00052 13.0428 9.00075 13.0426L12.5424 9.50089C12.8191 9.22427 12.8191 8.77576 12.5424 8.49915C12.2658 8.22253 11.8173 8.22253 11.5407 8.49915L9.20824 10.8316V1.20832C9.2083 0.817124 8.89118 0.5 8.49998 0.5C8.10878 0.5 7.79166 0.817124 7.79166 1.20832V10.8316L5.4592 8.49915C5.18259 8.22253 4.73408 8.22253 4.45746 8.49915C4.18085 8.77576 4.18085 9.22427 4.45746 9.50089L7.99911 13.0426Z" fill="#3D3D3F" />
    <path d="M16.2917 12.541C15.9005 12.541 15.5834 12.8581 15.5834 13.2493V16.0827H1.41668V13.2493C1.41668 12.8581 1.09956 12.541 0.708357 12.541C0.317124 12.541 0 12.8581 0 13.2493V16.791C0 17.1822 0.317124 17.4993 0.708324 17.4993H16.2917C16.6829 17.4993 17 17.1822 17 16.791V13.2493C17 12.8581 16.6829 12.541 16.2917 12.541Z" fill="#3D3D3F" />
</svg>