<svg width="13" height="14" viewBox="0 0 13 14" fill="none" xmlns="http://www.w3.org/2000/svg">
<path fill-rule="evenodd" clip-rule="evenodd" d="M6.2268 0.607422C9.63391 0.607422 12.4144 3.38695 12.4144 6.832C12.4144 10.2379 9.63391 13.0174 6.2268 13.0174C2.78052 13.0174 0 10.2379 0 6.832C0 3.38695 2.78052 0.607422 6.2268 0.607422ZM6.2268 1.1555C7.32334 1.1555 8.38072 1.46868 9.24229 2.01676C9.20313 2.1342 9.1248 2.2125 9.04648 2.36909C8.61569 3.07376 8.30239 3.30865 8.45904 3.66099C8.65485 4.05247 8.77234 4.5614 8.96815 4.28736C9.16396 4.05247 9.32061 3.70013 9.47726 3.62184C9.63391 3.50439 9.67307 3.50439 9.55559 3.81758C9.4381 4.16991 9.32061 4.67884 9.00731 4.99203C8.65485 5.30521 8.45904 5.18777 8.30239 4.99203C7.87161 4.4831 7.40166 5.6184 7.44083 5.6967C7.9891 6.40136 6.69674 5.93159 7.6758 6.71455C8.02826 7.02774 8.18491 6.40136 8.30239 6.63625C8.65485 7.34092 8.85067 6.94944 9.08564 6.87114C9.32061 6.832 9.47726 6.08818 9.67307 6.40136C9.86888 6.6754 9.7514 7.02774 9.63391 7.18433C9.51642 7.30177 8.77234 7.889 8.34156 7.73241C7.91077 7.53666 7.44083 7.10603 7.01004 7.14518C6.61842 7.22348 5.95266 8.12389 6.34428 8.78941C6.7359 9.45493 7.20585 8.946 7.0492 9.29834C6.85339 9.68982 6.46177 9.68982 6.57926 10.3162C6.7359 10.9034 6.85339 11.4123 7.08836 11.334C7.3625 11.2949 8.06742 10.0422 8.10658 9.68982C8.18491 9.37663 8.53737 9.18089 8.69402 9.45493C8.96815 9.96386 11.2396 8.75026 11.7095 8.20219C11.0829 10.6685 8.88983 12.5085 6.2268 12.5085C3.09382 12.5085 0.548271 9.96386 0.548271 6.832C0.548271 5.77499 0.822407 4.79629 1.29235 3.97417C1.52733 4.20906 1.80146 4.4048 1.99727 4.4831C2.50638 4.75714 2.50638 4.71799 2.19309 5.18777C1.91895 5.6967 2.42806 6.08818 2.58471 6.51881C2.74136 6.94944 2.42806 6.832 2.27141 7.26263C2.11476 7.73241 2.54555 7.57581 2.46722 8.20219C2.34973 8.86771 2.23225 9.0243 2.31057 9.57237C2.3889 10.1596 2.62387 10.8643 2.85884 10.8643C3.09382 10.9034 3.09382 10.1596 3.25047 9.57237C3.40711 8.946 3.95539 9.06345 4.4645 8.59367C4.9736 8.08474 4.73863 7.61496 4.4645 7.06689C4.22952 6.51881 3.95539 6.98859 3.75957 6.44051C3.56376 5.89244 2.85884 6.04903 2.62387 5.89244C2.3889 5.6967 2.85884 5.50095 3.17214 4.95288C3.44628 4.44395 3.79874 5.07032 4.22952 5.50095C4.66031 5.93159 5.01277 5.42266 5.32606 4.99203C5.6002 4.60054 5.01277 3.89588 5.56104 3.07376C6.10931 2.25165 5.87434 2.48654 5.75685 1.97761C5.67852 1.42954 4.9736 1.86017 4.4645 2.17335C3.95539 2.44739 3.91622 2.2125 3.68125 1.74272C4.42533 1.35124 5.2869 1.1555 6.2268 1.1555Z" fill="#222729"/>
</svg>
