<svg width="9" height="9" viewBox="0 0 9 9" fill="none" xmlns="http://www.w3.org/2000/svg">
<path d="M8.59089 0H5.31816C5.09223 0 4.90907 0.183164 4.90907 0.409096C4.90907 0.635028 5.09223 0.818193 5.31816 0.818193H7.60326L3.39255 5.02893C3.23279 5.1887 3.23279 5.4477 3.39255 5.60747C3.47241 5.68734 3.5771 5.72728 3.6818 5.72728C3.78649 5.72728 3.89121 5.68736 3.97108 5.60745L8.18181 1.39673V3.68183C8.18181 3.90776 8.36497 4.09093 8.5909 4.09093C8.81684 4.09093 9 3.90776 9 3.68183V0.409096C8.99998 0.183164 8.81682 0 8.59089 0Z" fill="#BEB3AD"/>
<path d="M6.95453 4.0909C6.7286 4.0909 6.54543 4.27406 6.54543 4.49999V8.18182H0.818172V2.45453H4.49999C4.72592 2.45453 4.90909 2.27136 4.90909 2.04543C4.90909 1.8195 4.72592 1.63635 4.49999 1.63635H0.409095C0.183164 1.63635 0 1.81952 0 2.04545V8.59092C0 8.81684 0.183164 9 0.409095 9H6.95454C7.18048 9 7.36364 8.81684 7.36364 8.5909V4.49999C7.36362 4.27406 7.18046 4.0909 6.95453 4.0909Z" fill="#BEB3AD"/>
</svg>
