<svg width="13" height="12" viewBox="0 0 13 12" fill="none" xmlns="http://www.w3.org/2000/svg">
<path d="M12.2045 0H7.84088C7.53964 0 7.29542 0.244219 7.29542 0.545462C7.29542 0.846705 7.53964 1.09092 7.84088 1.09092H10.8877L5.2734 6.70525C5.06038 6.91827 5.06038 7.2636 5.2734 7.47662C5.37988 7.58312 5.51947 7.63637 5.65907 7.63637C5.79866 7.63637 5.93828 7.58315 6.04478 7.4766L11.6591 1.8623V4.90911C11.6591 5.21035 11.9033 5.45457 12.2045 5.45457C12.5058 5.45457 12.75 5.21035 12.75 4.90911V0.545462C12.75 0.244219 12.5058 0 12.2045 0Z" fill="#222729"/>
<path d="M10.0227 5.45453C9.72146 5.45453 9.47724 5.69875 9.47724 5.99999V10.9091H1.8409V3.2727H6.74999C7.05123 3.2727 7.29545 3.02848 7.29545 2.72724C7.29545 2.426 7.05123 2.1818 6.74999 2.1818H1.29546C0.994218 2.1818 0.75 2.42602 0.75 2.72727V11.4546C0.75 11.7558 0.994218 12 1.29546 12H10.0227C10.324 12 10.5682 11.7558 10.5682 11.4545V5.99999C10.5682 5.69875 10.3239 5.45453 10.0227 5.45453Z" fill="#222729"/>
</svg>
