<svg width="317" height="65" viewBox="0 0 317 65" fill="none" xmlns="http://www.w3.org/2000/svg">
<g clip-path="url(#clip0)">
<path d="M90.3723 65L53.3623 0H16.6558L35.0596 32.2299H0.476562V64.8199C19.4871 64.8199 35.0596 51.946 36.8798 35.4709L53.6657 65H90.3723ZM2.80232 55.097H23.2286C17.667 59.4183 10.5886 62.2091 2.80232 62.6593V55.097ZM25.251 53.2964L25.7566 53.1163H2.80232V44.5637H31.8238C30.2058 47.7147 27.9812 50.6856 25.251 53.2964ZM32.7338 42.4931H2.80232V34.3006H34.6551C34.4529 37.1814 33.745 39.8823 32.7338 42.4931ZM65.9012 62.9294L31.4193 2.07064H40.3178L74.7998 63.0194H65.9012V62.9294ZM86.7319 62.9294H77.3278L42.8458 2.07064H52.0478L86.7319 62.9294ZM28.7902 2.07064L63.2721 63.0194H55.0814L20.2961 2.07064H28.7902Z" fill="#D6D5D0"/>
<path d="M107.664 49.6951L108.473 48.7948C109.686 49.7851 110.9 50.3253 112.619 50.3253C114.237 50.3253 115.349 49.515 115.349 48.4347C115.349 47.4444 114.742 46.9042 112.214 46.3641C109.484 45.8239 108.17 45.0137 108.17 43.2131C108.17 41.5026 109.889 40.2422 112.113 40.2422C113.832 40.2422 115.147 40.6923 116.36 41.5926L115.551 42.4929C114.439 41.6826 113.327 41.3225 112.113 41.3225C110.597 41.3225 109.585 42.1328 109.585 43.1231C109.585 44.1134 110.192 44.7436 112.821 45.1937C115.551 45.7339 116.765 46.6341 116.765 48.2546C116.765 50.1452 115.046 51.3156 112.619 51.3156C110.698 51.4056 109.08 50.8654 107.664 49.6951Z" fill="white"/>
<path d="M119.798 48.2543V43.3027H121.112V47.9842C121.112 49.4246 122.022 50.4149 123.539 50.4149C125.056 50.4149 126.168 49.4246 126.168 47.8942V43.3027H127.483V51.3152H126.168V49.9648C125.562 50.8651 124.652 51.4953 123.135 51.4953C121.011 51.4052 119.798 50.1448 119.798 48.2543Z" fill="white"/>
<path d="M131.225 43.3031H132.539V45.3737C133.146 44.0233 134.46 43.123 136.179 43.123V44.3834H136.078C134.157 44.3834 132.539 45.6438 132.539 48.0746V51.2255H131.225V43.3031Z" fill="white"/>
<path d="M139.416 44.384H138.202V43.3937H139.416V42.6735C139.416 41.7732 139.719 41.053 140.225 40.6028C140.629 40.2427 141.337 39.9727 142.146 39.9727C142.753 39.9727 143.157 40.0627 143.561 40.1527V41.143C143.056 41.053 142.753 40.963 142.247 40.963C141.236 40.963 140.73 41.5031 140.73 42.6735V43.3037H143.561V44.294H140.73V51.2261H139.416V44.384Z" fill="white"/>
<path d="M144.977 48.885C144.977 47.1745 146.493 46.2742 148.819 46.2742C149.931 46.2742 150.74 46.4543 151.549 46.6343V46.3642C151.549 44.9238 150.538 44.2036 148.92 44.2036C147.909 44.2036 146.999 44.4736 146.19 44.7437L145.786 43.7534C146.797 43.3933 147.707 43.0332 149.021 43.0332C150.235 43.0332 151.246 43.3033 151.853 43.9335C152.459 44.4736 152.763 45.2839 152.763 46.2742V51.1357H151.448V49.9653C150.842 50.6856 149.83 51.3158 148.212 51.3158C146.594 51.4058 144.977 50.5955 144.977 48.885ZM151.448 48.3448V47.6246C150.842 47.4446 149.931 47.2645 148.819 47.2645C147.201 47.2645 146.19 47.8947 146.19 48.885C146.19 49.8753 147.201 50.5055 148.415 50.5055C150.134 50.5055 151.448 49.6052 151.448 48.3448Z" fill="white"/>
<path d="M155.695 47.2643C155.695 45.0136 157.617 43.123 160.246 43.123C161.965 43.123 162.976 43.7532 163.785 44.5635L162.976 45.3737C162.268 44.7435 161.459 44.2034 160.246 44.2034C158.426 44.2034 157.111 45.5538 157.111 47.3543C157.111 49.0649 158.527 50.4153 160.347 50.4153C161.459 50.4153 162.369 49.8751 163.077 49.2449L163.987 49.9651C163.077 50.8654 162.066 51.4956 160.347 51.4956C157.718 51.4956 155.695 49.515 155.695 47.2643Z" fill="white"/>
<path d="M170.459 50.4153C171.673 50.4153 172.583 49.9651 173.29 49.2449L174.099 49.8751C173.189 50.7754 172.077 51.4056 170.459 51.4056C168.032 51.4056 166.01 49.6951 166.01 47.2643C166.01 44.9236 167.83 43.123 170.257 43.123C172.886 43.123 174.403 45.0136 174.403 47.3543C174.403 47.4444 174.403 47.6244 174.403 47.8045H167.324C167.527 49.425 168.942 50.4153 170.459 50.4153ZM173.088 46.8142C172.886 45.3737 171.976 44.1133 170.257 44.1133C168.74 44.1133 167.527 45.2837 167.324 46.8142H173.088Z" fill="white"/>
<path d="M183.504 40.5117H192.2V41.5921H184.818V45.2832H191.391V46.3635H184.818V50.1447H192.301V51.225H183.504V40.5117Z" fill="white"/>
<path d="M198.166 47.1739L194.829 43.3027H196.346L198.975 46.3637L201.604 43.3027H203.02L199.683 47.1739L203.222 51.2252H201.705L198.874 47.9842L196.144 51.2252H194.627L198.166 47.1739Z" fill="white"/>
<path d="M206.054 43.3031H207.368V44.9236C208.076 43.9333 209.188 43.123 210.806 43.123C212.93 43.123 215.053 44.6535 215.053 47.2643C215.053 49.8751 212.93 51.4056 210.806 51.4056C209.188 51.4056 208.076 50.5953 207.368 49.6951V53.6563H206.054V43.3031ZM213.638 47.2643C213.638 45.3737 212.222 44.2034 210.503 44.2034C208.885 44.2034 207.267 45.4638 207.267 47.2643C207.267 49.1549 208.784 50.3253 210.503 50.3253C212.222 50.4153 213.638 49.2449 213.638 47.2643Z" fill="white"/>
<path d="M222.03 50.4153C223.244 50.4153 224.154 49.9651 224.862 49.2449L225.671 49.8751C224.761 50.7754 223.648 51.4056 222.03 51.4056C219.603 51.4056 217.581 49.6951 217.581 47.2643C217.581 44.9236 219.401 43.123 221.828 43.123C224.457 43.123 225.974 45.0136 225.974 47.3543C225.974 47.4444 225.974 47.6244 225.974 47.8045H218.896C219.098 49.425 220.514 50.4153 222.03 50.4153ZM224.659 46.8142C224.457 45.3737 223.547 44.1133 221.828 44.1133C220.311 44.1133 219.098 45.2837 218.896 46.8142H224.659Z" fill="white"/>
<path d="M229.008 43.3031H230.322V45.3737C230.929 44.0233 232.244 43.123 233.963 43.123V44.3834H233.861C231.94 44.3834 230.322 45.6438 230.322 48.0746V51.2255H229.008V43.3031Z" fill="white"/>
<path d="M237.199 49.1556V44.3841H235.985V43.3038H237.199V40.873H238.513V43.3038H241.345V44.3841H238.513V49.0656C238.513 50.0559 239.12 50.416 240.03 50.416C240.435 50.416 240.839 50.326 241.345 50.1459V51.1362C240.839 51.3163 240.333 51.4963 239.727 51.4963C238.21 51.4063 237.199 50.7761 237.199 49.1556Z" fill="white"/>
<path d="M118.383 10.4434H122.326L133.045 32.05H128.495L126.068 26.8284H114.641L112.113 32.05H107.664L118.383 10.4434ZM124.45 23.5874L120.304 15.0348L116.158 23.5874H124.45Z" fill="white"/>
<path d="M137.494 10.623H148.314C153.977 10.623 157.314 13.3239 157.314 17.4652C157.314 20.9762 154.887 23.1369 151.55 23.9471L158.123 32.0496H153.067L146.999 24.5773H141.741V32.0496H137.494V10.623ZM148.011 21.2463C151.044 21.2463 152.966 19.8059 152.966 17.5552C152.966 15.2145 151.044 13.9541 147.91 13.9541H141.741V21.1563H148.011V21.2463Z" fill="white"/>
<path d="M161.864 21.3371C161.864 15.2152 167.021 10.2637 174.403 10.2637C178.852 10.2637 181.583 11.6141 183.908 13.5947L181.178 16.3856C179.257 14.7651 177.133 13.6847 174.403 13.6847C169.752 13.6847 166.415 17.1058 166.415 21.3371C166.415 25.5684 169.752 28.9894 174.403 28.9894C177.336 28.9894 179.257 27.9091 181.38 26.1986L184.111 28.6293C181.583 30.97 178.852 32.4105 174.302 32.4105C167.122 32.5005 161.864 27.639 161.864 21.3371Z" fill="white"/>
<path d="M188.863 10.623H193.11V19.5358H204.638V10.623H208.885V32.1397H204.638V23.0469H193.11V32.1397H188.863V10.623Z" fill="white"/>
<path d="M220.008 10.623H215.761V32.1397H220.008V10.623Z" fill="white"/>
<path d="M232.85 14.1341H225.165V10.623H244.782V14.1341H237.097V32.1397H232.85V14.1341Z" fill="white"/>
<path d="M256.816 23.6771L247.21 10.623H252.165L258.94 20.166L265.816 10.623H270.771L261.063 23.587V32.1397H256.816V23.6771Z" fill="white"/>
<path d="M274.814 10.623H284.421C290.084 10.623 293.623 13.5039 293.623 17.8253C293.623 22.6868 289.275 25.1175 283.915 25.1175H279.062V32.0496H274.814V10.623ZM284.016 21.7865C287.252 21.7865 289.275 20.166 289.275 17.9153C289.275 15.3945 287.252 14.0441 284.016 14.0441H279.062V21.7865H284.016Z" fill="white"/>
<path d="M298.376 10.623H316.274V14.0441H302.623V19.6258H314.757V22.9568H302.623V28.7186H316.476V32.1397H298.376V10.623Z" fill="white"/>
</g>
<defs>
<clipPath id="clip0">
<rect width="316" height="65" fill="white" transform="translate(0.476562)"/>
</clipPath>
</defs>
</svg>
