<svg width="316" height="65" viewBox="0 0 316 65" fill="none" xmlns="http://www.w3.org/2000/svg">
<path d="M89.8957 65L52.8858 0H16.1792L34.583 32.2299H0V64.8199C19.0106 64.8199 34.583 51.946 36.4032 35.4709L53.1891 65H89.8957ZM2.32576 55.097H22.752C17.1904 59.4183 10.112 62.2091 2.32576 62.6593V55.097ZM24.7744 53.2964L25.28 53.1163H2.32576V44.5637H31.3472C29.7293 47.7147 27.5046 50.6856 24.7744 53.2964ZM32.2573 42.4931H2.32576V34.3006H34.1786C33.9763 37.1814 33.2685 39.8823 32.2573 42.4931ZM65.4246 62.9294L30.9427 2.07064H39.8413L74.3232 63.0194H65.4246V62.9294ZM86.2554 62.9294H76.8512L42.3693 2.07064H51.5712L86.2554 62.9294ZM28.3136 2.07064L62.7955 63.0194H54.6048L19.8195 2.07064H28.3136Z" fill="#BEB3AD"/>
<path d="M107.188 49.6951L107.996 48.7948C109.21 49.7851 110.423 50.3253 112.142 50.3253C113.76 50.3253 114.873 49.515 114.873 48.4347C114.873 47.4444 114.266 46.9042 111.738 46.3641C109.008 45.8239 107.693 45.0137 107.693 43.2131C107.693 41.5026 109.412 40.2422 111.637 40.2422C113.356 40.2422 114.67 40.6923 115.884 41.5926L115.075 42.4929C113.963 41.6826 112.85 41.3225 111.637 41.3225C110.12 41.3225 109.109 42.1328 109.109 43.1231C109.109 44.1134 109.715 44.7436 112.345 45.1937C115.075 45.7339 116.288 46.6341 116.288 48.2546C116.288 50.1452 114.569 51.3156 112.142 51.3156C110.221 51.4056 108.603 50.8654 107.188 49.6951Z" fill="#2E2A29"/>
<path d="M119.322 48.2562V43.3047H120.637V47.9861C120.637 49.4266 121.547 50.4169 123.064 50.4169C124.58 50.4169 125.693 49.4266 125.693 47.8961V43.3047H127.007V51.3172H125.693V49.9667C125.086 50.867 124.176 51.4972 122.659 51.4972C120.536 51.4072 119.322 50.1468 119.322 48.2562Z" fill="#2E2A29"/>
<path d="M130.748 43.3011H132.063V45.3718C132.669 44.0214 133.984 43.1211 135.703 43.1211V44.3815H135.602C133.681 44.3815 132.063 45.6419 132.063 48.0726V51.2236H130.748V43.3011Z" fill="#2E2A29"/>
<path d="M138.94 44.384H137.727V43.3937H138.94V42.6735C138.94 41.7732 139.243 41.053 139.749 40.6028C140.153 40.2427 140.861 39.9727 141.67 39.9727C142.277 39.9727 142.681 40.0627 143.086 40.1527V41.143C142.58 41.053 142.277 40.963 141.771 40.963C140.76 40.963 140.255 41.5031 140.255 42.6735V43.3037H143.086V44.294H140.255V51.2261H138.94V44.384Z" fill="#2E2A29"/>
<path d="M144.5 48.8831C144.5 47.1725 146.017 46.2723 148.343 46.2723C149.455 46.2723 150.264 46.4523 151.073 46.6324V46.3623C151.073 44.9218 150.062 44.2016 148.444 44.2016C147.432 44.2016 146.522 44.4717 145.713 44.7418L145.309 43.7515C146.32 43.3914 147.23 43.0312 148.545 43.0312C149.758 43.0312 150.769 43.3013 151.376 43.9315C151.983 44.4717 152.286 45.2819 152.286 46.2723V51.1338H150.972V49.9634C150.365 50.6836 149.354 51.3138 147.736 51.3138C146.118 51.4038 144.5 50.5936 144.5 48.8831ZM150.972 48.3429V47.6227C150.365 47.4426 149.455 47.2626 148.343 47.2626C146.725 47.2626 145.713 47.8928 145.713 48.8831C145.713 49.8734 146.725 50.5036 147.938 50.5036C149.657 50.5036 150.972 49.6033 150.972 48.3429Z" fill="#2E2A29"/>
<path d="M155.219 47.2624C155.219 45.0117 157.14 43.1211 159.769 43.1211C161.488 43.1211 162.499 43.7513 163.308 44.5615L162.499 45.3718C161.792 44.7416 160.983 44.2014 159.769 44.2014C157.949 44.2014 156.634 45.5518 156.634 47.3524C156.634 49.0629 158.05 50.4133 159.87 50.4133C160.983 50.4133 161.893 49.8732 162.601 49.243L163.511 49.9632C162.601 50.8635 161.589 51.4937 159.87 51.4937C157.241 51.4937 155.219 49.5131 155.219 47.2624Z" fill="#2E2A29"/>
<path d="M169.983 50.4133C171.196 50.4133 172.106 49.9632 172.814 49.243L173.623 49.8732C172.713 50.7734 171.6 51.4036 169.983 51.4036C167.556 51.4036 165.533 49.6931 165.533 47.2624C165.533 44.9216 167.353 43.1211 169.78 43.1211C172.409 43.1211 173.926 45.0117 173.926 47.3524C173.926 47.4424 173.926 47.6225 173.926 47.8025H166.848C167.05 49.423 168.466 50.4133 169.983 50.4133ZM172.612 46.8122C172.409 45.3718 171.499 44.1114 169.78 44.1114C168.263 44.1114 167.05 45.2818 166.848 46.8122H172.612Z" fill="#2E2A29"/>
<path d="M183.027 40.5117H191.724V41.5921H184.342V45.2832H190.915V46.3635H184.342V50.1447H191.825V51.225H183.027V40.5117Z" fill="#2E2A29"/>
<path d="M197.69 47.1759L194.353 43.3047H195.869L198.499 46.3656L201.128 43.3047H202.543L199.206 47.1759L202.746 51.2271H201.229L198.397 47.9861L195.667 51.2271H194.15L197.69 47.1759Z" fill="#2E2A29"/>
<path d="M205.576 43.3011H206.891V44.9216C207.599 43.9313 208.711 43.1211 210.329 43.1211C212.452 43.1211 214.576 44.6516 214.576 47.2624C214.576 49.8732 212.452 51.4036 210.329 51.4036C208.711 51.4036 207.599 50.5934 206.891 49.6931V53.6543H205.576V43.3011ZM213.16 47.2624C213.16 45.3718 211.744 44.2014 210.025 44.2014C208.408 44.2014 206.79 45.4618 206.79 47.2624C206.79 49.1529 208.306 50.3233 210.025 50.3233C211.744 50.4133 213.16 49.243 213.16 47.2624Z" fill="#2E2A29"/>
<path d="M221.555 50.4133C222.768 50.4133 223.678 49.9632 224.386 49.243L225.195 49.8732C224.285 50.7734 223.173 51.4036 221.555 51.4036C219.128 51.4036 217.105 49.6931 217.105 47.2624C217.105 44.9216 218.926 43.1211 221.353 43.1211C223.982 43.1211 225.498 45.0117 225.498 47.3524C225.498 47.4424 225.498 47.6225 225.498 47.8025H218.42C218.622 49.423 220.038 50.4133 221.555 50.4133ZM224.184 46.8122C223.982 45.3718 223.072 44.1114 221.353 44.1114C219.836 44.1114 218.622 45.2818 218.42 46.8122H224.184Z" fill="#2E2A29"/>
<path d="M228.531 43.3011H229.846V45.3718C230.452 44.0214 231.767 43.1211 233.486 43.1211V44.3815H233.385C231.464 44.3815 229.846 45.6419 229.846 48.0726V51.2236H228.531V43.3011Z" fill="#2E2A29"/>
<path d="M236.721 49.1536V44.3822H235.508V43.3018H236.721V40.8711H238.036V43.3018H240.867V44.3822H238.036V49.0636C238.036 50.0539 238.642 50.414 239.553 50.414C239.957 50.414 240.362 50.324 240.867 50.144V51.1343C240.362 51.3143 239.856 51.4944 239.249 51.4944C237.732 51.4043 236.721 50.7741 236.721 49.1536Z" fill="#2E2A29"/>
<path d="M117.906 10.4414H121.85L132.569 32.0481H128.018L125.591 26.8264H114.165L111.637 32.0481H107.188L117.906 10.4414ZM123.973 23.5855L119.827 15.0328L115.682 23.5855H123.973Z" fill="#2E2A29"/>
<path d="M137.018 10.625H147.837C153.5 10.625 156.837 13.3258 156.837 17.4671C156.837 20.9782 154.41 23.1388 151.073 23.9491L157.646 32.0516H152.59L146.523 24.5793H141.265V32.0516H137.018V10.625ZM147.534 21.2483C150.568 21.2483 152.489 19.8078 152.489 17.5571C152.489 15.2164 150.568 13.956 147.433 13.956H141.265V21.1582H147.534V21.2483Z" fill="#2E2A29"/>
<path d="M161.389 21.3351C161.389 15.2132 166.546 10.2617 173.928 10.2617C178.377 10.2617 181.107 11.6121 183.433 13.5927L180.703 16.3836C178.781 14.7631 176.658 13.6828 173.928 13.6828C169.276 13.6828 165.939 17.1038 165.939 21.3351C165.939 25.5664 169.276 28.9875 173.928 28.9875C176.86 28.9875 178.781 27.9071 180.905 26.1966L183.635 28.6274C181.107 30.9681 178.377 32.4085 173.826 32.4085C166.647 32.4986 161.389 27.6371 161.389 21.3351Z" fill="#2E2A29"/>
<path d="M188.387 10.625H192.634V19.5377H204.161V10.625H208.408V32.1416H204.161V23.0488H192.634V32.1416H188.387V10.625Z" fill="#2E2A29"/>
<path d="M219.532 10.625H215.285V32.1416H219.532V10.625Z" fill="#2E2A29"/>
<path d="M232.375 14.1361H224.689V10.625H244.307V14.1361H236.622V32.1416H232.375V14.1361Z" fill="#2E2A29"/>
<path d="M256.339 23.679L246.732 10.625H251.687L258.462 20.1679L265.338 10.625H270.293L260.586 23.589V32.1416H256.339V23.679Z" fill="#2E2A29"/>
<path d="M274.338 10.625H283.944C289.607 10.625 293.146 13.5059 293.146 17.8272C293.146 22.6887 288.798 25.1195 283.439 25.1195H278.585V32.0516H274.338V10.625ZM283.54 21.7884C286.776 21.7884 288.798 20.1679 288.798 17.9172C288.798 15.3965 286.776 14.0461 283.54 14.0461H278.585V21.7884H283.54Z" fill="#2E2A29"/>
<path d="M297.9 10.625H315.799V14.0461H302.147V19.6278H314.282V22.9588H302.147V28.7206H316.001V32.1416H297.9V10.625Z" fill="#2E2A29"/>
</svg>
