<svg width="36" height="36" viewBox="0 0 36 36" fill="none" xmlns="http://www.w3.org/2000/svg">
    <circle cx="18" cy="18" r="18" fill="#BEB3AD" />
    <path d="M27.8281 19.3438H27.1148L27.7325 18.9871C28.0036 18.8306 28.1975 18.5779 28.2786 18.2755C28.3596 17.9732 28.318 17.6574 28.1615 17.3863L25.5052 12.7855C25.3487 12.5145 25.096 12.3205 24.7937 12.2395C24.4912 12.1585 24.1755 12.2 23.9044 12.3566L23.2867 12.7132L23.6433 12.0955C23.7998 11.8245 23.8414 11.5086 23.7604 11.2063C23.6794 10.9039 23.4855 10.6512 23.2144 10.4947L18.6136 7.83848C18.3425 7.68195 18.0268 7.64035 17.7244 7.72141C17.422 7.80242 17.1693 7.99633 17.0128 8.26742L16.6562 8.88516V8.17188C16.6562 7.5257 16.1305 7 15.4844 7H10.1719C9.5257 7 9 7.5257 9 8.17188V25.8281C9 26.4743 9.5257 27 10.1719 27H27.8281C28.4743 27 29 26.4743 29 25.8281V20.5156C29 19.8695 28.4743 19.3438 27.8281 19.3438ZM15.875 25.8281C15.875 26.0435 15.6998 26.2188 15.4844 26.2188H10.1719C9.95648 26.2188 9.78125 26.0435 9.78125 25.8281V8.17188C9.78125 7.95648 9.95648 7.78125 10.1719 7.78125H15.4844C15.6998 7.78125 15.875 7.95648 15.875 8.17188V25.8281ZM24.2951 13.0332C24.3854 12.9811 24.4907 12.9671 24.5915 12.9942C24.6923 13.0212 24.7765 13.0858 24.8287 13.1762L27.4849 17.7769C27.5371 17.8673 27.5509 17.9725 27.5239 18.0733C27.497 18.1741 27.4323 18.2583 27.342 18.3105L24.1169 20.1725L21.5485 15.7239L22.5055 14.0664L24.2951 13.0332ZM23.4403 20.5632L19.877 22.6204L18.7219 20.6198L21.0974 16.5052L23.4403 20.5632ZM16.6562 10.4476L17.6895 8.65805C17.7416 8.5677 17.8259 8.50309 17.9266 8.47605C18.0275 8.44902 18.1327 8.46293 18.223 8.51508L22.8238 11.1713C22.9141 11.2235 22.9788 11.3077 23.0058 11.4085C23.0328 11.5093 23.0189 11.6145 22.9668 11.7049L21.1048 14.9299L16.6562 12.3616V10.4476ZM16.6562 13.2637L20.7142 15.6066L18.6569 19.1699L16.6562 18.0148V13.2637ZM16.6562 18.9169L18.2663 19.8464L16.6562 22.6351V18.9169ZM18.4271 26.2188H16.5891C16.6324 26.0965 16.6562 25.9651 16.6562 25.8281V25.382L18.4271 24.3596V26.2188ZM16.6562 24.4799V24.1953C16.6593 24.1905 16.6629 24.1861 16.6657 24.1811L18.2709 21.401L19.2004 23.0111L16.6562 24.4799ZM28.2188 25.8281C28.2188 26.0435 28.0435 26.2188 27.8281 26.2188H19.2083V23.9858C19.2083 23.9608 19.2057 23.9364 19.2013 23.9127L23.3229 21.533V23.298C23.3229 23.5138 23.4978 23.6887 23.7135 23.6887C23.9292 23.6887 24.1041 23.5138 24.1041 23.298V21.082L25.7617 20.125H27.8281C28.0435 20.125 28.2188 20.3002 28.2188 20.5156V25.8281Z" fill="white" />
    <path d="M12.8281 21.6875C12.0096 21.6875 11.3438 22.3534 11.3438 23.1719C11.3438 23.9904 12.0096 24.6562 12.8281 24.6562C13.6466 24.6562 14.3125 23.9904 14.3125 23.1719C14.3125 22.3534 13.6466 21.6875 12.8281 21.6875ZM12.8281 23.875C12.4404 23.875 12.125 23.5596 12.125 23.1719C12.125 22.7842 12.4404 22.4688 12.8281 22.4688C13.2158 22.4688 13.5312 22.7842 13.5312 23.1719C13.5312 23.5596 13.2158 23.875 12.8281 23.875Z" fill="white" />
    <path d="M23.99 24.5559C23.9173 24.4832 23.8169 24.4414 23.7138 24.4414C23.6111 24.4414 23.5107 24.4832 23.438 24.5559C23.365 24.6285 23.3235 24.7293 23.3235 24.832C23.3235 24.9348 23.365 25.0355 23.438 25.1082C23.5107 25.1808 23.6111 25.2227 23.7138 25.2227C23.8169 25.2227 23.9173 25.1809 23.99 25.1082C24.063 25.0355 24.1048 24.9348 24.1048 24.832C24.1048 24.7293 24.063 24.6285 23.99 24.5559Z" fill="white" />
    <path d="M11.123 10.9199C10.9073 10.9199 10.7324 11.0948 10.7324 11.3105V15.5509C10.7324 15.7666 10.9073 15.9415 11.123 15.9415C11.3387 15.9415 11.5137 15.7666 11.5137 15.5509V11.3105C11.5137 11.0948 11.3387 10.9199 11.123 10.9199Z" fill="white" />
</svg>