<svg width="59" height="17" viewBox="0 0 59 17" fill="none" xmlns="http://www.w3.org/2000/svg">
<path d="M13.3165 5.34456C13.3165 6.80421 12.8112 8.08421 11.7558 9.12842C10.7116 10.1726 9.45403 10.6891 7.99438 10.6891H2.66105V16.0112H0V7.99439H2.66105H8.00561C8.72421 7.99439 9.34175 7.73614 9.86947 7.21965C10.386 6.70316 10.6667 6.07439 10.6667 5.34456C10.6667 4.62596 10.4084 3.98597 9.86947 3.46947C9.35298 2.95298 8.72421 2.69474 8.00561 2.69474H2.66105L0 0H7.99438C9.45403 0 10.7116 0.516491 11.7558 1.5607C12.8 2.61614 13.3165 3.88491 13.3165 5.34456Z" fill="#222729"/>
<path d="M16.0005 13.3165L14.6419 16H11.6777L19.6833 0L25.0279 10.6779H22.03L19.6946 5.97333L17.3367 10.6779L16.0005 13.3165ZM27.6777 16H24.7023L23.3774 13.3389H26.3416L27.6777 16Z" fill="#222729"/>
<path d="M39.7045 11.52L42.3655 12.3958C42.0062 12.9347 41.5908 13.44 41.0855 13.8779C40.6027 14.3158 40.0862 14.6975 39.5023 15.0232C38.9409 15.3375 38.3459 15.5846 37.6834 15.7418C37.0434 15.9214 36.3809 16 35.6848 16C33.4617 16 31.609 15.2028 30.0483 13.6421C28.4876 12.0814 27.6904 10.2175 27.6904 8.00561C27.6904 5.80491 28.4652 3.92982 30.0483 2.36912C31.5753 0.774737 33.4617 0 35.6848 0C36.7852 0 37.8294 0.202105 38.8062 0.617544C39.7606 1.03298 40.6252 1.61684 41.3662 2.35789L39.4462 4.23298C38.402 3.18877 37.1669 2.67228 35.6848 2.67228C34.2252 2.67228 32.9676 3.17754 31.901 4.23298C30.8567 5.27719 30.3627 6.53474 30.3627 7.99439C30.3627 9.45403 30.868 10.734 31.901 11.7782C32.9452 12.8225 34.2252 13.3165 35.6848 13.3165C36.482 13.3165 37.2231 13.1593 37.908 12.8561C38.5816 12.5418 39.1767 12.1039 39.7045 11.52ZM35.6848 6.6807H42.3655L39.7045 9.34175H35.6848V6.6807Z" fill="#222729"/>
<path d="M58.9601 0L55.6365 2.68351H45.6436V0H58.9601ZM55.6365 9.34175H45.6436V6.6807H55.6365V9.34175ZM58.9601 15.7754V16H45.6436V13.3165H55.6365L58.9601 15.7754Z" fill="#222729"/>
</svg>
