<svg width="27" height="35" viewBox="0 0 27 35" fill="none" xmlns="http://www.w3.org/2000/svg">
<mask id="path-1-inside-1" fill="white">
<path d="M15.1269 14.9176C14.8794 14.7055 14.5965 14.564 14.2784 14.458C13.9602 14.3873 13.6066 14.3519 13.1824 14.3519H11.5561C11.2732 14.3519 11.0965 14.4226 10.955 14.5287C10.849 14.6348 10.7783 14.8469 10.7783 15.1297V19.6904C10.7783 19.9025 10.7783 20.044 10.849 20.1854C10.8843 20.3268 10.955 20.3975 11.0611 20.4682C11.1672 20.5389 11.3439 20.5743 11.5914 20.5743H13.2177C13.5006 20.5743 13.748 20.5389 13.9955 20.5036C14.2077 20.4682 14.4198 20.3975 14.6319 20.3268C14.844 20.2207 15.0208 20.1147 15.1622 19.9733C15.3743 19.7611 15.5511 19.549 15.6925 19.3015C15.8339 19.054 15.94 18.7712 16.0107 18.453C16.0814 18.1348 16.1168 17.8166 16.1168 17.4277C16.1168 16.3318 15.7986 15.4833 15.1269 14.9176ZM14.2076 19.3015C14.1016 19.3722 13.9955 19.4429 13.8895 19.4783C13.748 19.5136 13.642 19.549 13.5359 19.549C13.4299 19.549 13.2531 19.549 13.041 19.549H12.0864V15.3065H12.9349C13.3238 15.3065 13.642 15.3418 13.9248 15.4479C14.2076 15.5186 14.4198 15.7307 14.5965 16.0489C14.7733 16.3671 14.8794 16.8267 14.8794 17.4277C14.844 18.347 14.6319 18.948 14.2076 19.3015Z"/>
<path d="M26.3698 7.06832L26.3345 7.03297V6.99761L19.5818 0.244933C19.5818 0.244933 19.5465 0.244933 19.5465 0.209579C19.5465 0.209579 19.5111 0.209579 19.5111 0.174224C19.405 0.103516 19.299 0.103516 19.1576 0.103516H2.50566C1.86928 0.103516 1.26826 0.350996 0.844003 0.775248L0.808649 0.810603C0.384397 1.23485 0.101562 1.87123 0.101562 2.50761V32.5942C0.101562 33.2659 0.384397 33.8669 0.808649 34.2912C1.2329 34.7154 1.86928 34.9983 2.50566 34.9983H24.0365C24.7082 34.9983 25.3092 34.7154 25.7335 34.2912C26.1577 33.8669 26.4405 33.2305 26.4405 32.5942V7.42187C26.4405 7.28045 26.4052 7.17438 26.3698 7.06832ZM19.8293 2.64903L23.8243 6.64407H20.8899C20.6071 6.64407 20.3242 6.53801 20.1475 6.32588C19.9707 6.14911 19.8293 5.86627 19.8293 5.58344V2.64903ZM24.9203 32.5942C24.9203 32.8416 24.8142 33.0538 24.6375 33.2305C24.4607 33.4073 24.2486 33.5134 24.0011 33.5134H2.50566C2.25818 33.5134 2.04605 33.4073 1.86928 33.2659C1.69251 33.0891 1.6218 32.877 1.6218 32.6295V2.47226C1.6218 2.22478 1.72786 2.01265 1.90463 1.83588L1.93999 1.80052C2.11676 1.65911 2.32889 1.55304 2.54101 1.55304H18.3798V5.54808C18.3798 6.25517 18.6626 6.89155 19.1576 7.38651C19.6172 7.84612 20.2889 8.12895 20.996 8.12895H24.9203V32.5942Z"/>
<path d="M9.15346 14.8449C8.97669 14.6681 8.76457 14.5621 8.48173 14.4913C8.23425 14.4206 7.84535 14.3853 7.38575 14.3853H5.75945C5.47662 14.3853 5.26449 14.456 5.15843 14.5621C5.01701 14.6681 4.98166 14.8802 4.98166 15.1631V19.9713C4.98166 20.2187 5.05237 20.3955 5.15843 20.5369C5.26449 20.6783 5.44126 20.7137 5.61803 20.7137C5.79481 20.7137 5.93622 20.643 6.07764 20.5016C6.1837 20.3602 6.25441 20.1834 6.25441 19.9359V18.1682H7.4211C8.1989 18.1682 8.76457 17.9914 9.15346 17.6732C9.54236 17.355 9.75449 16.8601 9.75449 16.2237C9.75449 15.9409 9.71913 15.658 9.61307 15.4106C9.47165 15.1984 9.33023 14.9863 9.15346 14.8449ZM8.30496 16.8247C8.1989 16.9661 8.05748 17.0722 7.84535 17.1429C7.63323 17.2136 7.38575 17.249 7.10291 17.249H6.25441V15.3398H7.10291C7.66858 15.3398 8.02213 15.4459 8.23425 15.6227C8.41102 15.7995 8.48173 16.0116 8.48173 16.2944C8.44638 16.5065 8.41102 16.6833 8.30496 16.8247Z"/>
<path d="M17.9895 14.315C17.7774 14.3504 17.636 14.3857 17.5299 14.4564C17.4238 14.4918 17.3178 14.5978 17.2824 14.7039C17.2117 14.81 17.2117 14.9514 17.2117 15.1635V19.9363C17.2117 20.1838 17.2824 20.3959 17.3885 20.502C17.4945 20.6434 17.6713 20.6788 17.8481 20.6788C18.0249 20.6788 18.1663 20.6081 18.3077 20.502C18.4138 20.3606 18.4845 20.1838 18.4845 19.9363V17.8858H20.5704C20.7471 17.8858 20.8886 17.8504 20.9946 17.7444C21.1007 17.6737 21.136 17.5322 21.136 17.3908C21.136 17.2494 21.1007 17.1433 20.9946 17.0373C20.8886 16.9666 20.7471 16.8959 20.5704 16.8959H18.4845V15.3049H20.9593C21.1714 15.3049 21.3128 15.2696 21.4189 15.1635C21.5249 15.0574 21.5603 14.9514 21.5603 14.81C21.5603 14.6685 21.5249 14.5625 21.4189 14.4564C21.3128 14.3504 21.1714 14.315 20.9593 14.315H17.9895Z"/>
</mask>
<path d="M15.1269 14.9176C14.8794 14.7055 14.5965 14.564 14.2784 14.458C13.9602 14.3873 13.6066 14.3519 13.1824 14.3519H11.5561C11.2732 14.3519 11.0965 14.4226 10.955 14.5287C10.849 14.6348 10.7783 14.8469 10.7783 15.1297V19.6904C10.7783 19.9025 10.7783 20.044 10.849 20.1854C10.8843 20.3268 10.955 20.3975 11.0611 20.4682C11.1672 20.5389 11.3439 20.5743 11.5914 20.5743H13.2177C13.5006 20.5743 13.748 20.5389 13.9955 20.5036C14.2077 20.4682 14.4198 20.3975 14.6319 20.3268C14.844 20.2207 15.0208 20.1147 15.1622 19.9733C15.3743 19.7611 15.5511 19.549 15.6925 19.3015C15.8339 19.054 15.94 18.7712 16.0107 18.453C16.0814 18.1348 16.1168 17.8166 16.1168 17.4277C16.1168 16.3318 15.7986 15.4833 15.1269 14.9176ZM14.2076 19.3015C14.1016 19.3722 13.9955 19.4429 13.8895 19.4783C13.748 19.5136 13.642 19.549 13.5359 19.549C13.4299 19.549 13.2531 19.549 13.041 19.549H12.0864V15.3065H12.9349C13.3238 15.3065 13.642 15.3418 13.9248 15.4479C14.2076 15.5186 14.4198 15.7307 14.5965 16.0489C14.7733 16.3671 14.8794 16.8267 14.8794 17.4277C14.844 18.347 14.6319 18.948 14.2076 19.3015Z" fill="#BEB3AD" fill-opacity="0.3"/>
<path d="M26.3698 7.06832L26.3345 7.03297V6.99761L19.5818 0.244933C19.5818 0.244933 19.5465 0.244933 19.5465 0.209579C19.5465 0.209579 19.5111 0.209579 19.5111 0.174224C19.405 0.103516 19.299 0.103516 19.1576 0.103516H2.50566C1.86928 0.103516 1.26826 0.350996 0.844003 0.775248L0.808649 0.810603C0.384397 1.23485 0.101562 1.87123 0.101562 2.50761V32.5942C0.101562 33.2659 0.384397 33.8669 0.808649 34.2912C1.2329 34.7154 1.86928 34.9983 2.50566 34.9983H24.0365C24.7082 34.9983 25.3092 34.7154 25.7335 34.2912C26.1577 33.8669 26.4405 33.2305 26.4405 32.5942V7.42187C26.4405 7.28045 26.4052 7.17438 26.3698 7.06832ZM19.8293 2.64903L23.8243 6.64407H20.8899C20.6071 6.64407 20.3242 6.53801 20.1475 6.32588C19.9707 6.14911 19.8293 5.86627 19.8293 5.58344V2.64903ZM24.9203 32.5942C24.9203 32.8416 24.8142 33.0538 24.6375 33.2305C24.4607 33.4073 24.2486 33.5134 24.0011 33.5134H2.50566C2.25818 33.5134 2.04605 33.4073 1.86928 33.2659C1.69251 33.0891 1.6218 32.877 1.6218 32.6295V2.47226C1.6218 2.22478 1.72786 2.01265 1.90463 1.83588L1.93999 1.80052C2.11676 1.65911 2.32889 1.55304 2.54101 1.55304H18.3798V5.54808C18.3798 6.25517 18.6626 6.89155 19.1576 7.38651C19.6172 7.84612 20.2889 8.12895 20.996 8.12895H24.9203V32.5942Z" fill="#BEB3AD" fill-opacity="0.3"/>
<path d="M9.15346 14.8449C8.97669 14.6681 8.76457 14.5621 8.48173 14.4913C8.23425 14.4206 7.84535 14.3853 7.38575 14.3853H5.75945C5.47662 14.3853 5.26449 14.456 5.15843 14.5621C5.01701 14.6681 4.98166 14.8802 4.98166 15.1631V19.9713C4.98166 20.2187 5.05237 20.3955 5.15843 20.5369C5.26449 20.6783 5.44126 20.7137 5.61803 20.7137C5.79481 20.7137 5.93622 20.643 6.07764 20.5016C6.1837 20.3602 6.25441 20.1834 6.25441 19.9359V18.1682H7.4211C8.1989 18.1682 8.76457 17.9914 9.15346 17.6732C9.54236 17.355 9.75449 16.8601 9.75449 16.2237C9.75449 15.9409 9.71913 15.658 9.61307 15.4106C9.47165 15.1984 9.33023 14.9863 9.15346 14.8449ZM8.30496 16.8247C8.1989 16.9661 8.05748 17.0722 7.84535 17.1429C7.63323 17.2136 7.38575 17.249 7.10291 17.249H6.25441V15.3398H7.10291C7.66858 15.3398 8.02213 15.4459 8.23425 15.6227C8.41102 15.7995 8.48173 16.0116 8.48173 16.2944C8.44638 16.5065 8.41102 16.6833 8.30496 16.8247Z" fill="#BEB3AD" fill-opacity="0.3"/>
<path d="M17.9895 14.315C17.7774 14.3504 17.636 14.3857 17.5299 14.4564C17.4238 14.4918 17.3178 14.5978 17.2824 14.7039C17.2117 14.81 17.2117 14.9514 17.2117 15.1635V19.9363C17.2117 20.1838 17.2824 20.3959 17.3885 20.502C17.4945 20.6434 17.6713 20.6788 17.8481 20.6788C18.0249 20.6788 18.1663 20.6081 18.3077 20.502C18.4138 20.3606 18.4845 20.1838 18.4845 19.9363V17.8858H20.5704C20.7471 17.8858 20.8886 17.8504 20.9946 17.7444C21.1007 17.6737 21.136 17.5322 21.136 17.3908C21.136 17.2494 21.1007 17.1433 20.9946 17.0373C20.8886 16.9666 20.7471 16.8959 20.5704 16.8959H18.4845V15.3049H20.9593C21.1714 15.3049 21.3128 15.2696 21.4189 15.1635C21.5249 15.0574 21.5603 14.9514 21.5603 14.81C21.5603 14.6685 21.5249 14.5625 21.4189 14.4564C21.3128 14.3504 21.1714 14.315 20.9593 14.315H17.9895Z" fill="#BEB3AD" fill-opacity="0.3"/>
<path d="M15.1269 14.9176C14.8794 14.7055 14.5965 14.564 14.2784 14.458C13.9602 14.3873 13.6066 14.3519 13.1824 14.3519H11.5561C11.2732 14.3519 11.0965 14.4226 10.955 14.5287C10.849 14.6348 10.7783 14.8469 10.7783 15.1297V19.6904C10.7783 19.9025 10.7783 20.044 10.849 20.1854C10.8843 20.3268 10.955 20.3975 11.0611 20.4682C11.1672 20.5389 11.3439 20.5743 11.5914 20.5743H13.2177C13.5006 20.5743 13.748 20.5389 13.9955 20.5036C14.2077 20.4682 14.4198 20.3975 14.6319 20.3268C14.844 20.2207 15.0208 20.1147 15.1622 19.9733C15.3743 19.7611 15.5511 19.549 15.6925 19.3015C15.8339 19.054 15.94 18.7712 16.0107 18.453C16.0814 18.1348 16.1168 17.8166 16.1168 17.4277C16.1168 16.3318 15.7986 15.4833 15.1269 14.9176ZM14.2076 19.3015C14.1016 19.3722 13.9955 19.4429 13.8895 19.4783C13.748 19.5136 13.642 19.549 13.5359 19.549C13.4299 19.549 13.2531 19.549 13.041 19.549H12.0864V15.3065H12.9349C13.3238 15.3065 13.642 15.3418 13.9248 15.4479C14.2076 15.5186 14.4198 15.7307 14.5965 16.0489C14.7733 16.3671 14.8794 16.8267 14.8794 17.4277C14.844 18.347 14.6319 18.948 14.2076 19.3015Z" stroke="#BEB3AD" stroke-width="2" mask="url(#path-1-inside-1)"/>
<path d="M26.3698 7.06832L26.3345 7.03297V6.99761L19.5818 0.244933C19.5818 0.244933 19.5465 0.244933 19.5465 0.209579C19.5465 0.209579 19.5111 0.209579 19.5111 0.174224C19.405 0.103516 19.299 0.103516 19.1576 0.103516H2.50566C1.86928 0.103516 1.26826 0.350996 0.844003 0.775248L0.808649 0.810603C0.384397 1.23485 0.101562 1.87123 0.101562 2.50761V32.5942C0.101562 33.2659 0.384397 33.8669 0.808649 34.2912C1.2329 34.7154 1.86928 34.9983 2.50566 34.9983H24.0365C24.7082 34.9983 25.3092 34.7154 25.7335 34.2912C26.1577 33.8669 26.4405 33.2305 26.4405 32.5942V7.42187C26.4405 7.28045 26.4052 7.17438 26.3698 7.06832ZM19.8293 2.64903L23.8243 6.64407H20.8899C20.6071 6.64407 20.3242 6.53801 20.1475 6.32588C19.9707 6.14911 19.8293 5.86627 19.8293 5.58344V2.64903ZM24.9203 32.5942C24.9203 32.8416 24.8142 33.0538 24.6375 33.2305C24.4607 33.4073 24.2486 33.5134 24.0011 33.5134H2.50566C2.25818 33.5134 2.04605 33.4073 1.86928 33.2659C1.69251 33.0891 1.6218 32.877 1.6218 32.6295V2.47226C1.6218 2.22478 1.72786 2.01265 1.90463 1.83588L1.93999 1.80052C2.11676 1.65911 2.32889 1.55304 2.54101 1.55304H18.3798V5.54808C18.3798 6.25517 18.6626 6.89155 19.1576 7.38651C19.6172 7.84612 20.2889 8.12895 20.996 8.12895H24.9203V32.5942Z" stroke="#BEB3AD" stroke-width="2" mask="url(#path-1-inside-1)"/>
<path d="M9.15346 14.8449C8.97669 14.6681 8.76457 14.5621 8.48173 14.4913C8.23425 14.4206 7.84535 14.3853 7.38575 14.3853H5.75945C5.47662 14.3853 5.26449 14.456 5.15843 14.5621C5.01701 14.6681 4.98166 14.8802 4.98166 15.1631V19.9713C4.98166 20.2187 5.05237 20.3955 5.15843 20.5369C5.26449 20.6783 5.44126 20.7137 5.61803 20.7137C5.79481 20.7137 5.93622 20.643 6.07764 20.5016C6.1837 20.3602 6.25441 20.1834 6.25441 19.9359V18.1682H7.4211C8.1989 18.1682 8.76457 17.9914 9.15346 17.6732C9.54236 17.355 9.75449 16.8601 9.75449 16.2237C9.75449 15.9409 9.71913 15.658 9.61307 15.4106C9.47165 15.1984 9.33023 14.9863 9.15346 14.8449ZM8.30496 16.8247C8.1989 16.9661 8.05748 17.0722 7.84535 17.1429C7.63323 17.2136 7.38575 17.249 7.10291 17.249H6.25441V15.3398H7.10291C7.66858 15.3398 8.02213 15.4459 8.23425 15.6227C8.41102 15.7995 8.48173 16.0116 8.48173 16.2944C8.44638 16.5065 8.41102 16.6833 8.30496 16.8247Z" stroke="#BEB3AD" stroke-width="2" mask="url(#path-1-inside-1)"/>
<path d="M17.9895 14.315C17.7774 14.3504 17.636 14.3857 17.5299 14.4564C17.4238 14.4918 17.3178 14.5978 17.2824 14.7039C17.2117 14.81 17.2117 14.9514 17.2117 15.1635V19.9363C17.2117 20.1838 17.2824 20.3959 17.3885 20.502C17.4945 20.6434 17.6713 20.6788 17.8481 20.6788C18.0249 20.6788 18.1663 20.6081 18.3077 20.502C18.4138 20.3606 18.4845 20.1838 18.4845 19.9363V17.8858H20.5704C20.7471 17.8858 20.8886 17.8504 20.9946 17.7444C21.1007 17.6737 21.136 17.5322 21.136 17.3908C21.136 17.2494 21.1007 17.1433 20.9946 17.0373C20.8886 16.9666 20.7471 16.8959 20.5704 16.8959H18.4845V15.3049H20.9593C21.1714 15.3049 21.3128 15.2696 21.4189 15.1635C21.5249 15.0574 21.5603 14.9514 21.5603 14.81C21.5603 14.6685 21.5249 14.5625 21.4189 14.4564C21.3128 14.3504 21.1714 14.315 20.9593 14.315H17.9895Z" stroke="#BEB3AD" stroke-width="2" mask="url(#path-1-inside-1)"/>
</svg>
