<svg width="49" height="46" viewBox="0 0 49 46" fill="none" xmlns="http://www.w3.org/2000/svg">
<path d="M29.0673 16.4191L29.3025 13.0904C29.4201 11.3687 28.3225 9.8 26.6761 9.26435C26.5977 9.22609 26.5193 9.26435 26.4409 9.30261C26.3625 9.34087 26.3233 9.41739 26.3233 9.49391C26.2449 10.1826 25.4609 10.7183 24.5202 10.7183C23.6186 10.7183 22.8346 10.1826 22.717 9.49391C22.717 9.41739 22.6386 9.34087 22.5994 9.30261C22.521 9.26435 22.4426 9.26435 22.3642 9.26435C20.6786 9.8 19.6202 11.3687 19.7378 13.0904L19.973 16.4191C19.973 16.5721 20.1298 16.6869 20.2866 16.6869H28.8713C28.9497 16.6869 29.0673 16.5721 29.0673 16.4191ZM28.5185 16.113H20.4826L20.2866 13.0522C20.2082 11.713 20.9922 10.4504 22.2074 9.91478C22.521 10.7183 23.4226 11.2922 24.481 11.2922C25.5393 11.2922 26.4801 10.7183 26.7545 9.91478C28.0089 10.4504 28.7929 11.6748 28.6753 13.0522L28.5185 16.113Z" fill="#E3E3E3"/>
<path d="M24.4808 9.30278C26.0096 9.30278 27.264 8.00191 27.264 6.39497C27.264 4.78802 26.0096 3.48716 24.4808 3.48716C22.9521 3.48716 21.6977 4.78802 21.6977 6.39497C21.6977 8.00191 22.9521 9.30278 24.4808 9.30278ZM24.4808 4.09933C25.696 4.09933 26.676 5.13237 26.676 6.43323C26.676 7.69583 25.696 8.76713 24.4808 8.76713C23.2657 8.76713 22.2857 7.73409 22.2857 6.43323C22.2857 5.13237 23.2657 4.09933 24.4808 4.09933Z" fill="#E3E3E3"/>
<path d="M13.3089 31.1497C13.2305 31.1114 13.1521 31.1497 13.0737 31.188C12.9953 31.2262 12.9561 31.3027 12.9561 31.3793C12.8777 32.0679 12.0937 32.6036 11.153 32.6036C10.2514 32.6036 9.46738 32.0679 9.34978 31.3793C9.34978 31.3027 9.27138 31.2262 9.23218 31.188C9.15378 31.1497 9.07539 31.1497 8.99699 31.1497C7.31142 31.6853 6.25303 33.254 6.37063 34.9758L6.60583 38.3044C6.60583 38.4575 6.76262 38.5723 6.91942 38.5723H15.3865C15.5433 38.5723 15.6609 38.4575 15.7001 38.3044L15.9353 34.9758C16.0529 33.254 14.9553 31.6853 13.3089 31.1497ZM15.1121 37.9983H7.11542L6.91942 34.9375C6.84102 33.5984 7.62501 32.3358 8.84019 31.8001C9.15378 32.6036 10.0554 33.1775 11.1138 33.1775C12.1721 33.1775 13.1129 32.6036 13.3873 31.8001C14.6417 32.3358 15.4257 33.5601 15.3081 34.9375L15.1121 37.9983Z" fill="#E3E3E3"/>
<path d="M11.1136 31.1877C12.6424 31.1877 13.8968 29.8868 13.8968 28.2799C13.8968 26.6729 12.6424 25.3721 11.1136 25.3721C9.58486 25.3721 8.33049 26.6729 8.33049 28.2799C8.33049 29.8868 9.58486 31.1877 11.1136 31.1877ZM11.1136 25.9842C12.3288 25.9842 13.3088 27.0173 13.3088 28.3181C13.3088 29.5807 12.3288 30.652 11.1136 30.652C9.89846 30.652 8.91848 29.619 8.91848 28.3181C8.91848 27.0173 9.89846 25.9842 11.1136 25.9842Z" fill="#E3E3E3"/>
<path d="M40.0429 31.1497C39.9645 31.1114 39.8861 31.1497 39.8077 31.188C39.7293 31.2262 39.6901 31.3027 39.6901 31.3793C39.6117 32.0679 38.8277 32.6036 37.8869 32.6036C36.9853 32.6036 36.2013 32.0679 36.0837 31.3793C36.0837 31.3027 36.0053 31.2262 35.9661 31.188C35.8877 31.1497 35.8093 31.1497 35.7309 31.1497C34.0454 31.6853 32.987 33.254 33.1046 34.9758L33.3398 38.3044C33.3398 38.4575 33.4966 38.5723 33.6534 38.5723H42.238C42.3948 38.5723 42.5124 38.4575 42.5516 38.3044L42.7868 34.9758C42.7868 33.254 41.6892 31.6853 40.0429 31.1497ZM41.8852 37.9983H33.8494L33.6534 34.9375C33.575 33.5984 34.359 32.3358 35.5741 31.8001C35.8877 32.6036 36.7893 33.1775 37.8477 33.1775C38.9061 33.1775 39.8469 32.6036 40.1213 31.8001C41.3757 32.3358 42.1596 33.5601 42.042 34.9375L41.8852 37.9983Z" fill="#E3E3E3"/>
<path d="M37.8476 31.1877C39.3764 31.1877 40.6308 29.8868 40.6308 28.2799C40.6308 26.6729 39.3764 25.3721 37.8476 25.3721C36.3188 25.3721 35.0644 26.6729 35.0644 28.2799C35.0644 29.8868 36.3188 31.1877 37.8476 31.1877ZM37.8476 25.9842C39.0628 25.9842 40.0428 27.0173 40.0428 28.3181C40.0428 29.5807 39.0628 30.652 37.8476 30.652C36.6324 30.652 35.6524 29.619 35.6524 28.3181C35.6524 27.0173 36.6324 25.9842 37.8476 25.9842Z" fill="#E3E3E3"/>
<path d="M37.8474 22.8851C34.045 22.8851 30.7523 24.9129 28.9883 27.9355L24.794 25.1807V20.819C30.2427 20.666 34.6722 16.266 34.6722 10.9095C34.6722 5.43824 30.1251 1 24.5196 1C18.9141 1 14.367 5.43824 14.367 10.9095C14.367 16.266 18.7573 20.666 24.2452 20.819V25.1807L20.0117 27.9355C18.2869 24.9129 14.955 22.8851 11.1526 22.8851C5.54712 22.8851 1 27.3233 1 32.7946C1 38.2659 5.54712 42.7041 11.1526 42.7041C16.7581 42.7041 21.3053 38.2659 21.3053 32.7946C21.3053 31.2259 20.9525 29.772 20.2861 28.4712L24.5196 25.7164L28.7139 28.4712C28.0475 29.772 27.6947 31.2642 27.6947 32.7946C27.6947 38.2659 32.2419 42.7041 37.8474 42.7041C43.4529 42.7041 48 38.2659 48 32.7946C48 27.3233 43.4529 22.8851 37.8474 22.8851ZM11.1134 42.1302C5.82152 42.1302 1.54879 37.9215 1.54879 32.7946C1.54879 27.6677 5.86072 23.459 11.1134 23.459C16.4053 23.459 20.6781 27.6677 20.6781 32.7946C20.6781 37.9215 16.4053 42.1302 11.1134 42.1302ZM14.9158 10.9095C14.9158 5.74432 19.2277 1.57391 24.4804 1.57391C29.7723 1.57391 34.045 5.78258 34.045 10.9095C34.045 16.0747 29.7331 20.2451 24.4804 20.2451C19.2277 20.2451 14.9158 16.0747 14.9158 10.9095ZM37.8474 42.1302C32.5555 42.1302 28.2827 37.9215 28.2827 32.7946C28.2827 27.6677 32.5947 23.459 37.8474 23.459C43.1001 23.459 47.412 27.6677 47.412 32.7946C47.412 37.9215 43.1393 42.1302 37.8474 42.1302Z" fill="#E3E3E3"/>
<path d="M4.64597 23.2677H4.68516C4.84196 23.2677 4.95956 23.1529 4.95956 23.0381C5.78274 18.026 8.5267 13.5877 12.721 10.6034C12.8386 10.5269 12.8778 10.3356 12.7994 10.1825C12.721 10.0677 12.525 10.0295 12.3682 10.106C8.05631 13.2051 5.23395 17.7581 4.41077 22.9233C4.37157 23.0764 4.48917 23.2294 4.64597 23.2677Z" fill="#E3E3E3"/>
<path d="M36.5538 10.1061C36.4362 10.0296 36.2402 10.0296 36.1227 10.1826C36.0443 10.2974 36.0443 10.4887 36.201 10.6035C40.3954 13.5878 43.1785 18.026 43.9625 23.0382C44.0017 23.1912 44.1193 23.2678 44.2369 23.2678H44.2761C44.4329 23.2295 44.5505 23.0765 44.5113 22.9234C43.7273 17.7582 40.905 13.2052 36.5538 10.1061Z" fill="#E3E3E3"/>
<path d="M31.9285 42.6278C27.1853 44.7704 21.8934 44.9617 17.0327 43.24C16.8759 43.2017 16.7191 43.2783 16.6407 43.3931C16.6015 43.5461 16.6799 43.6991 16.7975 43.7757C19.0711 44.5791 21.3838 45 23.7358 45C26.5974 45 29.4589 44.3878 32.1637 43.1635C32.3205 43.087 32.3597 42.9339 32.3205 42.7809C32.2421 42.6278 32.0853 42.5513 31.9285 42.6278Z" fill="#E3E3E3"/>
<path d="M29.0673 16.4191L29.3025 13.0904C29.4201 11.3687 28.3225 9.8 26.6761 9.26435C26.5977 9.22609 26.5193 9.26435 26.4409 9.30261C26.3625 9.34087 26.3233 9.41739 26.3233 9.49391C26.2449 10.1826 25.4609 10.7183 24.5202 10.7183C23.6186 10.7183 22.8346 10.1826 22.717 9.49391C22.717 9.41739 22.6386 9.34087 22.5994 9.30261C22.521 9.26435 22.4426 9.26435 22.3642 9.26435C20.6786 9.8 19.6202 11.3687 19.7378 13.0904L19.973 16.4191C19.973 16.5721 20.1298 16.6869 20.2866 16.6869H28.8713C28.9497 16.6869 29.0673 16.5721 29.0673 16.4191ZM28.5185 16.113H20.4826L20.2866 13.0522C20.2082 11.713 20.9922 10.4504 22.2074 9.91478C22.521 10.7183 23.4226 11.2922 24.481 11.2922C25.5393 11.2922 26.4801 10.7183 26.7545 9.91478C28.0089 10.4504 28.7929 11.6748 28.6753 13.0522L28.5185 16.113Z" stroke="#E3E3E3" stroke-width="0.5"/>
<path d="M24.4808 9.30278C26.0096 9.30278 27.264 8.00191 27.264 6.39497C27.264 4.78802 26.0096 3.48716 24.4808 3.48716C22.9521 3.48716 21.6977 4.78802 21.6977 6.39497C21.6977 8.00191 22.9521 9.30278 24.4808 9.30278ZM24.4808 4.09933C25.696 4.09933 26.676 5.13237 26.676 6.43323C26.676 7.69583 25.696 8.76713 24.4808 8.76713C23.2657 8.76713 22.2857 7.73409 22.2857 6.43323C22.2857 5.13237 23.2657 4.09933 24.4808 4.09933Z" stroke="#E3E3E3" stroke-width="0.5"/>
<path d="M13.3089 31.1497C13.2305 31.1114 13.1521 31.1497 13.0737 31.188C12.9953 31.2262 12.9561 31.3027 12.9561 31.3793C12.8777 32.0679 12.0937 32.6036 11.153 32.6036C10.2514 32.6036 9.46738 32.0679 9.34978 31.3793C9.34978 31.3027 9.27138 31.2262 9.23218 31.188C9.15378 31.1497 9.07539 31.1497 8.99699 31.1497C7.31142 31.6853 6.25303 33.254 6.37063 34.9758L6.60583 38.3044C6.60583 38.4575 6.76262 38.5723 6.91942 38.5723H15.3865C15.5433 38.5723 15.6609 38.4575 15.7001 38.3044L15.9353 34.9758C16.0529 33.254 14.9553 31.6853 13.3089 31.1497ZM15.1121 37.9983H7.11542L6.91942 34.9375C6.84102 33.5984 7.62501 32.3358 8.84019 31.8001C9.15378 32.6036 10.0554 33.1775 11.1138 33.1775C12.1721 33.1775 13.1129 32.6036 13.3873 31.8001C14.6417 32.3358 15.4257 33.5601 15.3081 34.9375L15.1121 37.9983Z" stroke="#E3E3E3" stroke-width="0.5"/>
<path d="M11.1136 31.1877C12.6424 31.1877 13.8968 29.8868 13.8968 28.2799C13.8968 26.6729 12.6424 25.3721 11.1136 25.3721C9.58486 25.3721 8.33049 26.6729 8.33049 28.2799C8.33049 29.8868 9.58486 31.1877 11.1136 31.1877ZM11.1136 25.9842C12.3288 25.9842 13.3088 27.0173 13.3088 28.3181C13.3088 29.5807 12.3288 30.652 11.1136 30.652C9.89846 30.652 8.91848 29.619 8.91848 28.3181C8.91848 27.0173 9.89846 25.9842 11.1136 25.9842Z" stroke="#E3E3E3" stroke-width="0.5"/>
<path d="M40.0429 31.1497C39.9645 31.1114 39.8861 31.1497 39.8077 31.188C39.7293 31.2262 39.6901 31.3027 39.6901 31.3793C39.6117 32.0679 38.8277 32.6036 37.8869 32.6036C36.9853 32.6036 36.2013 32.0679 36.0837 31.3793C36.0837 31.3027 36.0053 31.2262 35.9661 31.188C35.8877 31.1497 35.8093 31.1497 35.7309 31.1497C34.0454 31.6853 32.987 33.254 33.1046 34.9758L33.3398 38.3044C33.3398 38.4575 33.4966 38.5723 33.6534 38.5723H42.238C42.3948 38.5723 42.5124 38.4575 42.5516 38.3044L42.7868 34.9758C42.7868 33.254 41.6892 31.6853 40.0429 31.1497ZM41.8852 37.9983H33.8494L33.6534 34.9375C33.575 33.5984 34.359 32.3358 35.5741 31.8001C35.8877 32.6036 36.7893 33.1775 37.8477 33.1775C38.9061 33.1775 39.8469 32.6036 40.1213 31.8001C41.3757 32.3358 42.1596 33.5601 42.042 34.9375L41.8852 37.9983Z" stroke="#E3E3E3" stroke-width="0.5"/>
<path d="M37.8476 31.1877C39.3764 31.1877 40.6308 29.8868 40.6308 28.2799C40.6308 26.6729 39.3764 25.3721 37.8476 25.3721C36.3188 25.3721 35.0644 26.6729 35.0644 28.2799C35.0644 29.8868 36.3188 31.1877 37.8476 31.1877ZM37.8476 25.9842C39.0628 25.9842 40.0428 27.0173 40.0428 28.3181C40.0428 29.5807 39.0628 30.652 37.8476 30.652C36.6324 30.652 35.6524 29.619 35.6524 28.3181C35.6524 27.0173 36.6324 25.9842 37.8476 25.9842Z" stroke="#E3E3E3" stroke-width="0.5"/>
<path d="M37.8474 22.8851C34.045 22.8851 30.7523 24.9129 28.9883 27.9355L24.794 25.1807V20.819C30.2427 20.666 34.6722 16.266 34.6722 10.9095C34.6722 5.43824 30.1251 1 24.5196 1C18.9141 1 14.367 5.43824 14.367 10.9095C14.367 16.266 18.7573 20.666 24.2452 20.819V25.1807L20.0117 27.9355C18.2869 24.9129 14.955 22.8851 11.1526 22.8851C5.54712 22.8851 1 27.3233 1 32.7946C1 38.2659 5.54712 42.7041 11.1526 42.7041C16.7581 42.7041 21.3053 38.2659 21.3053 32.7946C21.3053 31.2259 20.9525 29.772 20.2861 28.4712L24.5196 25.7164L28.7139 28.4712C28.0475 29.772 27.6947 31.2642 27.6947 32.7946C27.6947 38.2659 32.2419 42.7041 37.8474 42.7041C43.4529 42.7041 48 38.2659 48 32.7946C48 27.3233 43.4529 22.8851 37.8474 22.8851ZM11.1134 42.1302C5.82152 42.1302 1.54879 37.9215 1.54879 32.7946C1.54879 27.6677 5.86072 23.459 11.1134 23.459C16.4053 23.459 20.6781 27.6677 20.6781 32.7946C20.6781 37.9215 16.4053 42.1302 11.1134 42.1302ZM14.9158 10.9095C14.9158 5.74432 19.2277 1.57391 24.4804 1.57391C29.7723 1.57391 34.045 5.78258 34.045 10.9095C34.045 16.0747 29.7331 20.2451 24.4804 20.2451C19.2277 20.2451 14.9158 16.0747 14.9158 10.9095ZM37.8474 42.1302C32.5555 42.1302 28.2827 37.9215 28.2827 32.7946C28.2827 27.6677 32.5947 23.459 37.8474 23.459C43.1001 23.459 47.412 27.6677 47.412 32.7946C47.412 37.9215 43.1393 42.1302 37.8474 42.1302Z" stroke="#E3E3E3" stroke-width="0.5"/>
<path d="M4.64597 23.2677H4.68516C4.84196 23.2677 4.95956 23.1529 4.95956 23.0381C5.78274 18.026 8.5267 13.5877 12.721 10.6034C12.8386 10.5269 12.8778 10.3356 12.7994 10.1825C12.721 10.0677 12.525 10.0295 12.3682 10.106C8.05631 13.2051 5.23395 17.7581 4.41077 22.9233C4.37157 23.0764 4.48917 23.2294 4.64597 23.2677Z" stroke="#E3E3E3" stroke-width="0.5"/>
<path d="M36.5538 10.1061C36.4362 10.0296 36.2402 10.0296 36.1227 10.1826C36.0443 10.2974 36.0443 10.4887 36.201 10.6035C40.3954 13.5878 43.1785 18.026 43.9625 23.0382C44.0017 23.1912 44.1193 23.2678 44.2369 23.2678H44.2761C44.4329 23.2295 44.5505 23.0765 44.5113 22.9234C43.7273 17.7582 40.905 13.2052 36.5538 10.1061Z" stroke="#E3E3E3" stroke-width="0.5"/>
<path d="M31.9285 42.6278C27.1853 44.7704 21.8934 44.9617 17.0327 43.24C16.8759 43.2017 16.7191 43.2783 16.6407 43.3931C16.6015 43.5461 16.6799 43.6991 16.7975 43.7757C19.0711 44.5791 21.3838 45 23.7358 45C26.5974 45 29.4589 44.3878 32.1637 43.1635C32.3205 43.087 32.3597 42.9339 32.3205 42.7809C32.2421 42.6278 32.0853 42.5513 31.9285 42.6278Z" stroke="#E3E3E3" stroke-width="0.5"/>
</svg>
