<svg width="76" height="73" viewBox="0 0 76 73" fill="none" xmlns="http://www.w3.org/2000/svg">
<path d="M45.3854 25.5817L45.7657 20.0591C45.9559 17.2026 44.181 14.6 41.5188 13.7113C41.3921 13.6478 41.2653 13.7113 41.1385 13.7748C41.0117 13.8383 40.9483 13.9652 40.9483 14.0922C40.8216 15.2348 39.5539 16.1235 38.0326 16.1235C36.5747 16.1235 35.307 15.2348 35.1168 14.0922C35.1168 13.9652 34.99 13.8383 34.9267 13.7748C34.7999 13.7113 34.6731 13.7113 34.5463 13.7113C31.8207 14.6 30.1093 17.2026 30.2995 20.0591L30.6798 25.5817C30.6798 25.8356 30.9333 26.026 31.1869 26.026H45.0684C45.1952 26.026 45.3854 25.8356 45.3854 25.5817ZM44.498 25.0739H31.5038L31.1869 19.9956C31.0601 17.7739 32.3278 15.6791 34.2928 14.7904C34.7999 16.1235 36.2578 17.0756 37.9692 17.0756C39.6806 17.0756 41.2019 16.1235 41.6456 14.7904C43.674 15.6791 44.9417 17.7104 44.7515 19.9956L44.498 25.0739Z" fill="#222729"/>
<path d="M37.969 13.7751C40.4411 13.7751 42.4694 11.6168 42.4694 8.95074C42.4694 6.28467 40.4411 4.12642 37.969 4.12642C35.497 4.12642 33.4686 6.28467 33.4686 8.95074C33.4686 11.6168 35.497 13.7751 37.969 13.7751ZM37.969 5.14207C39.934 5.14207 41.5186 6.85597 41.5186 9.01422C41.5186 11.109 39.934 12.8864 37.969 12.8864C36.004 12.8864 34.4194 11.1725 34.4194 9.01422C34.4194 6.85597 36.004 5.14207 37.969 5.14207Z" fill="#222729"/>
<path d="M19.9038 50.0211C19.777 49.9576 19.6502 50.0211 19.5235 50.0846C19.3967 50.148 19.3333 50.275 19.3333 50.4019C19.2065 51.5445 17.9388 52.4332 16.4175 52.4332C14.9597 52.4332 13.6919 51.5445 13.5018 50.4019C13.5018 50.275 13.375 50.148 13.3116 50.0846C13.1848 50.0211 13.0581 50.0211 12.9313 50.0211C10.2057 50.9098 8.49427 53.5124 8.68442 56.3689L9.06474 61.8914C9.06474 62.1454 9.31829 62.3358 9.57183 62.3358H23.2632C23.5168 62.3358 23.7069 62.1454 23.7703 61.8914L24.1506 56.3689C24.3408 53.5124 22.566 50.9098 19.9038 50.0211ZM22.8195 61.3836H9.88876L9.57183 56.3054C9.44506 54.0837 10.7128 51.9889 12.6778 51.1002C13.1848 52.4332 14.6427 53.3854 16.3542 53.3854C18.0656 53.3854 19.5868 52.4332 20.0305 51.1002C22.0589 51.9889 23.3266 54.0202 23.1365 56.3054L22.8195 61.3836Z" fill="#222729"/>
<path d="M16.354 50.0841C18.826 50.0841 20.8544 47.9259 20.8544 45.2598C20.8544 42.5937 18.826 40.4355 16.354 40.4355C13.8819 40.4355 11.8535 42.5937 11.8535 45.2598C11.8535 47.9259 13.8819 50.0841 16.354 50.0841ZM16.354 41.4511C18.3189 41.4511 19.9036 43.165 19.9036 45.3233C19.9036 47.418 18.3189 49.1954 16.354 49.1954C14.389 49.1954 12.8043 47.4815 12.8043 45.3233C12.8043 43.165 14.389 41.4511 16.354 41.4511Z" fill="#222729"/>
<path d="M63.1332 50.0211C63.0064 49.9576 62.8796 50.0211 62.7528 50.0846C62.6261 50.148 62.5627 50.275 62.5627 50.4019C62.4359 51.5445 61.1682 52.4332 59.6469 52.4332C58.189 52.4332 56.9213 51.5445 56.7312 50.4019C56.7312 50.275 56.6044 50.148 56.541 50.0846C56.4142 50.0211 56.2874 50.0211 56.1607 50.0211C53.4351 50.9098 51.7236 53.5124 51.9138 56.3689L52.2941 61.8914C52.2941 62.1454 52.5477 62.3358 52.8012 62.3358H66.6828C66.9363 62.3358 67.1265 62.1454 67.1899 61.8914L67.5702 56.3689C67.5702 53.5124 65.7954 50.9098 63.1332 50.0211ZM66.1123 61.3836H53.1181L52.8012 56.3054C52.6744 54.0837 53.9422 51.9889 55.9071 51.1002C56.4142 52.4332 57.8721 53.3854 59.5835 53.3854C61.295 53.3854 62.8162 52.4332 63.2599 51.1002C65.2883 51.9889 66.556 54.0202 66.3658 56.3054L66.1123 61.3836Z" fill="#222729"/>
<path d="M59.5833 50.0841C62.0554 50.0841 64.0838 47.9259 64.0838 45.2598C64.0838 42.5937 62.0554 40.4355 59.5833 40.4355C57.1113 40.4355 55.0829 42.5937 55.0829 45.2598C55.0829 47.9259 57.1113 50.0841 59.5833 50.0841ZM59.5833 41.4511C61.5483 41.4511 63.133 43.165 63.133 45.3233C63.133 47.418 61.5483 49.1954 59.5833 49.1954C57.6184 49.1954 56.0337 47.4815 56.0337 45.3233C56.0337 43.165 57.6184 41.4511 59.5833 41.4511Z" fill="#222729"/>
<path d="M59.583 36.3094C53.4345 36.3094 48.1101 39.6737 45.2577 44.6884L38.4754 40.118V32.8816C47.2861 32.6276 54.4487 25.3277 54.4487 16.4408C54.4487 7.36344 47.0959 0 38.0317 0C28.9675 0 21.6147 7.36344 21.6147 16.4408C21.6147 25.3277 28.7139 32.6276 37.588 32.8816V40.118L30.7423 44.6884C27.9533 39.6737 22.5655 36.3094 16.417 36.3094C7.35279 36.3094 0 43.6728 0 52.7501C0 61.8275 7.35279 69.1909 16.417 69.1909C25.4812 69.1909 32.834 61.8275 32.834 52.7501C32.834 50.1476 32.2636 47.7354 31.186 45.5771L38.0317 41.0067L44.814 45.5771C43.7364 47.7354 43.166 50.211 43.166 52.7501C43.166 61.8275 50.5188 69.1909 59.583 69.1909C68.6472 69.1909 76 61.8275 76 52.7501C76 43.6728 68.6472 36.3094 59.583 36.3094ZM16.3536 68.2388C7.7965 68.2388 0.887406 61.2562 0.887406 52.7501C0.887406 44.2441 7.85988 37.2615 16.3536 37.2615C24.9108 37.2615 31.8199 44.2441 31.8199 52.7501C31.8199 61.2562 24.9108 68.2388 16.3536 68.2388ZM22.5021 16.4408C22.5021 7.87126 29.4746 0.952169 37.9683 0.952169C46.5254 0.952169 53.4345 7.93474 53.4345 16.4408C53.4345 25.0103 46.4621 31.9294 37.9683 31.9294C29.4746 31.9294 22.5021 25.0103 22.5021 16.4408ZM59.583 68.2388C51.0259 68.2388 44.1168 61.2562 44.1168 52.7501C44.1168 44.2441 51.0892 37.2615 59.583 37.2615C68.0767 37.2615 75.0492 44.2441 75.0492 52.7501C75.0492 61.2562 68.1401 68.2388 59.583 68.2388Z" fill="#222729"/>
<path d="M5.8956 36.9441H5.95899C6.21253 36.9441 6.40269 36.7536 6.40269 36.5632C7.7338 28.2476 12.1708 20.8842 18.9531 15.9329C19.1433 15.8059 19.2067 15.4885 19.0799 15.2346C18.9531 15.0442 18.6362 14.9807 18.3827 15.1077C11.4102 20.2494 6.84639 27.8033 5.51529 36.3728C5.4519 36.6267 5.64206 36.8806 5.8956 36.9441Z" fill="#222729"/>
<path d="M57.4913 15.1078C57.3012 14.9809 56.9842 14.9809 56.7941 15.2348C56.6673 15.4252 56.6673 15.7426 56.9208 15.933C63.7032 20.8843 68.2036 28.2478 69.4713 36.5634C69.5347 36.8173 69.7248 36.9442 69.915 36.9442H69.9784C70.2319 36.8808 70.4221 36.6268 70.3587 36.3729C69.091 27.8034 64.5272 20.2495 57.4913 15.1078Z" fill="#222729"/>
<path d="M50.012 69.0644C42.3423 72.6191 33.7851 72.9365 25.9252 70.08C25.6717 70.0165 25.4182 70.1435 25.2914 70.3339C25.228 70.5878 25.3548 70.8418 25.5449 70.9687C29.2213 72.3017 32.9611 73 36.7643 73C41.3915 73 46.0187 71.9844 50.3923 69.9531C50.6458 69.8261 50.7092 69.5722 50.6458 69.3183C50.5191 69.0644 50.2655 68.9374 50.012 69.0644Z" fill="#222729"/>
</svg>
