<svg width="101" height="89" viewBox="0 0 101 89" fill="none" xmlns="http://www.w3.org/2000/svg">
<path d="M27.9127 55.9008C32.8097 55.9008 36.6048 57.4945 39.2982 60.6818C42.2364 63.624 43.7055 67.5468 43.7055 72.4504C43.7055 77.8444 41.9915 82.0124 38.5636 84.9545C35.3806 87.6515 30.7285 89 24.6073 89C17.017 89 11.0182 86.0579 6.61091 80.1736C2.20364 74.2893 0 65.9532 0 55.1653C0 44.8678 2.20364 35.4284 6.61091 26.8471C11.263 18.0207 18.1188 9.19421 27.1782 0.367757C27.423 0.122581 27.7903 0 28.28 0C29.0145 0 29.6267 0.367763 30.1164 1.10331C30.6061 1.83883 30.6061 2.45178 30.1164 2.94215C18.1188 15.2011 12.12 29.6667 12.12 46.3388C12.12 53.2038 13.3442 58.23 15.7927 61.4174C17.9964 57.7397 22.0364 55.9008 27.9127 55.9008ZM85.2073 55.9008C90.1042 55.9008 93.8994 57.4945 96.5927 60.6818C99.5309 63.624 101 67.5468 101 72.4504C101 77.8444 99.2861 82.0124 95.8582 84.9545C92.6751 87.6515 88.023 89 81.9018 89C74.3115 89 68.3127 86.0579 63.9054 80.1736C59.4982 74.2893 57.2945 65.9532 57.2945 55.1653C57.2945 44.8678 59.4982 35.4284 63.9054 26.8471C68.5576 18.0207 75.4133 9.19421 84.4727 0.367757C84.7176 0.122581 85.0848 0 85.5745 0C86.3091 0 86.9212 0.367763 87.4109 1.10331C87.9006 1.83883 87.9006 2.45178 87.4109 2.94215C75.4133 15.2011 69.4145 29.6667 69.4145 46.3388C69.4145 53.2038 70.6388 58.23 73.0873 61.4174C75.2909 57.7397 79.3309 55.9008 85.2073 55.9008Z" fill="#E3E3E3"/>
</svg>
