<svg width="12" height="13" viewBox="0 0 12 13" fill="none" xmlns="http://www.w3.org/2000/svg">
<path d="M5.51756 1.77174C5.6514 1.28023 6.3486 1.28023 6.48244 1.77174L7.28095 4.70428C7.34257 4.9306 7.55324 5.08366 7.78753 5.07233L10.8233 4.92556C11.3321 4.90096 11.5475 5.56403 11.1214 5.8432L8.5792 7.50884C8.383 7.63738 8.30253 7.88504 8.3857 8.10436L9.46339 10.9462C9.64402 11.4225 9.07998 11.8323 8.68279 11.5133L6.31308 9.6102C6.1302 9.46333 5.8698 9.46333 5.68692 9.6102L3.31721 11.5133C2.92003 11.8323 2.35598 11.4225 2.53661 10.9462L3.6143 8.10436C3.69747 7.88504 3.617 7.63738 3.4208 7.50884L0.87855 5.8432C0.452449 5.56403 0.667896 4.90096 1.17671 4.92556L4.21247 5.07233C4.44676 5.08366 4.65743 4.9306 4.71905 4.70428L5.51756 1.77174Z" stroke="#BEB3AD"/>
</svg>
