<svg width="16" height="13" viewBox="0 0 16 13" fill="none" xmlns="http://www.w3.org/2000/svg">
<path d="M1.5 5.4016L1.1357 4.98955C1.01762 5.09395 0.95 5.24398 0.95 5.4016C0.95 5.55921 1.01762 5.70924 1.1357 5.81364L1.5 5.4016ZM6.55996 1.66205C6.78752 1.46085 6.8089 1.11326 6.6077 0.885695C6.4065 0.658128 6.05891 0.636754 5.83135 0.837954L6.55996 1.66205ZM5.83135 9.96524C6.05891 10.1664 6.4065 10.1451 6.6077 9.91749C6.8089 9.68993 6.78752 9.34234 6.55996 9.14114L5.83135 9.96524ZM1.5 5.9516H10V4.8516H1.5V5.9516ZM14.45 10.4016V12.75H15.55V10.4016H14.45ZM1.8643 5.81364L6.55996 1.66205L5.83135 0.837954L1.1357 4.98955L1.8643 5.81364ZM1.1357 5.81364L5.83135 9.96524L6.55996 9.14114L1.8643 4.98955L1.1357 5.81364ZM10 5.9516C12.4577 5.9516 14.45 7.94393 14.45 10.4016H15.55C15.55 7.33641 13.0652 4.8516 10 4.8516V5.9516Z" fill="#222729"/>
</svg>
