<svg width="16" height="16" viewBox="0 0 16 16" fill="none" xmlns="http://www.w3.org/2000/svg">
    <path d="M12.875 9.75C11.8837 9.75 10.9988 10.2141 10.4258 10.9364L6.14514 8.8031C6.21338 8.54675 6.25 8.27759 6.25 8C6.25 7.72241 6.21338 7.45325 6.14514 7.1969L10.4258 5.0636C10.9988 5.78589 11.8837 6.25 12.875 6.25C14.5981 6.25 16 4.84814 16 3.125C16 1.40186 14.5981 0 12.875 0C11.1519 0 9.75 1.40186 9.75 3.125C9.75 3.41003 9.78857 3.68628 9.86035 3.94885L5.58752 6.07812C5.01501 5.34631 4.12402 4.875 3.125 4.875C1.40186 4.875 0 6.27686 0 8C0 9.72314 1.40186 11.125 3.125 11.125C4.12402 11.125 5.01501 10.6537 5.58752 9.92188L9.86035 12.0511C9.78857 12.3137 9.75 12.59 9.75 12.875C9.75 14.5981 11.1519 16 12.875 16C14.5981 16 16 14.5981 16 12.875C16 11.1519 14.5981 9.75 12.875 9.75ZM12.875 1.25C13.9089 1.25 14.75 2.09106 14.75 3.125C14.75 4.15894 13.9089 5 12.875 5C11.8411 5 11 4.15894 11 3.125C11 2.09106 11.8411 1.25 12.875 1.25ZM3.125 9.875C2.09106 9.875 1.25 9.03394 1.25 8C1.25 6.96606 2.09106 6.125 3.125 6.125C4.15894 6.125 5 6.96606 5 8C5 9.03394 4.15894 9.875 3.125 9.875ZM12.875 14.75C11.8411 14.75 11 13.9089 11 12.875C11 11.8411 11.8411 11 12.875 11C13.9089 11 14.75 11.8411 14.75 12.875C14.75 13.9089 13.9089 14.75 12.875 14.75Z" fill="black" />
</svg>