<svg width="18" height="15" viewBox="0 0 18 15" fill="none" xmlns="http://www.w3.org/2000/svg">
<path fill-rule="evenodd" clip-rule="evenodd" d="M1.34546 7.6002C1.34546 4.25636 4.05617 1.54565 7.4 1.54565C9.24749 1.54565 10.9012 2.37231 12.0128 3.67829L13.0374 2.80623C11.6811 1.21273 9.65843 0.200195 7.4 0.200195C3.31309 0.200195 0 3.51329 0 7.6002C0 11.6871 3.31309 15.0002 7.4 15.0002C11.4869 15.0002 14.8 11.6871 14.8 7.6002C14.8 6.68204 14.6325 5.80193 14.3261 4.98954L16.8461 2.46963C17.1088 2.20691 17.1088 1.78096 16.8461 1.51825C16.5833 1.25553 16.1574 1.25553 15.8947 1.51825L7.96127 9.45165L4.51271 6.0031C4.25 5.74038 3.82405 5.74038 3.56133 6.0031C3.29862 6.26581 3.29862 6.69176 3.56133 6.95448L7.96127 11.3544L13.2568 6.05889C13.3858 6.55066 13.4546 7.06713 13.4546 7.6002C13.4546 10.944 10.7438 13.6547 7.4 13.6547C4.05617 13.6547 1.34546 10.944 1.34546 7.6002Z" fill="#222729"/>
</svg>
