<svg width="17" height="17" viewBox="0 0 17 17" fill="none" xmlns="http://www.w3.org/2000/svg">
<path d="M1.5 13.5C1.5 13.2239 1.27614 13 1 13C0.723858 13 0.5 13.2239 0.5 13.5H1.5ZM1 16.5H0.5V17H1V16.5ZM4 17C4.27614 17 4.5 16.7761 4.5 16.5C4.5 16.2239 4.27614 16 4 16V17ZM16.5 1H17V0.5H16.5V1ZM16 4.5C16 4.77614 16.2239 5 16.5 5C16.7761 5 17 4.77614 17 4.5H16ZM13 0.5C12.7239 0.5 12.5 0.723858 12.5 1C12.5 1.27614 12.7239 1.5 13 1.5V0.5ZM0.5 13.5V16.5H1.5V13.5H0.5ZM1 17H4V16H1V17ZM1.35355 16.8536L16.8536 1.35355L16.1464 0.646447L0.646447 16.1464L1.35355 16.8536ZM16 1V4.5H17V1H16ZM16.5 0.5H13V1.5H16.5V0.5Z" fill="#222729"/>
</svg>
