<svg width="141" height="70" viewBox="0 0 141 70" fill="none" xmlns="http://www.w3.org/2000/svg">
<path fill-rule="evenodd" clip-rule="evenodd" d="M14.4116 30.2881C14.4933 29.5663 22.4166 12.7643 22.8506 12.3006L31.2129 30.2881H14.4116ZM22.7946 0H22.7329L0 46.5834L6.09566 46.6123C6.71365 46.3158 6.17239 46.8753 6.67754 46.0581C6.78474 45.8859 6.91263 45.5613 7.0044 45.3557C7.2188 44.868 7.41288 44.5001 7.67844 43.9695L11.5022 35.3962H33.4701C34.1027 35.5208 36.1756 40.3567 36.431 40.8873C36.9467 41.9668 38.6623 46.082 39.4175 46.6123L45.523 46.6074C45.1303 45.217 40.9179 37.1506 39.9024 34.9423C38.0898 30.9951 35.9921 27.1865 34.1896 23.2678C32.4131 19.4018 30.4068 15.5834 28.5329 11.708C26.6285 7.78468 24.7087 3.83284 22.7946 0Z" fill="#DA2927"/>
<path fill-rule="evenodd" clip-rule="evenodd" d="M40.1111 23.043C41.7345 27.0476 43.5162 30.9854 45.298 34.9566L59.5005 67.1751C59.7356 67.6916 59.9293 68.1166 60.1388 68.6043C60.3427 69.087 60.5164 69.6746 60.9095 69.9996L81.483 23.0433H75.2546C74.7445 23.1866 71.9261 30.2544 71.5128 31.2244C69.8841 35.0094 61.4098 55.3333 60.7715 56.0312L46.6352 23.0479L40.1111 23.043Z" fill="#41211D"/>
<path fill-rule="evenodd" clip-rule="evenodd" d="M101.823 47.4304L104.901 47.4878L104.957 30.0545L123.805 48.3283V24.0186L120.686 23.9757L120.676 41.2129C120.099 40.9358 116.265 37.06 115.877 36.6586C114.361 35.0911 112.768 33.6335 111.242 32.0614C110.838 31.6456 110.542 31.3062 110.123 30.9147C109.169 30.0066 102.42 23.2782 101.823 22.9863V47.4304Z" fill="#41211D"/>
<path fill-rule="evenodd" clip-rule="evenodd" d="M83.6735 38.9041C83.7913 38.2309 87.7373 29.8678 88.1003 29.5428L92.4085 38.9041H83.6735ZM76.0925 47.4299L79.36 47.4923C80.095 46.2448 81.7598 42.9236 82.1987 41.5853H93.8589C94.1602 42.5937 96.1357 46.5983 96.7074 47.4877H99.9087C99.791 46.8567 88.4625 23.6221 88.0439 23.1348C87.5282 23.6939 80.1003 39.2675 78.9974 41.4423C77.9916 43.4352 77.0524 45.6093 76.0925 47.4299Z" fill="#41211D"/>
<path fill-rule="evenodd" clip-rule="evenodd" d="M125.945 26.5595L131.913 26.6549L131.908 47.4813H135.037V26.6359H141L140.995 23.9551L125.955 23.9597L125.945 26.5595Z" fill="#41211D"/>
<path fill-rule="evenodd" clip-rule="evenodd" d="M81.0605 55.081C75.0311 55.9985 76.1132 64.1944 82.5459 63.3008C88.5035 62.4738 87.0279 54.1733 81.0605 55.081Z" fill="white"/>
<path fill-rule="evenodd" clip-rule="evenodd" d="M107.367 55.0854C101.281 56.0124 102.726 64.2654 109.001 63.2859C111.308 62.9228 113.09 60.9966 112.676 58.3735C112.34 56.218 110.017 54.6843 107.367 55.0854Z" fill="white"/>
<path fill-rule="evenodd" clip-rule="evenodd" d="M81.0604 55.0798C87.0278 54.1721 88.5033 62.4726 82.5457 63.2996C76.1131 64.1932 75.0309 55.9973 81.0604 55.0798ZM86.2623 55.9399C84.7969 54.6925 82.75 53.5408 79.7277 54.4298C74.7093 55.9019 74.6428 62.5824 79.6818 63.9637C82.4385 64.7185 84.1131 64.0591 85.9204 62.7212C86.1957 62.5159 85.9257 62.6733 86.3082 62.4821V69.6408L87.4671 69.6358L87.411 54.3531L86.3342 54.3869L86.2623 55.9399Z" fill="#DA2927"/>
<path fill-rule="evenodd" clip-rule="evenodd" d="M83.6736 38.9043H92.4086L88.1003 29.543C87.7374 29.8679 83.7913 38.2311 83.6736 38.9043Z" fill="white"/>
<path fill-rule="evenodd" clip-rule="evenodd" d="M107.367 55.0859C110.017 54.6845 112.34 56.2186 112.676 58.374C113.09 60.9971 111.308 62.9234 109.001 63.2864C102.726 64.2662 101.282 56.0129 107.367 55.0859ZM112.656 55.9415C111.941 55.5735 111.762 54.8757 109.909 54.3835C102.119 52.3048 99.3465 62.1058 106.147 63.9743C110.022 65.0355 111.814 62.8417 112.651 62.3878L112.712 64.0268H113.81L113.738 54.3497L112.697 54.3451L112.656 55.9415Z" fill="#DA2927"/>
<path fill-rule="evenodd" clip-rule="evenodd" d="M131.352 63.1381C131.693 62.5026 140.168 55.1337 140.729 54.3496H130.381L130.427 55.2242L138.269 55.258C137.467 56.4192 129.279 63.2624 128.916 64.0268H138.111C140.873 64.0268 140.796 64.3613 140.796 63.1476L131.352 63.1381Z" fill="#DA2927"/>
<path fill-rule="evenodd" clip-rule="evenodd" d="M91.2143 54.3496C91.2143 56.3428 91.0154 59.5109 91.2756 61.3699C91.8165 65.2548 99.2192 65.3076 99.6529 61.1547C99.8011 59.7499 99.8166 55.7597 99.6477 54.3591L98.5862 54.3785C98.0141 58.7746 100.102 63.506 95.2574 63.3528C93.0266 63.2764 92.4086 62.0818 92.3627 60.0221L92.3781 55.4488C92.3732 54.1968 92.2867 54.3496 91.2143 54.3496Z" fill="#DA2927"/>
<path fill-rule="evenodd" clip-rule="evenodd" d="M124.199 55.1947L125.47 55.2665L125.521 64.0258H126.619L126.624 55.2521L128.671 55.1996L128.646 54.3631L126.624 54.2913V50.8887H125.475V54.3156L124.184 54.4106L124.199 55.1947Z" fill="#DA2927"/>
<path fill-rule="evenodd" clip-rule="evenodd" d="M118.838 64.0263C119.078 61.9286 118.695 59.5104 118.945 57.4127C119.073 56.3659 119.456 55.6061 120.232 55.2431C121.651 54.5741 121.815 55.8212 122.641 54.4548C122.483 54.3446 122.647 54.359 122.162 54.2203C120.344 53.7041 119.293 55.1375 118.905 55.4867L118.803 54.3495H117.746L117.782 64.0266H118.838V64.0263Z" fill="#DA2927"/>
</svg>
