<svg width="141" height="75" viewBox="0 0 141 75" fill="none" xmlns="http://www.w3.org/2000/svg">
<g clip-path="url(#clip0)">
<path fill-rule="evenodd" clip-rule="evenodd" d="M14.3681 32.259C14.4495 31.4903 22.3489 13.5949 22.7816 13.101L31.1186 32.259H14.3681ZM22.7257 0H22.6642L0 49.6147L6.07725 49.6455C6.69338 49.3298 6.15375 49.9256 6.65737 49.0552C6.76425 48.8719 6.89175 48.5261 6.98325 48.3071C7.197 47.7878 7.3905 47.3959 7.65525 46.8307L11.4675 37.6995H33.369C33.9998 37.8322 36.0664 42.9829 36.321 43.548C36.8351 44.6978 38.5455 49.0807 39.2985 49.6455L45.3855 49.6403C44.994 48.1594 40.7944 39.5681 39.7819 37.2161C37.9748 33.012 35.8834 28.9556 34.0864 24.7819C32.3153 20.6644 30.315 16.5975 28.4468 12.4699C26.5481 8.29125 24.6341 4.08225 22.7257 0Z" fill="#DA2927"/>
<path fill-rule="evenodd" clip-rule="evenodd" d="M39.9902 24.543C41.6087 28.8082 43.3851 33.0022 45.1615 37.2318L59.3211 71.5469C59.5555 72.0971 59.7486 72.5497 59.9575 73.0691C60.1607 73.5832 60.334 74.2091 60.7258 74.5552L81.2372 24.5433H75.0276C74.5191 24.696 71.7092 32.2237 71.2971 33.2568C69.6733 37.2881 61.2246 58.9346 60.5882 59.6778L46.4946 24.5482L39.9902 24.543Z" fill="white"/>
<path fill-rule="evenodd" clip-rule="evenodd" d="M101.515 50.5152L104.585 50.5763L104.64 32.0086L123.432 51.4715V25.58L120.322 25.5342L120.312 43.8931C119.737 43.598 115.914 39.47 115.527 39.0425C114.016 37.373 112.427 35.8205 110.906 34.1461C110.504 33.7032 110.209 33.3417 109.791 32.9247C108.839 31.9576 102.111 24.7913 101.515 24.4805V50.5152Z" fill="white"/>
<path fill-rule="evenodd" clip-rule="evenodd" d="M125.565 28.2895L131.515 28.3911L131.509 50.5727H134.63V28.3709H140.574L140.569 25.5156L125.575 25.5205L125.565 28.2895Z" fill="white"/>
<path fill-rule="evenodd" clip-rule="evenodd" d="M80.8154 58.664C86.7648 57.6973 88.2359 66.5379 82.2963 67.4188C75.883 68.3705 74.8042 59.6413 80.8154 58.664ZM86.0016 59.5801C84.5406 58.2515 82.4999 57.0249 79.4868 57.9718C74.4835 59.5396 74.4172 66.6549 79.441 68.126C82.1894 68.93 83.8589 68.2277 85.6608 66.8026C85.9353 66.584 85.666 66.7517 86.0474 66.548V74.1725L87.2028 74.1673L87.1469 57.89L86.0733 57.926L86.0016 59.5801Z" fill="#DA2927"/>
<path fill-rule="evenodd" clip-rule="evenodd" d="M87.8343 31.4656C87.4724 31.8118 83.5383 40.7191 83.4209 41.4361H83.4209C83.4209 41.4362 83.4209 41.4363 83.4209 41.4363H92.1295L92.1294 41.4361H92.1295L87.8343 31.4656ZM79.1204 50.5831L75.8628 50.5168C76.3909 49.4467 76.9127 48.262 77.4428 47.0584C77.8734 46.0808 78.3095 45.0908 78.7589 44.1395C79.1012 43.4185 80.0545 41.3147 81.2207 38.7409C83.8011 33.0462 87.424 25.0508 87.778 24.6406C88.1954 25.1596 99.4897 49.9063 99.607 50.5783H96.4154C95.8454 49.631 93.8759 45.3658 93.5755 44.2918H81.9505C81.5129 45.7171 79.8532 49.2545 79.1204 50.5831Z" fill="white"/>
<path fill-rule="evenodd" clip-rule="evenodd" d="M107.043 58.6699C109.685 58.2424 112.001 59.8762 112.336 62.172C112.749 64.9657 110.972 67.0173 108.672 67.404C102.416 68.4476 100.976 59.6572 107.043 58.6699ZM112.316 59.5811C111.604 59.1892 111.425 58.446 109.578 57.9217C101.811 55.7077 99.0468 66.1466 105.826 68.1367C109.69 69.267 111.476 66.9303 112.311 66.447L112.372 68.1926H113.466L113.395 57.8857L112.357 57.8809L112.316 59.5811Z" fill="#DA2927"/>
<path fill-rule="evenodd" clip-rule="evenodd" d="M130.955 67.2452C131.295 66.5683 139.745 58.7199 140.305 57.8848H129.988L130.033 58.8163L137.852 58.8523C137.053 60.089 128.888 67.3775 128.527 68.1917H137.694C140.447 68.1917 140.371 68.5479 140.371 67.2553L130.955 67.2452Z" fill="#DA2927"/>
<path fill-rule="evenodd" clip-rule="evenodd" d="M90.9387 57.8852C90.9387 60.008 90.7403 63.3823 90.9998 65.3622C91.5391 69.5 98.9195 69.5562 99.3518 65.1331C99.4996 63.6369 99.515 59.387 99.3466 57.8953L98.2883 57.9159C97.718 62.5981 99.8 67.6374 94.9696 67.4742C92.7455 67.3929 92.1293 66.1205 92.0836 63.9268L92.099 59.0559C92.0941 57.7224 92.0078 57.8852 90.9387 57.8852Z" fill="#DA2927"/>
<path fill-rule="evenodd" clip-rule="evenodd" d="M123.824 58.7874L125.091 58.8639L125.142 68.1932H126.236L126.242 58.8486L128.283 58.7927L128.257 57.9017L126.242 57.8252V54.2012H125.096V57.8511L123.809 57.9523L123.824 58.7874Z" fill="#DA2927"/>
<path fill-rule="evenodd" clip-rule="evenodd" d="M118.479 68.1931C118.718 65.9589 118.336 63.3834 118.586 61.1491C118.713 60.0342 119.095 59.225 119.869 58.8384C121.283 58.1259 121.447 59.4541 122.271 57.9987C122.113 57.8814 122.276 57.8967 121.793 57.749C119.981 57.1992 118.932 58.7259 118.546 59.0979L118.444 57.8866H117.39L117.426 68.1935H118.479V68.1931Z" fill="#DA2927"/>
</g>
<defs>
<clipPath id="clip0">
<rect width="140.574" height="74.5551" fill="white"/>
</clipPath>
</defs>
</svg>
