<svg width="249" height="38" viewBox="0 0 249 38" fill="none" xmlns="http://www.w3.org/2000/svg">
<path d="M25.1185 2.51738L41.0458 2.51738C49.0397 2.51738 52.344 -0.00132581 52.3394 5.23643e-07L25.0597 5.23643e-07C6.30265 0.00840062 -1.74013 12.4494 0.31231 23.2187C1.76758 30.8562 8.99832 37.3406 19.5233 37.9653C23.7869 38.2178 27.9041 37.009 27.9041 37.009C15.1164 37.2354 6.11378 30.7912 5.11836 21.8681C3.90806 10.9993 12.0913 2.51738 25.1185 2.51738Z" fill="#F2782A"/>
<path d="M20.3213 6.90956C33.4753 5.80163 40.092 14.1805 39.1052 22.5903C38.3954 28.6349 32.3097 33.4309 25.6191 33.1187C22.8436 32.9883 20.3842 31.853 20.3842 31.853C27.943 32.1249 33.6993 27.0923 34.4078 21.0469C35.3959 12.6402 28.2368 7.79466 20.3213 6.90956Z" fill="#F2782A"/>
<path d="M24.6958 11.3169C15.7949 9.56521 11.092 15.4417 11.6946 21.0132C12.1239 25.0161 16.1425 28.2302 20.5982 28.0635C22.4426 27.9946 24.0868 27.2602 24.0868 27.2602C19.0586 27.392 16.1758 24.3591 15.7429 20.354C15.1403 14.7826 19.3108 11.8319 24.6958 11.3169Z" fill="#F2782A"/>
<path d="M151.271 9.90295C150.309 9.63591 149.266 9.50195 148.355 9.50195C146.211 9.50195 143.994 10.9879 142.983 13.0618H142.903V9.97103L139.351 9.97103V29.9283L143.145 29.9283V20.8509C143.145 15.8405 145.366 12.7187 148.767 12.7187C148.912 12.7187 149.311 12.7426 149.389 12.7453L151.271 9.90295Z" fill="white"/>
<path d="M61.8224 13.3368C60.3685 12.7497 58.9151 12.4765 57.7034 12.4765C53.4644 12.4765 51.0812 16.1526 51.0812 19.9517C51.0812 23.5115 53.0607 27.4238 57.9456 27.4238C59.239 27.4238 60.8516 27.0312 62.0231 26.2889L62.3083 29.5742C60.7312 30.282 58.9151 30.3983 57.5433 30.3983C51.3235 30.3983 47.043 25.6628 47.043 19.9517C47.043 13.8833 51.2446 9.50195 57.5433 9.50195C59.077 9.50195 61.0565 9.85299 62.1445 10.2832L61.8224 13.3368Z" fill="white"/>
<path d="M104.404 26.0145C105.897 26.9544 108.039 27.4235 109.127 27.4235C110.863 27.4235 113.004 26.7197 113.004 24.567C113.004 20.9285 104.082 21.2419 104.082 15.6457C104.082 11.4983 107.271 9.50391 111.35 9.50391C113.126 9.50391 114.579 9.85494 116.073 10.2856L115.749 13.4944C114.902 12.9851 112.64 12.4771 111.751 12.4771C109.813 12.4771 108.118 13.2601 108.118 14.903C108.118 18.9721 117.043 17.7997 117.043 24.1758C117.043 28.4421 113.527 30.3989 109.856 30.3989C107.917 30.3989 105.936 30.2022 104.203 29.3029L104.404 26.0145Z" fill="white"/>
<path d="M77.7232 22.1796C77.7232 25.1528 75.7483 27.4244 71.9906 27.4244C70.2548 27.4244 68.154 26.2895 68.154 24.1767C68.154 20.6539 73.2438 20.3405 75.3031 20.3405C76.111 20.3405 76.9171 20.4183 77.7232 20.4183V22.1796ZM81.6816 29.9267C81.6013 29.3414 81.521 28.2847 81.521 26.0154L81.521 17.759C81.521 12.321 79.1379 9.50391 73.2433 9.50391C70.6184 9.50391 68.357 10.2838 66.4606 11.3815L66.6627 14.5112C68.195 13.261 70.4966 12.4767 72.6361 12.4767C76.434 12.4767 77.7227 14.2363 77.7227 17.6798C76.2305 17.6034 75.1808 17.6034 73.6854 17.6034C69.7698 17.6034 64.1157 19.1675 64.1157 24.1767C64.1157 28.5195 67.2261 30.3985 71.669 30.3985C75.1388 30.3985 77.1584 28.5566 78.0462 27.3453H78.1292V29.9267L81.6816 29.9267Z" fill="white"/>
<path d="M202.224 9.9704L205.897 9.9704V13.1403H205.978C207.109 10.871 209.855 9.5 212.722 9.5C218.052 9.5 220.434 12.7075 220.434 18.0707V29.9277L216.639 29.9277V19.5969C216.639 14.9406 215.588 12.6682 212.275 12.4727C207.954 12.4727 206.02 15.8412 206.02 20.692V29.9277L202.225 29.9277V9.9704H202.224Z" fill="white"/>
<path d="M246.324 14.2827C245.085 14.2827 244.163 13.3251 244.163 12.088C244.163 10.8488 245.085 9.89119 246.324 9.89119C247.549 9.89119 248.475 10.8488 248.475 12.088C248.475 13.3251 247.548 14.2827 246.324 14.2827ZM246.319 9.50391C244.847 9.50391 243.654 10.664 243.654 12.088C243.654 13.5107 244.847 14.6682 246.319 14.6682C247.785 14.6682 248.982 13.5107 248.982 12.088C248.982 10.664 247.785 9.50391 246.319 9.50391Z" fill="white"/>
<path d="M245.808 11.8704V10.9574L246.414 10.9574C246.738 10.9574 247.056 11.0547 247.056 11.3986C247.056 11.793 246.804 11.8704 246.414 11.8704L245.808 11.8704ZM247.566 11.419C247.566 10.8487 247.212 10.5684 246.494 10.5684L245.297 10.5684V13.5942L245.808 13.5942V12.2563L246.238 12.2563L247.107 13.5942L247.645 13.5942L246.76 12.2563C247.25 12.2563 247.566 11.908 247.566 11.419Z" fill="white"/>
<path d="M132.409 22.179C132.409 25.1535 130.429 27.4238 126.676 27.4238C124.936 27.4238 122.836 26.2889 122.836 24.176C122.836 20.6546 127.925 20.3398 129.984 20.3398C130.791 20.3398 131.603 20.419 132.409 20.419V22.179ZM136.205 17.7584C136.205 12.3204 133.822 9.50195 127.925 9.50195C125.301 9.50195 123.038 10.2849 121.142 11.3809L121.345 14.5093C122.881 13.259 125.179 12.4774 127.32 12.4774C131.117 12.4774 132.409 14.2361 132.409 17.6779C130.912 17.6027 129.867 17.6027 128.371 17.6027C124.454 17.6027 118.801 19.1687 118.801 24.176C118.801 28.5189 121.912 30.3978 126.352 30.3978C129.822 30.3978 131.841 28.556 132.729 27.346H132.811V29.9261L136.365 29.9261C136.285 29.3408 136.205 28.2841 136.205 26.0134V17.7584H136.205Z" fill="white"/>
<path d="M189.724 27.4238C185.241 27.4238 183.264 23.5098 183.264 19.9517C183.264 16.1539 185.644 12.4778 189.724 12.4778C193.763 12.4778 196.143 16.1539 196.143 19.9517C196.143 23.5102 194.167 27.4238 189.724 27.4238ZM189.724 9.50195C183.424 9.50195 179.225 13.8833 179.225 19.9517C179.225 25.6628 183.506 30.3983 189.724 30.3983C195.904 30.3983 200.183 25.6628 200.183 19.9517C200.183 13.8833 195.983 9.50195 189.724 9.50195Z" fill="white"/>
<path d="M226.715 18.032C226.998 15.4505 228.533 12.4778 232.247 12.4778C235.518 12.4778 237.377 14.9801 237.377 18.032L226.715 18.032ZM232.329 9.50195C226.515 9.50195 222.676 13.6865 222.676 19.5975C222.676 26.0943 226.029 30.3983 233.337 30.3983C236.73 30.3983 238.387 29.6144 239.838 29.1078V25.4285C238.91 26.1708 236.003 27.4242 233.5 27.4242C229.902 27.4242 226.715 24.7238 226.715 20.7722L241.411 20.7722C241.411 14.3541 239.192 9.50195 232.329 9.50195Z" fill="white"/>
<path d="M93.278 12.4778C96.5462 12.4778 98.4024 14.9801 98.4024 18.032L87.7429 18.032C88.0276 15.4505 89.5613 12.4778 93.278 12.4778ZM87.7425 20.7718L102.441 20.7718C102.441 14.3537 100.219 9.50195 93.3551 9.50195C87.5422 9.50195 83.7056 13.6865 83.7056 19.5975C83.7056 26.0943 87.0568 30.3983 94.3637 30.3983C97.7592 30.3983 99.412 29.6144 100.869 29.1078V25.4285C99.9375 26.1708 97.0302 27.4242 94.527 27.4242C90.9336 27.4238 87.7425 24.7234 87.7425 20.7718Z" fill="white"/>
<path d="M176.597 27.4278C174.864 27.4278 173.406 26.1745 173.406 23.8675V12.9598L178.857 12.9598V9.97024L173.406 9.96891V6.83789L169.613 7.52758L169.616 9.96891L158.84 9.96891C158.09 10.0047 151.741 9.42512 151.73 15.658C151.719 21.2485 160.645 20.9359 160.645 24.5709C160.645 26.7222 158.506 27.4274 156.771 27.4274C155.684 27.4274 153.543 26.9579 152.052 26.0184L151.85 29.3024C153.586 30.2003 155.564 30.3988 157.497 30.3988C161.169 30.3988 164.665 28.4429 164.678 24.181C164.696 17.7854 155.6 18.9221 155.764 14.8251C155.836 13.0416 157.817 12.9943 159.236 12.9593L169.616 12.9593L169.619 24.6098C169.619 28.5999 172.041 30.3993 175.952 30.3993C177.163 30.3993 178.334 30.084 179.18 29.8511V26.7227C178.614 27.075 177.766 27.4278 176.597 27.4278Z" fill="white"/>
</svg>
