<svg width="255" height="43" viewBox="0 0 255 43" fill="none" xmlns="http://www.w3.org/2000/svg">
<g clip-path="url(#clip0)">
<path d="M67.5947 21.6862H73.0272V22.3542C73.0272 22.3542 71.4242 22.1761 71.4242 23.1112C71.4242 24.0463 71.4242 28.3211 71.4242 28.3211C71.4242 28.3211 69.1087 32.1061 63.1863 32.1061C57.2639 32.1061 52.4102 27.8313 52.4102 21.3745C52.4102 14.9178 56.774 10.6875 62.9636 10.6875C69.1532 10.6875 70.1328 12.914 70.1328 12.914L70.6227 17.0107L69.8211 16.9661C69.8211 16.9661 68.797 12.1124 62.9636 12.1124C57.1303 12.1124 55.0819 17.1442 55.0819 21.5081C55.0819 25.872 57.8873 30.6812 63.0972 30.6812C68.2626 30.6812 69.0641 28.3656 69.0641 28.3656V22.844C69.0641 22.844 68.7079 22.3542 67.5947 22.3542V21.6862Z" fill="#111010"/>
<path d="M84.2043 31.8393V30.9933H85.6292C85.6292 30.9933 86.3862 30.548 86.3862 29.3457C86.3862 28.1434 86.3862 13.6269 86.3862 13.6269C86.3862 13.6269 86.03 12.1129 84.1152 12.1129V11.4004H93.6445C93.6445 11.4004 97.9193 12.2464 97.9193 17.1447C97.9193 22.0429 93.6 22.8444 93.6 22.8444C93.6 22.8444 98.8544 31.0378 102.417 31.0378V31.7948H99.0771C99.0771 31.7948 96.4944 30.8597 94.2679 27.4755C92.086 24.0912 91.4626 21.9984 88.4791 21.9984V29.3012C88.4791 29.3012 88.4791 30.9488 89.5033 30.9488C90.5274 30.9488 90.7946 30.9488 90.7946 30.9488V31.7503L84.2043 31.8393ZM91.6852 21.375C93.1992 21.375 95.2921 20.2617 95.2921 16.8775C95.2921 13.4933 92.7094 12.6917 92.7094 12.6917H88.6127V21.375C88.5682 21.3304 90.1712 21.375 91.6852 21.375Z" fill="#111010"/>
<path d="M131.05 30.9929C131.095 30.9929 131.05 30.9929 131.05 30.9929V30.9929ZM128.156 28.9445L120.898 11.3555H120.363C120.363 11.3555 113.639 27.9204 113.149 29.3898C112.66 30.8593 111.546 31.0374 111.546 31.0374H110.166V31.7944L116.222 31.839V30.9038H115.465C114.129 30.9038 114.842 29.5234 114.842 29.5234L116.623 25.026L124.148 25.115C124.861 26.9407 125.44 28.4993 125.618 28.9891C126.241 30.5921 125.172 30.9929 125.172 30.9929H124.326V31.7944H131.05V30.9929C131.006 30.9929 130.828 31.0374 130.249 31.0374C129.225 31.0374 128.156 28.9445 128.156 28.9445ZM117.202 23.512L120.274 15.6748L120.586 15.8084C120.586 15.8084 122.144 19.9051 123.525 23.5565L117.202 23.512Z" fill="#111010"/>
<path d="M140.445 31.8378V31.0808H141.692C141.692 31.0808 142.761 31.2144 142.761 29.3441C142.761 27.4739 142.761 11.4434 142.761 11.4434H143.251L157.901 26.9841V13.937C157.901 13.937 157.634 12.6456 156.877 12.6456C156.12 12.6456 155.674 12.6456 155.674 12.6456V11.8441H161.775V12.5566H160.394C160.394 12.5566 159.459 12.6011 159.459 14.0261C159.459 15.451 159.459 31.7487 159.459 31.7487H159.059L144.542 16.6088V29.3887C144.542 29.3887 144.497 30.9472 145.655 30.9472C146.813 30.9472 146.59 30.9472 146.59 30.9472V31.8378H140.445Z" fill="#111010"/>
<path d="M173.887 31.839V30.9038H174.822C174.822 30.9038 176.247 31.082 176.247 29.1227C176.247 27.1634 176.247 13.2702 176.247 13.2702C176.247 13.2702 175.98 12.0679 174.466 12.0679H173.976V11.3555H186.132C186.132 11.3555 194.504 12.6468 194.504 21.5527C194.504 30.4585 186.578 31.7499 185.331 31.7499C183.995 31.7499 173.887 31.839 173.887 31.839ZM184.796 30.6367C186.489 30.6367 191.921 28.6328 191.921 21.2855C191.921 13.9382 185.642 12.3796 185.642 12.3796H178.562V30.5476C178.562 30.5476 183.104 30.6367 184.796 30.6367Z" fill="#111010"/>
<path d="M205.369 12.246V11.5781L216.234 11.3554L217.659 10.9102V15.0069H217.08C217.08 15.0069 217.259 12.7804 215.344 12.7804C213.429 12.7804 210 12.7804 210 12.7804V21.1519H214.988C214.988 21.1519 215.7 20.9292 215.7 19.5043H216.368V24.1799H215.745V23.0221C215.745 23.0221 215.433 22.3542 214.631 22.3542C213.83 22.3542 210 22.3542 210 22.3542V30.6366H215.077C215.077 30.6366 218.06 29.3898 218.683 26.8962H219.396L217.659 31.8389H205.369V31.171C205.369 31.171 207.64 31.4827 207.64 29.0781C207.64 26.6735 207.64 13.1366 207.64 13.1366C207.64 13.1366 207.462 12.246 205.369 12.246Z" fill="#111010"/>
<path d="M230.751 12.2464V11.4004H238.009V12.1129H237.163C237.163 12.1129 235.56 12.38 236.763 13.9831C237.965 15.5861 240.191 19.2375 240.191 19.2375H240.637L244.243 13.4487C244.243 13.4487 244.822 11.9793 242.774 11.9793V11.4449H249.632V12.0683H248.207C248.207 12.0683 247.004 12.291 245.98 13.9831C244.956 15.6752 241.438 20.6625 241.438 20.6625L241.483 20.9742L246.826 29.5683C246.826 29.5683 247.672 30.9933 249.899 30.9933V31.7057H242.863V31.0378H243.665C243.665 31.0378 244.644 30.6816 243.709 28.9449C242.774 27.2083 239.969 23.0225 239.969 23.0225L239.702 23.0671L235.961 29.2121C235.961 29.2121 234.848 30.9933 236.451 30.9933H237.074V31.7948H230.217V30.8597H231.508C231.508 30.8597 232.799 30.8152 233.556 29.4793C234.313 28.1434 238.588 21.9984 238.588 21.9984L238.677 21.0187L234.18 13.805C234.18 13.805 233.467 12.2464 230.751 12.2464Z" fill="#111010"/>
<path d="M23.4224 6.76845L19.5484 0L3.91858 9.03945V27.0738L0 33.7977L15.6298 42.8372L31.2596 33.7977H39.0522V15.7634L23.4224 6.76845ZM29.8346 22.3537C29.8346 22.3537 28.2316 22.1756 28.2316 23.1107C28.2316 24.0458 28.2316 28.3206 28.2316 28.3206C28.2316 28.3206 25.9161 32.1056 19.9937 32.1056C14.0713 32.1056 9.21757 27.8308 9.21757 21.3741C9.21757 14.9173 13.5814 10.687 19.771 10.687C25.9606 10.687 26.9402 12.9135 26.9402 12.9135L27.4301 17.0102L26.6285 16.9657C26.6285 16.9657 25.6044 12.112 19.771 12.112C13.9377 12.112 11.8893 17.1438 11.8893 21.5077C11.8893 25.8715 14.6947 30.6807 19.9046 30.6807C25.07 30.6807 25.8715 28.3652 25.8715 28.3652V22.8435C25.8715 22.8435 25.5153 22.3537 24.4021 22.3537V21.6858H29.8346V22.3537Z" fill="#111010"/>
<path d="M24.4013 21.6862H29.8339V22.3542C29.8339 22.3542 28.2308 22.1761 28.2308 23.1112C28.2308 24.0463 28.2308 28.3211 28.2308 28.3211C28.2308 28.3211 25.9153 32.1061 19.9929 32.1061C14.0705 32.1061 9.2168 27.8313 9.2168 21.3745C9.2168 14.9178 13.5807 10.6875 19.7702 10.6875C25.9598 10.6875 26.9395 12.914 26.9395 12.914L27.4293 17.0107L26.6278 16.9661C26.6278 16.9661 25.6036 12.1124 19.7702 12.1124C13.9369 12.1124 11.8886 17.1442 11.8886 21.5081C11.8886 25.872 14.6939 30.6812 19.9038 30.6812C25.1138 30.6812 25.8708 28.3656 25.8708 28.3656V22.844C25.8708 22.844 25.5145 22.3542 24.4013 22.3542V21.6862Z" fill="white"/>
<path d="M254.352 12.5132C254.352 13.4038 253.639 14.1163 252.704 14.1163C251.769 14.1163 251.057 13.4038 251.057 12.5132C251.057 11.6226 251.814 10.9102 252.749 10.9102C253.595 10.9102 254.352 11.6226 254.352 12.5132ZM251.457 12.5132C251.457 13.2257 251.992 13.8046 252.704 13.8046C253.417 13.8046 253.951 13.2257 253.951 12.5132C253.951 11.8007 253.417 11.2219 252.704 11.2219C251.992 11.2219 251.457 11.8007 251.457 12.5132ZM252.437 13.3593H252.081V11.7562C252.214 11.7562 252.437 11.7117 252.704 11.7117C253.016 11.7117 253.15 11.7562 253.239 11.8453C253.328 11.9343 253.417 12.0234 253.417 12.2015C253.417 12.3796 253.283 12.5132 253.06 12.6023C253.239 12.6468 253.283 12.7804 253.328 13.003C253.372 13.2702 253.417 13.3147 253.461 13.4038H253.06C253.016 13.3593 252.971 13.2257 252.927 13.003C252.882 12.8249 252.793 12.7359 252.615 12.7359H252.437V13.3593ZM252.437 12.4242H252.615C252.838 12.4242 252.971 12.3351 252.971 12.2015C252.971 12.0679 252.882 11.9343 252.615 11.9343C252.526 11.9343 252.437 11.9343 252.393 11.9343V12.4242H252.437Z" fill="white"/>
</g>
<defs>
<clipPath id="clip0">
<rect width="254.797" height="42.8372" fill="white"/>
</clipPath>
</defs>
</svg>
