<svg width="274" height="46" viewBox="0 0 274 46" fill="none" xmlns="http://www.w3.org/2000/svg">
<g clip-path="url(#clip0)">
<path d="M72.5864 23.2874H78.4201V24.0046C78.4201 24.0046 76.6987 23.8134 76.6987 24.8175C76.6987 25.8217 76.6987 30.4121 76.6987 30.4121C76.6987 30.4121 74.2122 34.4766 67.8525 34.4766C61.4928 34.4766 56.2808 29.8861 56.2808 22.9527C56.2808 16.0192 60.9668 11.4766 67.6134 11.4766C74.26 11.4766 75.312 13.8674 75.312 13.8674L75.838 18.2666L74.9772 18.2188C74.9772 18.2188 73.8774 13.0067 67.6134 13.0067C61.3494 13.0067 59.1498 18.41 59.1498 23.0961C59.1498 27.7822 62.1623 32.9464 67.7569 32.9464C73.3036 32.9464 74.1644 30.4599 74.1644 30.4599V24.5306C74.1644 24.5306 73.7818 24.0046 72.5864 24.0046V23.2874Z" fill="white"/>
<path d="M90.4223 34.1883V33.2797H91.9524C91.9524 33.2797 92.7653 32.8016 92.7653 31.5105C92.7653 30.2194 92.7653 14.6311 92.7653 14.6311C92.7653 14.6311 92.3828 13.0053 90.3267 13.0053V12.2402H100.56C100.56 12.2402 105.15 13.1488 105.15 18.4086C105.15 23.6685 100.512 24.5292 100.512 24.5292C100.512 24.5292 106.154 33.3276 109.979 33.3276V34.1404H106.393C106.393 34.1404 103.62 33.1363 101.229 29.5022C98.8859 25.8681 98.2165 23.6207 95.0127 23.6207V31.4627C95.0127 31.4627 95.0127 33.2319 96.1125 33.2319C97.2123 33.2319 97.4992 33.2319 97.4992 33.2319V34.0926L90.4223 34.1883ZM98.4556 22.9513C100.081 22.9513 102.329 21.7558 102.329 18.1217C102.329 14.4876 99.5554 13.6269 99.5554 13.6269H95.1562V22.9513C95.1084 22.9034 96.8298 22.9513 98.4556 22.9513Z" fill="white"/>
<path d="M140.726 33.2807C140.773 33.2807 140.726 33.2807 140.726 33.2807V33.2807ZM137.617 31.0811L129.823 12.1934H129.249C129.249 12.1934 122.029 29.9813 121.503 31.5593C120.977 33.1372 119.782 33.3285 119.782 33.3285H118.299V34.1414L124.802 34.1892V33.185H123.99C122.555 33.185 123.32 31.7027 123.32 31.7027L125.233 26.8732L133.314 26.9688C134.079 28.9293 134.701 30.6029 134.892 31.1289C135.561 32.8503 134.414 33.2807 134.414 33.2807H133.505V34.1414H140.726V33.2807C140.678 33.2807 140.486 33.3285 139.865 33.3285C138.765 33.3285 137.617 31.0811 137.617 31.0811ZM125.854 25.2474L129.154 16.8316L129.489 16.9751C129.489 16.9751 131.162 21.3742 132.644 25.2952L125.854 25.2474Z" fill="white"/>
<path d="M150.815 34.1893V33.3764H152.154C152.154 33.3764 153.301 33.5198 153.301 31.5115C153.301 29.5032 153.301 12.2891 153.301 12.2891H153.827L169.559 28.9772V14.9668C169.559 14.9668 169.272 13.5801 168.459 13.5801C167.647 13.5801 167.168 13.5801 167.168 13.5801V12.7194H173.719V13.4845H172.237C172.237 13.4845 171.233 13.5323 171.233 15.0624C171.233 16.5926 171.233 34.0936 171.233 34.0936H170.802L155.214 17.8358V31.5593C155.214 31.5593 155.166 33.2329 156.41 33.2329C157.653 33.2329 157.414 33.2329 157.414 33.2329V34.1893H150.815Z" fill="white"/>
<path d="M186.726 34.1892V33.185H187.73C187.73 33.185 189.26 33.3763 189.26 31.2724C189.26 29.1684 189.26 14.2495 189.26 14.2495C189.26 14.2495 188.973 12.9584 187.347 12.9584H186.821V12.1934H199.875C199.875 12.1934 208.865 13.5801 208.865 23.1435C208.865 32.7069 200.353 34.0936 199.015 34.0936C197.58 34.0936 186.726 34.1892 186.726 34.1892ZM198.441 32.8981C200.258 32.8981 206.091 30.7464 206.091 22.8566C206.091 14.9667 199.349 13.2932 199.349 13.2932H191.746V32.8025C191.746 32.8025 196.624 32.8981 198.441 32.8981Z" fill="white"/>
<path d="M220.532 13.1494V12.4321L232.2 12.193L233.73 11.7148V16.114H233.108C233.108 16.114 233.299 13.7232 231.243 13.7232C229.187 13.7232 225.505 13.7232 225.505 13.7232V22.7128H230.861C230.861 22.7128 231.626 22.4737 231.626 20.9435H232.343V25.9643H231.674V24.7211C231.674 24.7211 231.339 24.0038 230.478 24.0038C229.618 24.0038 225.505 24.0038 225.505 24.0038V32.8978H230.956C230.956 32.8978 234.16 31.5589 234.83 28.8812H235.595L233.73 34.1889H220.532V33.4716C220.532 33.4716 222.971 33.8063 222.971 31.2242C222.971 28.6421 222.971 14.1057 222.971 14.1057C222.971 14.1057 222.78 13.1494 220.532 13.1494Z" fill="white"/>
<path d="M247.788 13.1488V12.2402H255.582V13.0053H254.674C254.674 13.0053 252.952 13.2922 254.243 15.0136C255.535 16.735 257.925 20.656 257.925 20.656H258.404L262.277 14.4398C262.277 14.4398 262.898 12.8619 260.699 12.8619V12.2881H268.063V12.9575H266.532C266.532 12.9575 265.241 13.1966 264.142 15.0136C263.042 16.8307 259.264 22.1862 259.264 22.1862L259.312 22.5209L265.05 31.7496C265.05 31.7496 265.959 33.2797 268.349 33.2797V34.0448H260.794V33.3275H261.655C261.655 33.3275 262.707 32.945 261.703 31.0801C260.699 29.2153 257.686 24.7205 257.686 24.7205L257.399 24.7683L253.383 31.367C253.383 31.367 252.187 33.2797 253.909 33.2797H254.578V34.1404H247.214V33.1363H248.601C248.601 33.1363 249.988 33.0885 250.801 31.6539C251.614 30.2194 256.204 23.6207 256.204 23.6207L256.3 22.5687L251.47 14.8224C251.47 14.8224 250.705 13.1488 247.788 13.1488Z" fill="white"/>
<path d="M25.1518 7.26819L20.9917 0L4.2079 9.70686V29.0728L0 36.2931L16.7838 46L33.5676 36.2931H41.9356V16.9272L25.1518 7.26819ZM32.0374 24.0042C32.0374 24.0042 30.316 23.8129 30.316 24.817C30.316 25.8212 30.316 30.4116 30.316 30.4116C30.316 30.4116 27.8295 34.4761 21.4699 34.4761C15.1102 34.4761 9.89813 29.8857 9.89813 22.9522C9.89813 16.0187 14.5842 11.4761 21.2308 11.4761C27.8773 11.4761 28.9293 13.8669 28.9293 13.8669L29.4553 18.2661L28.5946 18.2183C28.5946 18.2183 27.4948 13.0062 21.2308 13.0062C14.9667 13.0062 12.7672 18.4096 12.7672 23.0956C12.7672 27.7817 15.7796 32.9459 21.3742 32.9459C26.921 32.9459 27.7817 30.4595 27.7817 30.4595V24.5301C27.7817 24.5301 27.3992 24.0042 26.2037 24.0042V23.2869H32.0374V24.0042Z" fill="white"/>
<path d="M26.2036 23.2874H32.0372V24.0046C32.0372 24.0046 30.3158 23.8134 30.3158 24.8175C30.3158 25.8217 30.3158 30.4121 30.3158 30.4121C30.3158 30.4121 27.8293 34.4766 21.4697 34.4766C15.11 34.4766 9.89795 29.8861 9.89795 22.9527C9.89795 16.0192 14.584 11.4766 21.2306 11.4766C27.8772 11.4766 28.9291 13.8674 28.9291 13.8674L29.4551 18.2666L28.5944 18.2188C28.5944 18.2188 27.4946 13.0067 21.2306 13.0067C14.9666 13.0067 12.767 18.41 12.767 23.0961C12.767 27.7822 15.7794 32.9464 21.374 32.9464C26.9686 32.9464 27.7815 30.4599 27.7815 30.4599V24.5306C27.7815 24.5306 27.399 24.0046 26.2036 24.0046V23.2874Z" fill="#222729"/>
<path d="M273.131 13.4363C273.131 14.3926 272.366 15.1577 271.362 15.1577C270.358 15.1577 269.593 14.3926 269.593 13.4363C269.593 12.4799 270.406 11.7148 271.41 11.7148C272.318 11.7148 273.131 12.4799 273.131 13.4363ZM270.023 13.4363C270.023 14.2013 270.597 14.823 271.362 14.823C272.127 14.823 272.701 14.2013 272.701 13.4363C272.701 12.6712 272.127 12.0496 271.362 12.0496C270.597 12.0496 270.023 12.6712 270.023 13.4363ZM271.075 14.3448H270.693V12.6234C270.836 12.6234 271.075 12.5756 271.362 12.5756C271.697 12.5756 271.84 12.6234 271.936 12.719C272.031 12.8146 272.127 12.9103 272.127 13.1015C272.127 13.2928 271.984 13.4363 271.745 13.5319C271.936 13.5797 271.984 13.7232 272.031 13.9622C272.079 14.2492 272.127 14.297 272.175 14.3926H271.745C271.697 14.3448 271.649 14.2013 271.601 13.9622C271.553 13.771 271.458 13.6753 271.266 13.6753H271.075V14.3448ZM271.075 13.3406H271.266C271.505 13.3406 271.649 13.245 271.649 13.1015C271.649 12.9581 271.553 12.8146 271.266 12.8146C271.171 12.8146 271.075 12.8146 271.027 12.8146V13.3406H271.075Z" fill="#222729"/>
</g>
<defs>
<clipPath id="clip0">
<rect width="273.609" height="46" fill="white"/>
</clipPath>
</defs>
</svg>
