<svg width="407" height="45" viewBox="0 0 407 45" fill="none" xmlns="http://www.w3.org/2000/svg">
<path d="M366.237 12.0623C366.237 9.87485 367.922 8.18736 370.045 8.18736C372.167 8.18736 373.853 9.81236 373.853 11.9999C373.853 14.1874 372.167 15.8749 370.045 15.8749C367.922 15.8749 366.237 14.1873 366.237 12.0623ZM365.488 12.0623C365.488 14.5623 367.548 16.5624 370.045 16.5624C372.479 16.5624 374.539 14.6248 374.539 12.0623C374.539 9.49985 372.479 7.62486 370.045 7.62486C367.548 7.49986 365.488 9.43735 365.488 12.0623ZM369.046 10.0624H370.17C370.731 10.0624 371.356 10.1249 371.356 10.8749C371.356 11.6874 370.669 11.7498 369.92 11.7498H369.046V10.0624ZM368.297 14.6249H369.046V12.3748H369.982L371.418 14.6249H372.23L370.731 12.3124C371.48 12.2499 372.105 11.8124 372.105 10.8749C372.105 9.81235 371.543 9.37485 370.294 9.37485H368.297V14.6249Z" fill="#F58025"/>
<path d="M65.6687 22.125L71.1619 13.875L76.6552 22.125H65.6687ZM80.2757 7.5H61.9857L42.3848 32.5625H59.8009L62.3602 28.8125H79.9012L82.4605 32.5625H99.9391L80.2757 7.5Z" fill="white"/>
<path d="M42.4479 24.8125H15.8555V7.5H0V32.625H42.3854L42.4479 24.8125Z" fill="white"/>
<path d="M114.983 32.625V17.3125L124.846 32.625H137.456L147.319 17.25V32.625H162.425V7.5H140.265L131.089 22.125L121.912 7.5H99.877V32.625H114.983Z" fill="white"/>
<path d="M315.237 32.625V17.3125L325.1 32.625H337.71L347.573 17.25V32.625H362.679V7.5H340.581L331.405 22.125L322.229 7.5H300.131V32.625H315.237Z" fill="#F58025"/>
<path d="M184.96 7.5H168.979V32.625H184.96V7.5Z" fill="white"/>
<path d="M242.639 32.625V7.5H227.158V21.1875L208.556 7.5H191.202V32.625H206.683V18.6875L225.847 32.625H242.639Z" fill="white"/>
<path d="M265.923 22.125L271.416 13.875L276.909 22.125H265.923ZM280.53 7.5H262.24L242.639 32.5625H260.055L262.614 28.8125H280.155L282.714 32.5625H300.193L280.53 7.5Z" fill="white"/>
</svg>
