<svg width="201" height="43" viewBox="0 0 201 43" fill="none" xmlns="http://www.w3.org/2000/svg">
<g clip-path="url(#clip0)">
<path d="M108.604 12.5254H112.621L119.158 22.6601L125.695 12.5254H129.713V33.9343H125.935V18.5822L119.158 28.657H119.038L112.322 18.6422V33.9343H108.604V12.5254Z" fill="#111010"/>
<path d="M139.848 12.4062H143.326L152.741 33.995H148.724L146.565 28.8377H136.43L134.211 33.995H130.373L139.848 12.4062ZM145.185 25.4195L141.527 16.9039L137.869 25.4795H145.185V25.4195Z" fill="#111010"/>
<path d="M153.461 12.5254H162.996C168.033 12.5254 170.972 15.224 170.972 19.3618C170.972 22.9 168.873 24.9989 165.875 25.8385L171.632 33.9343H167.194L161.917 26.4981H157.239V33.9343H153.461V12.5254ZM162.756 23.1399C165.455 23.1399 167.134 21.7606 167.134 19.4818C167.134 17.203 165.455 15.9436 162.696 15.9436H157.239V23.1399H162.756Z" fill="#111010"/>
<path d="M172.951 12.5254H176.969L183.506 22.6601L190.042 12.5254H194.06V33.9343H190.282V18.5822L183.506 28.717H183.386L176.669 18.7022V33.9942H172.951V12.5254Z" fill="#111010"/>
<path d="M38.7403 9.46812L21.6491 0.892578L4.49805 9.46812H38.7403Z" fill="#111010"/>
<path d="M0 16.5449V33.9359L17.4509 42.6913L0 16.5449Z" fill="#111010"/>
<path d="M46.2963 12.5254H49.7745L61.2285 27.3377V12.5254H64.9466V33.9343H61.7683L49.9544 18.7022V33.9343H46.2363V12.5254H46.2963Z" fill="#111010"/>
<path d="M67.8848 12.5254H83.7765V15.8836H71.6628V21.4607H82.3972V24.819H71.6628V30.576H83.9564V33.9343H67.9447V12.5254H67.8848Z" fill="#111010"/>
<path d="M84.3164 23.2603C84.3164 17.2634 88.994 12.166 95.5306 12.166C102.127 12.166 106.685 17.1434 106.685 23.2603C106.685 29.2571 102.007 34.3545 95.4706 34.3545C88.874 34.2945 84.3164 29.3171 84.3164 23.2603ZM102.727 23.2603C102.727 19.1224 99.7284 15.6442 95.4706 15.6442C91.2128 15.6442 88.2743 19.0624 88.2743 23.2603C88.2743 27.3981 91.3328 30.8763 95.5306 30.8763C99.7884 30.8763 102.727 27.4581 102.727 23.2603Z" fill="#111010"/>
<path d="M4.5 12.4668L21.6511 21.0423L38.7422 12.4668H4.5Z" fill="#111010"/>
<path d="M20.1501 41.3105V23.8595L2.69922 15.1641L20.1501 41.3105Z" fill="#111010"/>
<path d="M40.5394 15.1641L23.1484 23.8595V41.3105L40.5394 15.1641Z" fill="#111010"/>
<path d="M25.8477 42.6913L43.2386 33.9359V16.5449L25.8477 42.6913Z" fill="#111010"/>
<path d="M200.116 13.786C200.116 15.1054 199.036 16.1248 197.717 16.1248C196.398 16.1248 195.318 15.1054 195.318 13.786C195.318 12.4667 196.398 11.4473 197.777 11.4473C199.036 11.4473 200.116 12.4667 200.116 13.786ZM195.858 13.786C195.858 14.8055 196.638 15.6451 197.717 15.6451C198.737 15.6451 199.516 14.8055 199.516 13.786C199.516 12.7666 198.737 11.927 197.717 11.927C196.638 11.927 195.858 12.7666 195.858 13.786ZM197.297 15.0454H196.758V12.7066C196.997 12.7066 197.297 12.6466 197.657 12.6466C198.077 12.6466 198.317 12.7066 198.437 12.8265C198.557 12.9465 198.677 13.1264 198.677 13.3063C198.677 13.6061 198.437 13.786 198.197 13.846C198.437 13.906 198.557 14.0859 198.617 14.4457C198.677 14.8055 198.737 14.9255 198.797 15.0454H198.197C198.137 14.9854 198.077 14.7456 198.017 14.4457C197.957 14.2058 197.837 14.0859 197.537 14.0859H197.297V15.0454ZM197.357 13.7261H197.597C197.897 13.7261 198.137 13.6061 198.137 13.3663C198.137 13.1264 197.957 13.0065 197.657 13.0065C197.537 13.0065 197.417 13.0065 197.357 13.0065V13.7261Z" fill="#111010"/>
</g>
<defs>
<clipPath id="clip0">
<rect width="200.116" height="41.7983" fill="white" transform="translate(0 0.892578)"/>
</clipPath>
</defs>
</svg>
