<svg width="202" height="42" viewBox="0 0 202 42" fill="none" xmlns="http://www.w3.org/2000/svg">
<g clip-path="url(#clip0)">
<path d="M109.127 11.6914H113.165L119.733 21.8751L126.301 11.6914H130.338V33.2036H126.542V17.7775L119.733 27.9009H119.612L112.863 17.8377V33.2036H109.127V11.6914Z" fill="white"/>
<path d="M140.522 11.5703H144.017L153.477 33.2633H149.44L147.271 28.0811H137.087L134.858 33.2633H131.001L140.522 11.5703ZM145.885 24.6464L142.209 16.0897L138.533 24.7066H145.885V24.6464Z" fill="white"/>
<path d="M154.201 11.6914H163.782C168.843 11.6914 171.796 14.403 171.796 18.5608C171.796 22.1161 169.687 24.2251 166.674 25.0687L172.459 33.2036H168L162.697 25.7316H157.997V33.2036H154.201V11.6914ZM163.541 22.3571C166.252 22.3571 167.94 20.9712 167.94 18.6814C167.94 16.3916 166.252 15.1261 163.48 15.1261H157.997V22.3571H163.541Z" fill="white"/>
<path d="M173.785 11.6914H177.822L184.39 21.8751L190.958 11.6914H194.996V33.2036H191.199V17.7775L184.39 27.9611H184.27L177.521 17.898V33.2639H173.785V11.6914Z" fill="white"/>
<path d="M38.927 8.61693L21.7534 0L4.51953 8.61693H38.927Z" fill="white"/>
<path d="M0 15.7266V33.2015L17.5352 41.9992L0 15.7266Z" fill="white"/>
<path d="M46.5197 11.6895H50.0147L61.524 26.5732V11.6895H65.26V33.2016H62.0664L50.1955 17.8961V33.2016H46.4595V11.6895H46.5197Z" fill="white"/>
<path d="M68.2124 11.6895H84.1808V15.0639H72.0087V20.6679H82.7949V24.0424H72.0087V29.8272H84.3616V33.2016H68.2727V11.6895H68.2124Z" fill="white"/>
<path d="M84.7236 22.4759C84.7236 16.4501 89.4238 11.3281 95.9919 11.3281C102.62 11.3281 107.2 16.3296 107.2 22.4759C107.2 28.5017 102.5 33.6237 95.9317 33.6237C89.3033 33.5634 84.7236 28.562 84.7236 22.4759ZM103.223 22.4759C103.223 18.3181 100.21 14.8231 95.9317 14.8231C91.6533 14.8231 88.7007 18.2578 88.7007 22.4759C88.7007 26.6337 91.7739 30.1287 95.9919 30.1287C100.27 30.1287 103.223 26.694 103.223 22.4759Z" fill="white"/>
<path d="M4.51953 11.6289L21.7534 20.2458L38.927 11.6289H4.51953Z" fill="white"/>
<path d="M20.2471 40.6144V23.0792L2.71191 14.3418L20.2471 40.6144Z" fill="white"/>
<path d="M40.7347 14.3418L23.2598 23.0792V40.6144L40.7347 14.3418Z" fill="white"/>
<path d="M25.9712 41.9992L43.4461 33.2015V15.7266L25.9712 41.9992Z" fill="white"/>
<path d="M201.082 12.9555C201.082 14.2812 199.997 15.3056 198.672 15.3056C197.346 15.3056 196.261 14.2812 196.261 12.9555C196.261 11.6299 197.346 10.6055 198.732 10.6055C199.997 10.6055 201.082 11.6299 201.082 12.9555ZM196.804 12.9555C196.804 13.9799 197.587 14.8235 198.672 14.8235C199.696 14.8235 200.479 13.9799 200.479 12.9555C200.479 11.9311 199.696 11.0875 198.672 11.0875C197.587 11.0875 196.804 11.9311 196.804 12.9555ZM198.25 14.221H197.707V11.8709C197.948 11.8709 198.25 11.8106 198.611 11.8106C199.033 11.8106 199.274 11.8709 199.395 11.9914C199.515 12.1119 199.636 12.2927 199.636 12.4735C199.636 12.7748 199.395 12.9555 199.154 13.0158C199.395 13.0761 199.515 13.2568 199.575 13.6184C199.636 13.9799 199.696 14.1004 199.756 14.221H199.154C199.093 14.1607 199.033 13.9197 198.973 13.6184C198.913 13.3773 198.792 13.2568 198.491 13.2568H198.25V14.221ZM198.31 12.8953H198.551C198.852 12.8953 199.093 12.7748 199.093 12.5337C199.093 12.2927 198.913 12.1722 198.611 12.1722C198.491 12.1722 198.37 12.1722 198.31 12.1722V12.8953Z" fill="white"/>
</g>
<defs>
<clipPath id="clip0">
<rect width="201.082" height="42" fill="white"/>
</clipPath>
</defs>
</svg>
