<svg width="274" height="57" viewBox="0 0 274 57" fill="none" xmlns="http://www.w3.org/2000/svg">
<path fill-rule="evenodd" clip-rule="evenodd" d="M250.815 22.9678H261.705V18.9911H250.815V9.4911H260.607V11.7004H264.559V9.4911V9.00505V7.54691C264.559 6.44226 263.681 5.55854 262.583 5.55854H250.815H246.863H243.746V9.53528H246.863V34.5004C246.863 35.6051 247.742 36.4888 248.839 36.4888H250.025H250.815H264.252C265.35 36.4888 266.228 35.6051 266.228 34.5004V32.2911V31.7609V30.3027H262.276V32.512H250.815V22.9678ZM191.273 37.1074V33.1306C197.947 33.1306 203.348 27.6958 203.348 20.9795C203.348 14.2632 197.947 8.82831 191.273 8.82831V4.85156C200.099 4.85156 207.256 12.0539 207.256 20.9353C207.256 29.9051 200.099 37.1074 191.273 37.1074ZM216.873 11.7888L218.41 14.3074L230.924 34.3237L232.241 36.4446H232.637H232.944H236.588V9.4911H239.97V5.51435H236.588H235.974H234.612C233.515 5.51435 232.637 6.39807 232.637 7.50273V30.2585C232.549 30.126 232.505 29.9934 232.417 29.8609C231.978 29.1097 231.539 28.4027 231.1 27.6516L218.146 6.92831L217.268 5.51435H216.873H216.653H213.843H212.921V32.4678H209.54V36.4446H212.921H213.536H214.897C215.995 36.4446 216.873 35.5609 216.873 34.4562V11.7888ZM191.273 4.89575V8.87249C184.599 8.87249 179.198 14.3074 179.198 21.0237C179.198 27.7399 184.599 33.1748 191.273 33.1748V37.1516C182.667 37.1516 175.641 30.3027 175.29 21.6864V20.4051C175.641 11.7446 182.623 4.89575 191.273 4.89575ZM175.29 9.4911V5.51435V9.4911ZM175.29 5.55854V9.53528H165.586V32.512H168.747V36.4888H165.586H161.634H158.472V32.512H161.634V9.53528H152.632V5.55854H161.634H165.586H175.29ZM175.29 20.3609C175.29 20.5818 175.29 20.8027 175.29 21.0237C175.29 21.2446 175.29 21.4655 175.29 21.6864V20.3609ZM113.771 22.7027V18.726H116.538H117.328C119.875 18.726 121.939 16.6492 121.939 14.0864C121.939 11.5237 119.875 9.44691 117.328 9.44691H114.123H113.771V5.47017H117.328C122.027 5.47017 125.847 9.35854 125.847 14.0423C125.847 17.2678 124.046 20.0958 121.456 21.5539C123.08 22.7469 124.442 24.3818 125.188 26.2818C125.627 27.3864 125.891 28.5795 125.847 29.7725V36.3562H123.871C122.773 36.3562 121.895 35.4725 121.895 34.3678V28.5795C121.895 27.6516 121.588 26.7237 121.061 25.9725C120.226 24.6911 118.777 23.6306 117.196 22.7027H116.494H113.771ZM113.771 5.55854V9.53528H105.604V14.1306V14.219V18.8144H113.771V22.7911H110.215H105.604V36.533H103.628C102.53 36.533 101.652 35.6492 101.652 34.5446V14.219V9.4911H98.5346V5.51435H101.652H105.604H110.215H112.147H113.771V5.55854ZM21.1647 5.55854H18.3984H17.4763V32.512H14.0513V36.4888H17.4324H18.0471H19.4083C20.5061 36.4888 21.3843 35.6051 21.3843 34.5004V11.7888L22.9212 14.3074L35.4356 34.3237L36.7529 36.4446H37.1481H37.4554H41.1V9.4911H44.4811V5.51435H41.1H40.4853H39.124C38.0263 5.51435 37.1481 6.39807 37.1481 7.50273V30.2585C37.0603 30.126 37.0163 29.9934 36.9285 29.8609C36.4894 29.1097 36.0503 28.4027 35.6112 27.6516L22.6138 6.92831L21.7356 5.51435H21.3404H21.1647V5.55854ZM7.11346 9.4911V32.4678H10.275V36.4446H7.11346H3.16154H0V32.4678H3.16154V9.4911H0V5.51435H3.16154H7.11346H10.275V9.4911H7.11346ZM61.2109 9.4911V32.4678H64.3724V36.4446H61.2109H57.259H54.0974V32.4678H57.259V9.4911H48.2574V5.51435H57.259H61.2109H70.2125V9.4911H61.2109ZM77.1064 9.4911V34.4562C77.1064 35.5609 77.9846 36.4446 79.0824 36.4446H80.268H81.0583H94.4949C95.5926 36.4446 96.4708 35.5609 96.4708 34.4562V32.2469V31.7167V30.2585H92.5189V32.4678H81.0583V22.9678H91.9481V18.9911H81.0583V9.4911H90.8503V11.7004H94.8022V9.4911V9.00505V7.54691C94.8022 6.44226 93.924 5.55854 92.8263 5.55854H81.0583H77.1064H73.9888V9.53528H77.1064V9.4911Z" fill="white"/>
<path fill-rule="evenodd" clip-rule="evenodd" d="M142.226 22.9679H142.314C144.905 22.9679 147.056 25.0888 147.056 27.74C147.056 30.347 144.949 32.5121 142.314 32.5121H140.558H125.848V36.4888H140.47H140.558H142.314C147.056 36.4888 150.964 32.5563 150.964 27.7842C150.964 23.0121 147.056 19.0795 142.314 19.0795H142.226H140.865V19.1237V19.0795H138.318C135.727 19.0795 133.576 16.9586 133.576 14.3074C133.576 11.7005 135.684 9.53534 138.318 9.53534H140.075H152.809V5.55859H140.162H140.075H138.318C133.576 5.55859 129.668 9.49115 129.668 14.2632C129.668 19.0353 133.576 22.9679 138.318 22.9679H140.821H142.226Z" fill="#CF3620"/>
<path d="M211.579 50.7605V49.5233H213.906V45.8558H211.579V44.6186H215.179V54.3396H213.906V50.8047H211.579V50.7605ZM211.579 44.5744V45.8117H211.008C210.832 45.8117 210.7 45.8558 210.525 45.9C210.349 45.9442 210.217 46.0326 210.086 46.121C209.954 46.2093 209.822 46.2977 209.734 46.4303C209.559 46.607 209.427 46.7837 209.383 47.0047C209.295 47.2256 209.251 47.4465 209.251 47.7117C209.251 47.9326 209.295 48.1093 209.339 48.3303C209.427 48.507 209.515 48.7279 209.647 48.8605C209.778 48.993 209.91 49.1256 210.042 49.214C210.173 49.3024 210.349 49.3907 210.525 49.4349C210.7 49.4791 210.876 49.5233 211.008 49.5233H211.579V50.7605H211.139L209.427 54.2954H207.934L209.778 50.4512C209.559 50.3628 209.339 50.2303 209.12 50.0977C208.944 49.9651 208.768 49.7884 208.593 49.5675C208.461 49.3907 208.329 49.214 208.241 48.9931C208.154 48.7721 208.066 48.5512 208.022 48.3303C207.978 48.1093 207.934 47.8884 207.934 47.6233C207.934 47.2698 208.022 46.9163 208.154 46.5628C208.285 46.2093 208.461 45.9 208.724 45.6349C208.9 45.414 209.076 45.2372 209.339 45.0605C209.559 44.8837 209.822 44.7954 210.086 44.707C210.261 44.6628 210.393 44.6186 210.569 44.5744C210.744 44.5303 210.92 44.5303 211.096 44.5303H211.579V44.5744ZM182.071 52.5279V51.2907H183.871L182.071 45.9442V44.5744H182.993L186.155 54.2954H184.793L184.223 52.5279H182.071ZM197 44.5744H195.683L192.17 52.1303L188.614 44.5744H187.296V54.2954H188.614V47.4465L191.819 54.2954H192.434L195.639 47.4024V54.2954H196.956V44.5744H197ZM205.387 44.5744V49.4791H200.425V44.5744H199.108V54.2954H200.425V50.7605H205.387V54.2954H206.705V44.5744H205.387ZM182.071 44.5744V45.9442L180.314 51.3349H182.115V52.5721H179.919L179.348 54.3396H177.987L181.193 44.6186H182.071V44.5744ZM154.1 50.7605V49.5233H154.627C154.803 49.5233 154.934 49.4791 155.11 49.4349C155.286 49.3907 155.417 49.3024 155.593 49.214C155.725 49.1256 155.856 48.993 155.988 48.8605C156.12 48.6837 156.208 48.507 156.296 48.3303C156.383 48.1535 156.383 47.9326 156.383 47.7117C156.383 47.4907 156.339 47.2256 156.252 47.0047C156.164 46.7837 156.032 46.607 155.9 46.4303C155.813 46.2977 155.681 46.2093 155.549 46.121C155.417 46.0326 155.242 45.9442 155.11 45.9C154.934 45.8558 154.803 45.8117 154.627 45.8117H154.1V44.5744H154.671C154.847 44.5744 155.022 44.5744 155.154 44.6186C155.33 44.6628 155.505 44.707 155.637 44.7512C155.9 44.8396 156.164 44.9721 156.383 45.1047C156.603 45.2814 156.822 45.4582 156.998 45.6791C157.218 45.9442 157.437 46.2535 157.569 46.607C157.701 46.9605 157.745 47.314 157.789 47.6675C157.789 47.8884 157.789 48.1093 157.701 48.3744C157.657 48.5954 157.569 48.8163 157.481 49.0372C157.393 49.2582 157.262 49.4349 157.13 49.6117C156.954 49.8326 156.735 50.0535 156.471 50.2303C156.208 50.407 155.944 50.5396 155.637 50.6279C155.33 50.7163 155.022 50.7605 154.715 50.7605H154.1ZM165.297 45.9V44.5744H159.194V54.2954H165.297V52.9698H160.511V50.0977H164.507V48.8163H160.511V45.9H165.297ZM173.464 49.7884L176.319 54.2954H177.899L174.606 49.214L177.636 44.5744H176.099L173.508 48.7279H171.489V44.5744H170.171V54.2954H171.489V49.7884H173.464ZM154.1 44.5744V45.8117H151.773V49.4791H154.1V50.7163H151.773V54.2512H150.455V44.5303H154.1V44.5744ZM120.992 54.2954V53.0582H121.431C121.65 53.0582 121.826 53.0582 122.002 53.014C122.177 53.014 122.353 52.9698 122.485 52.8814C122.616 52.7931 122.792 52.7047 122.924 52.5721C123.056 52.4396 123.187 52.2628 123.231 52.0861C123.319 51.9093 123.363 51.6884 123.363 51.5117C123.363 51.3349 123.319 51.114 123.275 50.9372C123.231 50.7605 123.099 50.5837 123.012 50.4512C122.924 50.3186 122.792 50.1861 122.66 50.0977C122.529 50.0093 122.397 49.921 122.221 49.8768C122.089 49.8326 121.914 49.7884 121.782 49.7884H120.992V48.5512H121.519C121.65 48.5512 121.782 48.507 121.914 48.4628C122.046 48.4186 122.177 48.3744 122.309 48.2861C122.441 48.1977 122.529 48.1093 122.616 47.9768C122.704 47.8442 122.792 47.7117 122.836 47.5791C122.88 47.4465 122.924 47.2698 122.924 47.1372C122.924 46.9605 122.88 46.8279 122.836 46.6512C122.748 46.5186 122.704 46.3419 122.572 46.2535C122.441 46.121 122.265 45.9884 122.133 45.9C121.958 45.8117 121.782 45.8117 121.563 45.8117H121.036V44.5744H121.299C121.431 44.5744 121.519 44.5744 121.65 44.5744C121.782 44.5744 121.914 44.5744 122.046 44.6186C122.177 44.6186 122.265 44.6628 122.353 44.707C122.616 44.7954 122.836 44.8837 123.099 45.0605C123.319 45.193 123.539 45.414 123.714 45.6349C123.89 45.8558 124.022 46.0768 124.109 46.3419C124.197 46.607 124.241 46.8721 124.285 47.1814C124.285 47.4907 124.285 47.7558 124.153 48.021C124.065 48.2861 123.934 48.5512 123.714 48.7721C123.67 48.8163 123.626 48.9047 123.582 48.9489C123.539 48.9931 123.495 49.0814 123.451 49.1256C123.582 49.214 123.714 49.3024 123.846 49.4349C123.978 49.5675 124.065 49.7 124.197 49.8326C124.373 50.0977 124.505 50.3628 124.636 50.6721C124.724 50.9814 124.768 51.2907 124.768 51.6C124.768 51.9093 124.724 52.2186 124.592 52.4837C124.505 52.793 124.329 53.0582 124.153 53.2791C123.934 53.5 123.714 53.721 123.495 53.8977C123.231 54.0744 122.968 54.207 122.704 54.2512C122.529 54.2954 122.309 54.3396 122.089 54.3396C121.87 54.3396 121.694 54.3837 121.475 54.3837H120.992V54.2954ZM138.819 44.5744H137.502L133.989 52.1303L130.432 44.5744H129.115V54.2954H130.432V47.4465L133.638 54.2954H134.253L137.458 47.4024V54.2954H138.775V44.5744H138.819ZM147.206 44.5744L142.288 51.9093V44.5744H140.971V54.2954H142.156L147.031 47.0047V54.3396H148.348V44.6186H147.206V44.5744ZM120.992 44.5744V45.8117H119.06V48.5954H120.992V49.8326H119.06V53.0582H120.992V54.2954H117.742V44.5744H120.992ZM101.627 50.7605V49.5233H102.154C102.33 49.5233 102.462 49.4791 102.637 49.4349C102.813 49.3907 102.945 49.3024 103.12 49.214C103.252 49.1256 103.384 48.993 103.515 48.8605C103.647 48.6837 103.735 48.507 103.823 48.3303C103.911 48.1535 103.911 47.9326 103.911 47.7117C103.911 47.4907 103.867 47.2256 103.779 47.0047C103.691 46.7837 103.559 46.607 103.428 46.4303C103.34 46.2977 103.208 46.2093 103.076 46.121C102.945 46.0326 102.769 45.9442 102.637 45.9C102.462 45.8558 102.33 45.8117 102.154 45.8117H101.627V44.5744H102.198C102.374 44.5744 102.549 44.5744 102.681 44.6186C102.857 44.6628 103.032 44.707 103.164 44.7512C103.428 44.8396 103.691 44.9721 103.911 45.1047C104.13 45.2814 104.35 45.4582 104.525 45.6791C104.745 45.9442 104.964 46.2535 105.096 46.607C105.228 46.9605 105.316 47.314 105.316 47.6675C105.316 47.8884 105.316 48.1093 105.228 48.3744C105.184 48.5954 105.096 48.8163 105.008 49.0372C104.921 49.2582 104.789 49.4349 104.657 49.6117C104.481 49.8326 104.262 50.0535 103.998 50.2303C103.735 50.407 103.472 50.5396 103.164 50.6279C102.857 50.7163 102.549 50.7605 102.242 50.7605H101.627ZM113.615 44.5744H105.799V45.9H109.048V54.3396H110.365V45.9H113.615V44.5744ZM58.4635 45.9442C58.2001 45.5907 57.8488 45.2814 57.4975 45.0605C57.1462 44.8396 56.751 44.6628 56.3119 44.5303C55.8728 44.3977 55.4337 44.3535 54.9946 44.3535C54.5555 44.3535 54.0725 44.3977 53.6773 44.5303C53.2382 44.6628 52.843 44.8396 52.4917 45.0605C52.1404 45.2814 51.7892 45.5907 51.5257 45.9442C51.3061 46.2093 51.1305 46.5186 50.9988 46.7837C50.867 47.0931 50.7353 47.4024 50.6914 47.7117L52.0526 47.9326C52.0965 47.7117 52.1844 47.4907 52.2722 47.314C52.36 47.093 52.4917 46.9163 52.6235 46.7396C52.7991 46.4744 53.0186 46.2977 53.2821 46.121C53.5456 45.9442 53.809 45.8117 54.1164 45.7233C54.4238 45.6349 54.7311 45.5907 55.0385 45.5907C55.3459 45.5907 55.6533 45.6349 55.9606 45.7233C56.268 45.8117 56.5315 45.9442 56.7949 46.121C57.0584 46.2977 57.2779 46.4744 57.4536 46.7396C57.6731 47.0489 57.8488 47.3582 57.9366 47.7117C58.0683 48.0651 58.1122 48.4186 58.1561 48.8163H54.6872V50.0977H58.1561C58.1122 50.4954 58.0683 50.8489 57.9366 51.2024C57.8049 51.5558 57.6731 51.8651 57.4536 52.1744C57.2779 52.4396 57.0584 52.6163 56.7949 52.793C56.5315 52.9698 56.268 53.1024 55.9606 53.1907C55.6533 53.2791 55.3459 53.3233 55.0385 53.3233C54.7311 53.3233 54.4238 53.2791 54.1164 53.1907C53.809 53.1024 53.5456 52.9698 53.2821 52.793C53.0186 52.6163 52.7991 52.3954 52.6235 52.1744C52.4917 51.9977 52.4039 51.821 52.3161 51.6442C52.2283 51.4675 52.1404 51.2907 52.0965 51.0698L50.8231 51.4233C50.911 51.6884 50.9988 51.9535 51.1305 52.2186C51.2622 52.4837 51.394 52.7047 51.6135 52.9256C51.877 53.2791 52.2283 53.5884 52.5795 53.8093C52.9308 54.0303 53.326 54.207 53.7651 54.3396C54.2042 54.4721 54.6433 54.5163 55.0824 54.5163C55.5654 54.5163 56.0045 54.4721 56.3997 54.3396C56.8388 54.207 57.234 54.0303 57.5853 53.8093C57.9366 53.5884 58.244 53.2791 58.5513 52.9256C58.8148 52.5721 59.0344 52.2186 59.21 51.8651C59.3856 51.4675 59.4735 51.0698 59.5613 50.6721C59.6491 50.2744 59.693 49.8326 59.6491 49.4349C59.6491 48.9931 59.6052 48.5954 59.5174 48.1977C59.4295 47.8 59.3417 47.4024 59.1661 47.0047C58.9465 46.6512 58.727 46.2977 58.4635 45.9442ZM101.627 44.5744V45.8117H99.3001V49.4791H101.627V50.7163H99.3001V54.2512H97.9827V44.5303H101.627V44.5744ZM64.5231 49.7884L67.3773 54.2954H68.9581L65.6648 49.214L68.6946 44.5744H67.1138L64.5231 48.7279H62.5033V44.5744H61.186V54.2954H62.5033V49.7884H64.5231ZM76.9936 51.0698C76.9497 51.2465 76.8619 51.4675 76.7741 51.6442C76.6863 51.821 76.5984 51.9977 76.4667 52.1744C76.2911 52.4396 76.0715 52.6163 75.8081 52.793C75.5446 52.9698 75.2811 53.1024 74.9738 53.1907C74.6664 53.2791 74.359 53.3233 74.0517 53.3233C73.7443 53.3233 73.4369 53.2791 73.1295 53.1907C72.8222 53.1024 72.5587 52.9698 72.2952 52.793C72.0318 52.6163 71.8122 52.4396 71.6366 52.1744C71.4609 51.9093 71.2853 51.6442 71.1975 51.3791C71.1097 51.0698 71.0218 50.7605 70.9779 50.4512C70.934 50.1419 70.8901 49.7884 70.8901 49.4791C70.8901 49.1698 70.934 48.8163 70.9779 48.507C71.0218 48.1977 71.1097 47.8884 71.1975 47.5791C71.2853 47.2698 71.4609 47.0047 71.6366 46.7837C71.8122 46.5186 72.0318 46.3419 72.2952 46.1651C72.5587 45.9884 72.8222 45.8558 73.1295 45.7675C73.4369 45.6791 73.7443 45.6349 74.0517 45.6349C74.359 45.6349 74.6664 45.6791 74.9738 45.7675C75.2811 45.8558 75.5446 45.9884 75.8081 46.1651C76.0715 46.3419 76.2911 46.5186 76.4667 46.7837C76.5984 46.9605 76.6863 47.1372 76.7741 47.3582C76.8619 47.5791 76.9497 47.7558 76.9936 47.9768L78.3549 47.7558C78.267 47.4465 78.1353 47.1372 78.0036 46.8279C77.8718 46.5186 77.6962 46.2535 77.4767 45.9884C77.2132 45.6349 76.8619 45.3698 76.5106 45.1047C76.1593 44.8837 75.7642 44.707 75.3251 44.5744C74.886 44.4419 74.4469 44.3977 74.0078 44.3977C73.5687 44.3977 73.0856 44.4419 72.6904 44.5744C72.2513 44.707 71.8561 44.8837 71.5049 45.1047C71.1536 45.3256 70.8023 45.6349 70.5388 45.9884C70.2754 46.2977 70.0558 46.6512 69.9241 47.0489C69.7485 47.4465 69.6606 47.8 69.5728 48.2419C69.485 48.6396 69.485 49.0814 69.4411 49.4791C69.4411 49.8768 69.485 50.3186 69.5289 50.7163C69.6167 51.114 69.7045 51.5117 69.8802 51.9093C70.0558 52.307 70.2754 52.6605 70.4949 52.9698C70.7584 53.3233 71.1097 53.5884 71.461 53.8535C71.8122 54.0744 72.2074 54.2512 72.6465 54.3837C73.0856 54.5163 73.5247 54.5605 73.9638 54.5605C74.4029 54.5605 74.842 54.5163 75.2811 54.3837C75.7203 54.2512 76.1154 54.0744 76.4667 53.8535C76.818 53.6326 77.1693 53.3233 77.4327 52.9698C77.6084 52.7489 77.784 52.4837 77.9158 52.2628C78.0475 51.9977 78.1353 51.7326 78.2231 51.4675L76.9936 51.0698ZM87.9273 44.5744H79.9795V54.2954H81.2968V45.8558H86.61V54.2954H87.9273V44.5744ZM96.1385 45.9V44.5744H90.035V54.2954H96.1385V52.9698H91.3523V50.0977H95.3481V48.8163H91.3523V45.9H96.1385Z" fill="white"/>
</svg>
