<svg id="Layer_1" data-name="Layer 1" xmlns="http://www.w3.org/2000/svg" viewBox="0 0 30 30"><defs><style>.cls-1{fill:#fff;}</style></defs><title>fb</title><path class="cls-1" d="M15,4.56a10.73,10.73,0,0,1,1.74,21.31l.17,1A11.72,11.72,0,0,0,15,3.56h0a11.72,11.72,0,0,0-2.36,23.21l.33-.95A10.73,10.73,0,0,1,15,4.56"/><path class="cls-1" d="M17.24,14v-.67c0-.29,0-.39.45-.39h2.12v-4L19,8.8a14,14,0,0,0-2.16-.19,4.14,4.14,0,0,0-4.37,4.47v1H10.19v4.58h2.26v8.1c.33.07.66.13,1,.17V17.62H11.19V15h2.26v-2a3.14,3.14,0,0,1,3.37-3.47,14,14,0,0,1,2,.17V12H17.69a1.28,1.28,0,0,0-1.45,1.39V15h2.47l-.4,2.58H16.24v9.32c.33,0,.67-.09,1-.15V18.62h1.93l.13-.85.4-2.58L19.87,14H17.24Z"/></svg>