<svg id="Layer_1" data-name="Layer 1" xmlns="http://www.w3.org/2000/svg" viewBox="0 0 30 30">
    <defs>
        <style>
        .cls-1 {
            fill: #fff;
        }
        </style>
    </defs>
    <title>mail</title>
    <path class="cls-1" d="M15,18.3a2.92,2.92,0,0,1-2.14-1L5,8.88l.74-.68,7.86,8.46a1.89,1.89,0,0,0,2.8,0L24.26,8.2l.74.68-7.86,8.46A2.92,2.92,0,0,1,15,18.3Z" />
    <path class="cls-1" d="M25.43,24.53H4.57a2.31,2.31,0,0,1-2.3-2.31V7.78a2.31,2.31,0,0,1,2.3-2.31H25.43a2.31,2.31,0,0,1,2.3,2.31V22.22A2.31,2.31,0,0,1,25.43,24.53ZM4.57,6.47a1.31,1.31,0,0,0-1.3,1.31V22.22a1.31,1.31,0,0,0,1.3,1.31H25.43a1.31,1.31,0,0,0,1.3-1.31V7.78a1.31,1.31,0,0,0-1.3-1.31Z" />
    <rect class="cls-1" x="4.48" y="18.78" width="6.07" height="1" transform="translate(-11.43 10.96) rotate(-45)" />
    <rect class="cls-1" x="21.98" y="16.24" width="1" height="6.07" transform="translate(-7.05 21.54) rotate(-45)" />
</svg>