<svg id="Layer_1" data-name="Layer 1" xmlns="http://www.w3.org/2000/svg" viewBox="0 0 30 30">
    <defs>
        <style>
        .cls-1 {
            fill: #fff;
        }
        </style>
    </defs>
    <title>ok</title>
    <path class="cls-1" d="M15,4.11A5.82,5.82,0,1,1,9.18,9.93,5.82,5.82,0,0,1,15,4.11m0,8.22a2.41,2.41,0,1,0-2.41-2.4A2.4,2.4,0,0,0,15,12.33m0-9.22a6.82,6.82,0,1,0,6.82,6.82A6.83,6.83,0,0,0,15,3.11Zm0,8.22a1.41,1.41,0,1,1,1.41-1.4A1.41,1.41,0,0,1,15,11.33Z" />
    <path class="cls-1" d="M20,15.25a1.57,1.57,0,0,1,1.23.59A1.59,1.59,0,0,1,21,18.07a9.39,9.39,0,0,1-3.8,1.63l3.52,3.49a1.58,1.58,0,0,1-1.12,2.7,1.57,1.57,0,0,1-1.12-.46L15,22.1l-3.11,3.31a1.57,1.57,0,0,1-1.13.48,1.58,1.58,0,0,1-1.14-2.68L13,19.72a9.71,9.71,0,0,1-3.92-1.65,1.59,1.59,0,0,1-.24-2.23A1.57,1.57,0,0,1,10,15.25a1.54,1.54,0,0,1,1,.35,7.07,7.07,0,0,0,4,1.15A6.86,6.86,0,0,0,19,15.6a1.54,1.54,0,0,1,1-.35m0-1a2.58,2.58,0,0,0-1.62.57h0a6,6,0,0,1-3.32.93,6.16,6.16,0,0,1-3.39-.95,2.57,2.57,0,0,0-3.6.42,2.58,2.58,0,0,0,.39,3.63,10.22,10.22,0,0,0,2.67,1.39L8.91,22.52a2.58,2.58,0,0,0,1.87,4.37,2.55,2.55,0,0,0,1.85-.79l2.42-2.57,2.68,2.62a2.6,2.6,0,0,0,3.65,0,2.58,2.58,0,0,0,0-3.65l-2.31-2.29a9.22,9.22,0,0,0,2.51-1.34,2.57,2.57,0,0,0,.4-3.63,2.54,2.54,0,0,0-2-1Z" />
</svg>