<svg id="Layer_1" data-name="Layer 1" xmlns="http://www.w3.org/2000/svg" viewBox="0 0 30 30">
    <defs>
        <style>
        .cls-1 {
            fill: #fff;
        }
        </style>
    </defs>
    <title>telegram</title>
    <path class="cls-1" d="M25.81,5c1.25,0,1.44,1,1.3,2.45-.21,2.31-1.87,12.4-2.71,16.29A1.58,1.58,0,0,1,22.85,25a2,2,0,0,1-1.13-.38l-7.8-5.25a1.15,1.15,0,0,1-.14-1.78l7.36-7a.51.51,0,0,0-.35-.86.51.51,0,0,0-.28.09l-9.33,6.44A4,4,0,0,1,8.81,17a7.76,7.76,0,0,1-1.37-.14A20.21,20.21,0,0,1,3.51,15.7c-.65-.28-1-1.14-.09-1.57C12.47,10,19.9,6.94,24.08,5.36A5.24,5.24,0,0,1,25.81,5m0-1a6.05,6.05,0,0,0-2.08.47C21.8,5.16,14.59,8,3,13.22a1.79,1.79,0,0,0-1.15,1.63,2,2,0,0,0,1.26,1.77,21.17,21.17,0,0,0,4.14,1.21A8.34,8.34,0,0,0,8.81,18a5,5,0,0,0,2.94-.91l4.17-2.89L13.09,16.9a2.16,2.16,0,0,0,.26,3.33l7.81,5.26a3,3,0,0,0,1.69.55,2.59,2.59,0,0,0,2.53-2.13c.87-4.06,2.51-14.1,2.73-16.41a3.73,3.73,0,0,0-.6-2.85A2.22,2.22,0,0,0,25.81,4Z" />
</svg>