<svg id="Layer_1" data-name="Layer 1" xmlns="http://www.w3.org/2000/svg" viewBox="0 0 30 30">
    <defs>
        <style>
        .cls-1 {
            fill: #fff;
        }
        </style>
    </defs>
    <title>twitter</title>
    <path class="cls-1" d="M26.41,6.79s0-.08.05-.13l.81-2.51L25,5.5a7.57,7.57,0,0,1-1.88.79,5.24,5.24,0,0,0-8.63,3.85A11.07,11.07,0,0,1,7.61,6.19L6.7,5.07,6,6.32a5.3,5.3,0,0,0-.49,4.12l-.25-.13V12a5.23,5.23,0,0,0,1.11,3.22l.42,1.32a6.74,6.74,0,0,0,2.57,3.29A16,16,0,0,1,6.61,20,7.79,7.79,0,0,1,5.52,20l-4.35-.53,3.69,2.37a13,13,0,0,0,7,2.06h0A12.94,12.94,0,0,0,25,10.78v-.06a9.6,9.6,0,0,0,1.94-2.13l1.92-2.86ZM24,10.23c0,.18,0,.37,0,.55A12,12,0,0,1,11.9,22.85h0A12.08,12.08,0,0,1,5.4,21a8.55,8.55,0,0,0,1,.06c1.91,0,4.16,0,5.66-1.21-1.81,0-3.8-1.83-4.36-3.56a4.29,4.29,0,0,0,1.92-.07A4.24,4.24,0,0,1,6.23,12v0a4.32,4.32,0,0,0,1.92.53A4.25,4.25,0,0,1,6.84,6.82a12.07,12.07,0,0,0,8.74,4.44,4.25,4.25,0,0,1,7.23-3.87,8.77,8.77,0,0,0,2.7-1A4.25,4.25,0,0,1,23.64,8.7,8.66,8.66,0,0,0,26.08,8,8.65,8.65,0,0,1,24,10.23Z" />
</svg>