<svg id="Layer_1" data-name="Layer 1" xmlns="http://www.w3.org/2000/svg" viewBox="0 0 30 30">
    <defs>
        <style>
        .cls-1 {
            fill: #fff;
        }
        </style>
    </defs>
    <title>vk</title>
    <path class="cls-1" d="M26.51,7.3c.86,0,1,.44.86,1C27,10,23.55,14.86,23.55,14.86c-.3.49-.42.73,0,1.27s1.3,1.26,2,2A12,12,0,0,1,27.9,21.5c.23.8-.17,1.2-1,1.2H24.08c-1.08,0-1.4-.86-3.32-2.79-1.68-1.62-2.41-1.83-2.83-1.83s-.74.16-.74,1V21.6c0,.7-.22,1.1-2,1.1-3,0-6.3-1.82-8.65-5.19C3,12.58,2,8.85,2,8.1c0-.42.16-.8,1-.8H5.84c.73,0,1,.32,1.27,1.1C8.5,12.44,10.84,16,11.8,16c.36,0,.53-.17.53-1.09V10.72C12.22,8.79,11.2,8.64,11.2,8a.68.68,0,0,1,.72-.65h4.46c.6,0,.81.32.81,1V14c0,.6.26.81.44.81.36,0,.66-.21,1.33-.87a23.66,23.66,0,0,0,3.48-5.8,1.22,1.22,0,0,1,1.24-.8h2.83m0-1H23.68a2.23,2.23,0,0,0-2.16,1.41,23,23,0,0,1-3.29,5.51l0,0V8.34c0-1.84-1.26-2-1.81-2H11.92A1.69,1.69,0,0,0,10.2,8a2,2,0,0,0,.56,1.31,2.17,2.17,0,0,1,.57,1.49V14.4A22.18,22.18,0,0,1,8.06,8.08,2.21,2.21,0,0,0,5.84,6.3H3A1.75,1.75,0,0,0,1,8.1c0,1.13,1.14,5.05,4.67,10,2.44,3.51,6,5.61,9.46,5.61,1,0,3,0,3-2.1V19.16a7.87,7.87,0,0,1,1.87,1.47c.55.55,1,1,1.31,1.39.87,1,1.51,1.68,2.71,1.68h2.84A2,2,0,0,0,28.63,23a1.89,1.89,0,0,0,.23-1.74,11.91,11.91,0,0,0-2.6-3.71c-.35-.42-.79-.85-1.18-1.23a8.62,8.62,0,0,1-.71-.73l0-.05a.22.22,0,0,1,.05-.08c.63-.89,3.53-5.06,3.95-6.83A1.78,1.78,0,0,0,28.13,7a1.89,1.89,0,0,0-1.62-.69Z" />
</svg>