<svg width="66" height="58" viewBox="0 0 66 58" fill="none" xmlns="http://www.w3.org/2000/svg">
<g clip-path="url(#clip0)">
<path d="M18.4565 1.64316C18.4565 1.64316 13.4811 -0.603754 8.34534 1.64316C3.20954 4.05057 0.160156 10.9518 0.160156 15.6061C0.160156 20.2604 3.20954 28.9271 10.7527 35.9888C18.296 43.0506 23.7527 48.9888 24.5552 50.4333C25.3577 51.8777 29.37 57.9765 29.37 57.9765C29.37 57.9765 40.7651 53.4827 49.7527 46.2604C58.7404 39.1987 64.9997 27.9641 65.3206 18.3345C65.8021 8.54439 58.9009 2.12464 51.8392 2.12464C44.6169 2.12464 34.9873 9.66785 33.3824 20.9024C31.7774 32.137 37.0737 36.4703 42.8515 36.4703C48.6293 36.4703 53.6046 29.2481 53.4441 21.8654C53.2836 14.6432 49.9132 12.3962 46.5429 12.0753C46.5429 12.0753 46.7034 28.4456 45.2589 31.9765C43.8145 35.5074 41.7281 35.0259 40.4441 32.9395C39.3206 30.853 37.7157 22.9888 40.9256 14.6432C44.1355 6.29748 48.6293 4.05057 54.4071 6.29748C60.1848 8.54439 61.7898 15.9271 57.296 26.1987C52.8021 36.4703 42.5305 46.2604 30.8145 48.6679C30.8145 48.6679 27.7651 49.4703 25.1972 48.6679C25.1972 48.6679 18.296 38.3962 16.8515 36.9518H31.6169C31.6169 36.9518 31.6169 34.5444 29.37 34.8654C27.1231 35.1864 23.9132 35.5074 24.7157 31.174C25.5182 26.8407 30.1725 7.09995 30.1725 7.09995C30.1725 7.09995 29.8515 5.97649 27.4441 6.77896C24.8762 7.58143 20.3824 8.70489 18.296 8.70489L23.4318 9.82834C23.4318 9.82834 24.8762 9.82834 24.3947 13.0382C23.9132 16.2481 21.3453 30.6925 19.4194 33.4209C19.4194 33.4209 16.5305 36.6308 11.8762 31.6555C6.9009 26.3592 3.85151 13.8407 9.3083 8.22341C14.9256 2.44563 17.654 2.12464 18.4565 1.64316Z" fill="#555555"/>
</g>
<defs>
<clipPath id="clip0">
<rect width="65.1605" height="57.2963" fill="white" transform="translate(0.160156 0.679688)"/>
</clipPath>
</defs>
</svg>
