<svg width="69" height="91" viewBox="0 0 69 91" fill="none" xmlns="http://www.w3.org/2000/svg">
<g clip-path="url(#clip0)">
<path d="M68.7411 78.4815L68.5806 11.716C68.5806 5.2963 63.2843 0 56.8646 0H12.2473C5.82755 0.160494 0.53125 5.45679 0.53125 11.8765L0.691744 78.642L68.7411 78.4815Z" fill="#555555"/>
<path d="M0.691406 79.7637C1.01239 86.0229 6.1482 90.9982 12.4075 90.9982H56.8642C63.1235 90.9982 68.2593 86.0229 68.5803 79.7637H0.691406Z" fill="#555555"/>
<path d="M32.1476 17.0126C34.0736 16.8521 34.2341 15.7286 34.2341 15.7286V9.62988H32.6291V15.2472C32.6291 15.2472 32.6291 15.5682 32.1476 15.7286C31.9871 15.7286 31.8267 15.7286 31.8267 15.7286C31.3452 15.5682 31.3452 15.2472 31.3452 15.2472V9.62988H29.7402V15.7286C29.7402 15.7286 30.0612 17.0126 31.9871 17.0126H32.1476Z" fill="white"/>
<path d="M37.1245 18.2973V12.5195H35.5195V18.2973V19.7418H37.1245H39.0504V18.1368L37.1245 18.2973Z" fill="white"/>
<path d="M34.3957 4.81543C25.8895 4.81543 18.9883 11.7167 18.9883 20.2228C18.9883 27.4451 23.9636 33.5438 30.7043 35.1488V28.087C30.7043 28.087 30.7043 23.4327 37.9266 23.4327C37.9266 23.4327 40.013 31.4574 32.7908 31.4574C32.7908 31.4574 32.1488 27.6056 36.0006 24.8772C36.0006 24.8772 33.1117 26.0006 32.1488 28.729C32.1488 28.729 31.8278 29.692 31.8278 30.3339V35.3093C32.6303 35.4698 33.5932 35.4698 34.3957 35.4698C42.9019 35.4698 49.8031 28.5685 49.8031 20.0623C49.8031 11.7167 42.9019 4.81543 34.3957 4.81543ZM34.2352 21.3463C29.5809 21.3463 25.2475 22.4698 22.3587 24.2352C21.8772 22.9512 21.7167 21.6673 21.7167 20.2228C21.7167 13.1611 27.334 7.54382 34.3957 7.54382C41.4574 7.54382 47.0747 13.1611 47.0747 20.2228C47.0747 21.6673 46.7537 23.1117 46.4327 24.3957C43.3833 22.4697 39.05 21.3463 34.2352 21.3463Z" fill="white"/>
<path d="M16.5803 47.1857L15.7778 45.2598C15.6173 45.0993 15.6173 44.9388 15.4568 44.7783C15.2963 44.6178 15.1359 44.6178 14.9754 44.6178H14.8149V47.0252H13.6914V41.0869H15.4568C15.7778 41.0869 16.0988 41.0869 16.4198 41.2474C16.7408 41.2474 16.9013 41.4079 17.0618 41.5684C17.2223 41.7289 17.3828 41.8894 17.5433 42.0499C17.7038 42.2104 17.7038 42.5314 17.7038 42.8523C17.7038 43.0128 17.7038 43.3338 17.5433 43.4943C17.5433 43.6548 17.3828 43.8153 17.2223 43.9758C17.0618 44.1363 16.9013 44.1363 16.7408 44.2968C16.5803 44.2968 16.4198 44.4573 16.2593 44.4573C16.4198 44.4573 16.5803 44.6178 16.7408 44.7783C16.9013 44.9388 17.0618 45.0993 17.0618 45.4202L18.0247 47.3462L16.5803 47.1857ZM16.2593 42.8523C16.2593 42.5314 16.0988 42.3709 15.9383 42.2104C15.7778 42.0499 15.4568 42.0499 15.1359 42.0499H14.6544V43.8153H15.1359C15.2963 43.8153 15.4568 43.8153 15.6173 43.8153C15.7778 43.8153 15.9383 43.6548 15.9383 43.6548C16.0988 43.6548 16.0988 43.4943 16.0988 43.3338C16.2593 43.1733 16.2593 43.0128 16.2593 42.8523Z" fill="white"/>
<path d="M23.1602 47.1857V41.0869H26.691V42.0499H24.2836V43.6548H26.5305V44.4573H24.2836V46.2227H26.691V47.1857H23.1602Z" fill="white"/>
<path d="M18.8265 47.1857L18.666 41.0869H22.1969V42.0499H19.7895V43.6548H22.0364V44.4573H19.7895V46.2227H22.1969V47.1857H18.8265Z" fill="white"/>
<path d="M31.345 47.1857L29.5795 43.4943L29.2586 42.8523V45.2598V47.1857H28.1351L27.9746 41.0869H29.5795L31.345 44.7783L31.666 45.4202V42.8523V41.0869H32.7894V47.1857H31.345Z" fill="white"/>
<path d="M39.0505 43.814V46.8634C38.7295 47.0239 38.4085 47.0239 38.0875 47.1844C37.7665 47.1844 37.4455 47.3449 37.1245 47.3449C36.6431 47.3449 36.3221 47.3449 36.0011 47.1844C35.6801 47.0239 35.3591 46.8634 35.1986 46.5424C35.0381 46.2214 34.7171 45.9004 34.7171 45.5794C34.5566 45.2584 34.5566 44.777 34.5566 44.2955C34.5566 43.814 34.5566 43.3325 34.7171 43.0115C34.8776 42.6905 35.0381 42.2091 35.3591 42.0486C35.6801 41.7276 36.0011 41.5671 36.3221 41.4066C36.6431 41.2461 37.1245 41.2461 37.606 41.2461C37.927 41.2461 38.0875 41.2461 38.4085 41.2461C38.7295 41.2461 38.89 41.4066 39.211 41.4066V42.53C39.0505 42.3695 38.7295 42.3695 38.4085 42.2091C38.0875 42.2091 37.7665 42.0486 37.606 42.0486C37.285 42.0486 37.1245 42.0486 36.8036 42.2091C36.6431 42.3695 36.3221 42.3695 36.3221 42.6905C36.0011 42.851 35.8406 43.0115 35.8406 43.3325C35.8406 43.6535 35.6801 43.814 35.6801 44.2955C35.6801 44.6165 35.6801 44.9375 35.8406 45.0979C35.8406 45.4189 36.0011 45.5794 36.1616 45.7399C36.3221 45.9004 36.4826 46.0609 36.6431 46.2214C36.8036 46.3819 37.1245 46.3819 37.4455 46.3819H37.606H37.7665H37.927H38.0875V44.135L39.0505 43.814Z" fill="white"/>
<path d="M12.0876 43.9781V47.0274C11.7666 47.1879 11.4456 47.1879 11.1246 47.3484C10.8036 47.3484 10.4826 47.5089 10.1617 47.5089C9.68017 47.5089 9.35918 47.5089 9.03819 47.3484C8.71721 47.1879 8.39622 47.0274 8.23573 46.7065C8.07523 46.3855 7.75424 46.0645 7.75424 45.7435C7.59375 45.4225 7.59375 44.941 7.59375 44.4595C7.59375 43.9781 7.59375 43.4966 7.75424 43.1756C7.91474 42.8546 8.07523 42.3731 8.39622 42.2126C8.71721 41.8916 9.03819 41.7311 9.35918 41.5707C9.68017 41.4102 10.1617 41.4102 10.6431 41.4102C10.9641 41.4102 11.1246 41.4102 11.4456 41.4102C11.7666 41.4102 11.9271 41.5707 12.2481 41.5707V42.6941C12.0876 42.5336 11.7666 42.5336 11.4456 42.3731C11.1246 42.3731 10.8036 42.2126 10.6431 42.2126C10.3221 42.2126 10.1617 42.2126 9.84066 42.3731C9.68017 42.5336 9.35918 42.5336 9.35918 42.8546C9.19869 43.0151 9.03819 43.3361 9.03819 43.4966C9.03819 43.8176 8.8777 43.9781 8.8777 44.4595C8.8777 44.7805 8.8777 45.1015 9.03819 45.262C9.03819 45.583 9.19869 45.7435 9.35918 45.904C9.51968 46.0645 9.68017 46.225 9.84066 46.3855C10.0012 46.546 10.3221 46.546 10.6431 46.546H10.8036H10.9641H11.1246H11.2851V44.299L12.0876 43.9781Z" fill="white"/>
<path d="M45.3079 44.9388C45.3079 45.2598 45.3079 45.5807 45.1474 45.9017C44.987 46.2227 44.8265 46.3832 44.666 46.7042C44.5055 46.8647 44.1845 47.0252 44.024 47.1857C43.703 47.3462 43.382 47.3462 43.061 47.3462C42.74 47.3462 42.2586 47.3462 42.0981 47.1857C41.7771 47.0252 41.6166 47.0252 41.4561 46.7042C41.2956 46.5437 41.1351 46.2227 41.1351 46.0622C41.1351 45.7412 40.9746 45.5807 40.9746 45.0993V41.0869H42.0981V44.9388C42.0981 45.0993 42.0981 45.2598 42.0981 45.4202C42.0981 45.5807 42.2586 45.7412 42.2586 45.7412C42.4191 45.9017 42.4191 45.9017 42.5795 46.0622C42.74 46.0622 42.9005 46.2227 43.061 46.2227C43.2215 46.2227 43.382 46.2227 43.5425 46.2227C43.703 46.2227 43.8635 46.0622 43.8635 46.0622C44.024 45.9017 44.024 45.9017 44.024 45.5807C44.024 45.4202 44.024 45.2598 44.024 44.9388V41.0869H45.1474L45.3079 44.9388Z" fill="white"/>
<path d="M49.9632 47.0252L49.6422 45.9017H47.5558L47.2348 47.0252H46.1113L47.8768 41.0869H49.4817L51.2471 47.0252H49.9632ZM48.6792 42.2104L47.8768 44.9388H49.4817L48.6792 42.2104Z" fill="white"/>
<path d="M55.4201 47.0236L54.6177 45.0976C54.4572 44.9372 54.4572 44.7767 54.2967 44.6162C54.1362 44.4557 53.9757 44.4557 53.8152 44.4557H53.6547V46.8631H52.5312V40.9248H54.2967C54.6177 40.9248 54.9387 40.9248 55.2596 41.0853C55.5806 41.0853 55.7411 41.2458 55.9016 41.4063C56.0621 41.5668 56.2226 41.7273 56.3831 41.8878C56.5436 42.0483 56.5436 42.3692 56.5436 42.6902C56.5436 42.8507 56.5436 43.1717 56.3831 43.3322C56.3831 43.4927 56.2226 43.6532 56.0621 43.8137C55.9016 43.9742 55.7411 43.9742 55.5806 44.1347C55.4201 44.1347 55.2596 44.2952 55.0991 44.2952C55.2596 44.2952 55.4201 44.4557 55.5806 44.6162C55.7411 44.7767 55.9016 44.9372 55.9016 45.2581L56.8646 47.1841L55.4201 47.0236ZM55.0991 42.8507C55.0991 42.5297 54.9387 42.3692 54.7782 42.2088C54.6177 42.0483 54.2967 42.0483 53.9757 42.0483H53.4942V43.8137H53.9757C54.1362 43.8137 54.2967 43.8137 54.4572 43.8137C54.6177 43.8137 54.7782 43.6532 54.7782 43.6532C54.9387 43.6532 54.9387 43.4927 54.9387 43.3322C55.0992 43.1717 55.0991 43.0112 55.0991 42.8507Z" fill="white"/>
<path d="M62.3223 43.9758C62.3223 44.4573 62.3223 44.9388 62.1618 45.2598C62.0013 45.5807 61.8408 45.9017 61.6803 46.2227C61.3593 46.5437 61.0383 46.7042 60.7174 46.8647C60.3964 47.0252 59.9149 47.0252 59.2729 47.0252H57.668V41.0869H59.4334C59.9149 41.0869 60.2359 41.0869 60.7174 41.2474C61.0383 41.4079 61.3593 41.5684 61.5198 41.7289C61.6803 41.8894 62.0013 42.2104 62.0013 42.6919C62.3223 43.0128 62.3223 43.4943 62.3223 43.9758ZM61.1988 44.1363C61.1988 43.8153 61.1988 43.4943 61.0383 43.3338C61.0383 43.0128 60.8778 42.8523 60.7174 42.6919C60.5569 42.5314 60.3964 42.3709 60.2359 42.3709C60.0754 42.2104 59.7544 42.2104 59.4334 42.2104H58.7914V46.3832H59.2729C59.9149 46.3832 60.2359 46.2227 60.5569 45.9017C61.0383 45.2598 61.1988 44.7783 61.1988 44.1363Z" fill="white"/>
<path d="M30.2216 84.099C30.0611 83.9385 29.9006 83.9385 29.7401 83.9385C29.5796 83.9385 29.4191 83.9385 29.0981 83.9385C28.7771 83.9385 28.6167 83.9385 28.4562 84.099C28.2957 84.099 28.1352 84.2595 27.9747 84.42C27.8142 84.5805 27.8142 84.741 27.6537 84.9015C27.6537 85.062 27.4932 85.383 27.4932 85.5434C27.4932 85.8644 27.4932 86.0249 27.6537 86.1854C27.6537 86.3459 27.8142 86.5064 27.9747 86.6669C28.1352 86.8274 28.2957 86.9879 28.4562 86.9879C28.6167 86.9879 28.9376 87.1484 29.0981 87.1484H29.2586H29.4191H29.5796H29.7401V85.7039H30.3821V87.4694C30.2216 87.4694 30.2216 87.4694 30.0611 87.6299C29.9006 87.6299 29.9006 87.6299 29.7401 87.7904C29.5796 87.7904 29.5796 87.7904 29.4191 87.7904C29.2586 87.7904 29.2586 87.7904 29.0981 87.7904C28.7771 87.7904 28.4562 87.7904 28.2957 87.6299C27.9747 87.4694 27.8142 87.4694 27.6537 87.3089C27.4932 87.1484 27.3327 86.9879 27.1722 86.6669C27.0117 86.3459 27.0117 86.0249 27.0117 85.7039C27.0117 85.383 27.0117 85.062 27.1722 84.741C27.3327 84.42 27.4932 84.2595 27.6537 84.099C27.8142 83.9385 28.1352 83.778 28.2957 83.6175C28.6167 83.457 28.7771 83.457 29.0981 83.457C29.2586 83.457 29.4191 83.457 29.7401 83.457C29.9006 83.457 30.0611 83.6175 30.2216 83.6175V84.099Z" fill="white"/>
<path d="M34.8776 85.3846C34.8776 85.7056 34.8776 86.0266 34.7171 86.3476C34.5566 86.6686 34.5566 86.8291 34.2356 86.9895C34.0751 87.15 33.9146 87.3105 33.5936 87.3105C33.4331 87.471 33.1121 87.471 32.7912 87.471C32.4702 87.471 32.1492 87.471 31.9887 87.3105C31.8282 87.15 31.5072 87.15 31.3467 86.8291C31.1862 86.6686 31.0257 86.3476 31.0257 86.1871C31.0257 85.8661 30.8652 85.7056 30.8652 85.2241C30.8652 84.9031 30.8652 84.5821 31.0257 84.2612C31.1862 83.9402 31.1862 83.7797 31.5072 83.6192C31.6677 83.4587 31.8282 83.2982 32.1492 83.2982C32.3097 83.1377 32.6307 83.1377 32.9517 83.1377C33.2726 83.1377 33.5936 83.1377 33.7541 83.2982C33.9146 83.4587 34.2356 83.4587 34.3961 83.7797C34.5566 83.9402 34.7171 84.2612 34.7171 84.4216C34.8776 84.7426 34.8776 85.0636 34.8776 85.3846ZM34.2356 85.3846C34.2356 85.0636 34.2356 84.9031 34.2356 84.7426C34.2356 84.5821 34.0751 84.4216 34.0751 84.2612C33.9146 84.1007 33.9146 83.9402 33.7541 83.9402C33.5936 83.7797 33.4331 83.7797 33.2726 83.7797C33.1121 83.7797 32.9517 83.7797 32.7912 83.9402C32.6307 84.1007 32.4702 84.1007 32.4702 84.2612C32.3097 84.4216 32.3097 84.5821 32.3097 84.7426C32.3097 84.9031 32.3097 85.2241 32.3097 85.3846C32.3097 85.7056 32.3097 85.8661 32.3097 86.0266C32.3097 86.1871 32.4702 86.3476 32.4702 86.5081C32.6307 86.6686 32.6307 86.8291 32.7912 86.8291C32.9517 86.9895 33.1121 86.9895 33.2726 86.9895C33.4331 86.9895 33.5936 86.9895 33.7541 86.8291C33.9146 86.6686 34.0751 86.6686 34.0751 86.5081C34.2356 86.3476 34.2356 86.1871 34.2356 86.0266C34.2356 85.8661 34.2356 85.7056 34.2356 85.3846Z" fill="white"/>
<path d="M38.2469 87.4707H36V83.2979H36.4815V86.9892H38.2469V87.4707Z" fill="white"/>
<path d="M42.0989 85.3843C42.0989 85.5448 42.0989 85.7053 42.0989 86.0262C42.0989 86.1867 41.9384 86.3472 41.9384 86.5077C41.9384 86.6682 41.7779 86.8287 41.6174 86.9892C41.4569 87.1497 41.2964 87.1497 41.1359 87.3102C40.9754 87.4707 40.8149 87.4707 40.4939 87.4707C40.3335 87.4707 40.0125 87.4707 39.6915 87.4707H38.7285V83.2979H39.852C40.4939 83.2979 41.1359 83.4583 41.4569 83.7793C41.9384 84.1003 42.0989 84.7423 42.0989 85.3843ZM41.4569 85.3843C41.4569 85.0633 41.4569 84.9028 41.2964 84.5818C41.2964 84.4213 41.1359 84.2608 40.9754 84.1003C40.8149 83.9398 40.6544 83.9398 40.4939 83.7793C40.3335 83.7793 40.0125 83.6188 39.852 83.6188H39.3705V86.8287H39.852C40.9754 86.9892 41.4569 86.5077 41.4569 85.3843Z" fill="white"/>
<path d="M6.79102 60.0233V57.2949H7.75398C7.91447 57.2949 8.07497 57.2949 8.23546 57.2949C8.39595 57.2949 8.55645 57.2949 8.55645 57.4554C8.71694 57.4554 8.71694 57.6159 8.71694 57.7764C8.71694 57.9369 8.87743 57.9369 8.87743 58.0974C8.87743 58.2579 8.87743 58.5789 8.71694 58.7394C8.55645 58.8999 8.23546 59.0604 7.91447 59.0604H7.2725V60.1838L6.79102 60.0233ZM7.112 58.5789H7.75398C7.91447 58.5789 8.07497 58.5789 8.23546 58.4184C8.39595 58.4184 8.55645 58.2579 8.55645 58.0974C8.55645 57.9369 8.55645 57.9369 8.39595 57.7764C8.39595 57.6159 8.23546 57.6159 8.23546 57.6159C8.23546 57.6159 8.07497 57.6159 7.91447 57.6159H7.2725L7.112 58.5789Z" fill="white"/>
<path d="M9.35938 60.0233V57.2949H10.6433C10.9643 57.2949 11.1248 57.2949 11.1248 57.2949C11.2853 57.2949 11.2853 57.4554 11.4458 57.6159C11.4458 57.7764 11.6063 57.9369 11.6063 58.0974C11.6063 58.2579 11.6063 58.4184 11.4458 58.5789C11.2853 58.7394 11.1248 58.7394 10.8038 58.8999C10.9643 58.8999 10.9643 59.0604 10.9643 59.0604C11.1248 59.2208 11.1248 59.2208 11.2853 59.3813L11.7668 60.0233H11.2853L10.9643 59.3813C10.8038 59.2208 10.8038 59.0604 10.6433 59.0604C10.6433 58.8999 10.4828 58.8999 10.4828 58.8999H10.3223H10.1618H9.68036V60.1838L9.35938 60.0233ZM9.68036 58.5789H10.4828C10.6433 58.5789 10.8038 58.5789 10.8038 58.5789C10.9643 58.5789 10.9643 58.4184 10.9643 58.4184C10.9643 58.4184 10.9643 58.2579 10.9643 58.0974C10.9643 57.9369 10.9643 57.9369 10.8038 57.7764C10.6433 57.6159 10.4828 57.6159 10.3223 57.6159H9.51987L9.68036 58.5789Z" fill="white"/>
<path d="M11.9258 58.7394C11.9258 58.2579 12.0863 57.9369 12.2468 57.6159C12.4073 57.2949 12.7283 57.2949 13.2097 57.2949C13.5307 57.2949 13.6912 57.2949 13.8517 57.4554C14.0122 57.6159 14.1727 57.7764 14.3332 57.9369C14.4937 58.0974 14.4937 58.4184 14.4937 58.7394C14.4937 59.0604 14.4937 59.2208 14.3332 59.5418C14.1727 59.7023 14.0122 59.8628 13.8517 60.0233C13.6912 60.1838 13.3702 60.1838 13.2097 60.1838C12.8887 60.1838 12.7283 60.1838 12.5678 60.0233C12.4073 59.8628 12.2468 59.7023 12.0863 59.5418C12.0863 59.2208 11.9258 58.8999 11.9258 58.7394ZM12.4073 58.7394C12.4073 59.0604 12.5678 59.3813 12.7283 59.5418C12.8887 59.7023 13.0492 59.8628 13.3702 59.8628C13.6912 59.8628 13.8517 59.7023 14.0122 59.5418C14.1727 59.3813 14.3332 59.0604 14.3332 58.7394C14.3332 58.5789 14.3332 58.2579 14.1727 58.0974C14.1727 57.9369 14.0122 57.7764 13.8517 57.7764C13.6912 57.6159 13.5307 57.6159 13.3702 57.6159C13.0492 57.6159 12.8887 57.7764 12.7283 57.9369C12.4073 58.0974 12.4073 58.2579 12.4073 58.7394Z" fill="white"/>
<path d="M15.1367 60.0233V57.2949H16.0997C16.2602 57.2949 16.4207 57.2949 16.5812 57.2949C16.7417 57.2949 16.9021 57.4554 16.9021 57.4554C17.0626 57.6159 17.2231 57.7764 17.2231 57.9369C17.2231 58.0974 17.3836 58.4184 17.3836 58.5789C17.3836 58.7394 17.3836 58.8999 17.3836 59.0604C17.3836 59.2208 17.2231 59.3813 17.2231 59.3813C17.2231 59.5418 17.0626 59.5418 16.9021 59.7023C16.7417 59.7023 16.7417 59.8628 16.5812 59.8628C16.4207 59.8628 16.2602 59.8628 16.0997 59.8628L15.1367 60.0233ZM15.4577 59.7023H16.0997C16.2602 59.7023 16.4207 59.7023 16.5812 59.7023C16.7417 59.7023 16.7417 59.5418 16.9021 59.5418C17.0626 59.3813 17.0626 59.3813 17.0626 59.2208C17.0626 59.0604 17.0626 58.8999 17.0626 58.7394C17.0626 58.4184 17.0626 58.2579 16.9021 58.0974C16.7417 57.7764 16.5812 57.7764 16.4207 57.6159C16.2602 57.6159 16.0997 57.6159 15.9392 57.6159H15.2972L15.4577 59.7023Z" fill="white"/>
<path d="M19.6291 57.2949H19.95V58.8999C19.95 59.2208 19.95 59.3813 19.7895 59.5418C19.7895 59.7023 19.6291 59.8628 19.4686 59.8628C19.3081 60.0233 19.1476 60.0233 18.8266 60.0233C18.5056 60.0233 18.3451 60.0233 18.1846 59.8628C18.0241 59.7023 17.8636 59.7023 17.8636 59.5418C17.8636 59.3813 17.7031 59.2208 17.7031 58.8999V57.2949H18.0241V58.8999C18.0241 59.0604 18.0241 59.3813 18.0241 59.3813C18.0241 59.5418 18.1846 59.5418 18.1846 59.7023C18.3451 59.7023 18.3451 59.8628 18.5056 59.8628C18.8266 59.8628 18.9871 59.8628 19.1476 59.7023C19.3081 59.5418 19.3081 59.3813 19.3081 59.0604L19.6291 57.2949Z" fill="white"/>
<path d="M22.5181 59.0617L22.839 59.2222C22.839 59.5432 22.6786 59.7036 22.3576 59.8641C22.1971 60.0246 21.8761 60.0246 21.7156 60.0246C21.3946 60.0246 21.2341 60.0246 21.0736 59.8641C20.9131 59.7036 20.7526 59.5432 20.5921 59.3827C20.4316 59.2222 20.4316 58.9012 20.4316 58.5802C20.4316 58.2592 20.4316 58.0987 20.5921 57.7777C20.7526 57.6172 20.9131 57.4567 21.0736 57.2962C21.2341 57.1357 21.5551 57.1357 21.7156 57.1357C22.0366 57.1357 22.1971 57.1357 22.3576 57.2962C22.5181 57.4567 22.6786 57.6172 22.6786 57.9382L22.3576 58.0987C22.3576 57.9382 22.1971 57.7777 22.0366 57.6172C21.8761 57.4567 21.7156 57.4567 21.5551 57.4567C21.3946 57.4567 21.2341 57.4567 21.0736 57.6172C20.9131 57.7777 20.9131 57.7777 20.7526 58.0987C20.7526 58.2592 20.5921 58.4197 20.5921 58.5802C20.5921 58.7407 20.5921 59.0617 20.7526 59.2222C20.7526 59.3827 20.9131 59.5431 21.0736 59.5431C21.2341 59.7036 21.3946 59.7036 21.5551 59.7036C21.7156 59.7036 21.8761 59.7036 22.0366 59.5431C22.3576 59.5431 22.5181 59.3827 22.5181 59.0617Z" fill="white"/>
<path d="M23.9626 60.0233V57.6159H23.1602V57.2949H25.2466V57.6159H24.4441V60.0233H23.9626Z" fill="white"/>
<path d="M28.6177 59.0617L28.9387 59.2222C28.9387 59.5432 28.7782 59.7036 28.4572 59.8641C28.2967 60.0246 27.9757 60.0246 27.8152 60.0246C27.4942 60.0246 27.3337 60.0246 27.1732 59.8641C27.0127 59.7036 26.8522 59.5432 26.6917 59.3827C26.5312 59.2222 26.5312 58.9012 26.5312 58.5802C26.5312 58.2592 26.5312 58.0987 26.6917 57.7777C26.8522 57.6172 27.0127 57.4567 27.1732 57.2962C27.3337 57.1357 27.6547 57.1357 27.8152 57.1357C28.1362 57.1357 28.2967 57.1357 28.4572 57.2962C28.6177 57.4567 28.7782 57.6172 28.7782 57.9382L28.4572 58.0987C28.4572 57.9382 28.2967 57.7777 28.1362 57.6172C27.9757 57.4567 27.8152 57.4567 27.6547 57.4567C27.4942 57.4567 27.3337 57.4567 27.1732 57.6172C27.0127 57.7777 27.0127 57.7777 26.8522 58.0987C26.8522 58.2592 26.6917 58.4197 26.6917 58.5802C26.6917 58.7407 26.6917 59.0617 26.8522 59.2222C26.8522 59.3827 27.0127 59.5431 27.1732 59.5431C27.3337 59.7036 27.4942 59.7036 27.6547 59.7036C27.8152 59.7036 27.9757 59.7036 28.1362 59.5431C28.4572 59.5431 28.4572 59.3827 28.6177 59.0617Z" fill="white"/>
<path d="M29.4199 60.0233V57.2949H31.3458V57.6159H29.7409V58.4184H31.1854V58.7394H29.7409V59.7023H31.3458V60.0233H29.4199Z" fill="white"/>
<path d="M31.9883 60.0233V57.2949H33.2722C33.5932 57.2949 33.7537 57.2949 33.7537 57.2949C33.9142 57.2949 33.9142 57.4554 34.0747 57.6159C34.0747 57.7764 34.2352 57.9369 34.2352 58.0974C34.2352 58.2579 34.2352 58.4184 34.0747 58.5789C33.9142 58.7394 33.7537 58.7394 33.4327 58.8999C33.5932 58.8999 33.5932 59.0604 33.5932 59.0604C33.7537 59.2208 33.7537 59.2208 33.9142 59.3813L34.3957 60.1838H33.9142L33.5932 59.3813C33.4327 59.2208 33.4327 59.0604 33.2722 59.0604C33.2722 58.8999 33.1117 58.8999 33.1117 58.8999H32.9512H32.7908H32.3093V60.1838L31.9883 60.0233ZM32.3093 58.4184H33.1117C33.2722 58.4184 33.4327 58.4184 33.4327 58.4184C33.5932 58.4184 33.5932 58.2579 33.5932 58.2579C33.5932 58.2579 33.5932 58.0974 33.5932 57.9369C33.5932 57.7764 33.5932 57.7764 33.4327 57.6159C33.2722 57.4554 33.1117 57.4554 32.9512 57.4554H32.1488L32.3093 58.4184Z" fill="white"/>
<path d="M35.3575 60.0233V57.6159H34.3945V57.2949H36.4809V57.6159H35.6785V60.0233H35.3575Z" fill="white"/>
<path d="M37.2819 57.2973L36.9609 57.2979L36.9656 60.0262L37.2865 60.0257L37.2819 57.2973Z" fill="white"/>
<path d="M38.0863 60.0233L37.9258 57.2949H39.8517V57.6159H38.4073V58.4184H39.6912V58.7394H38.4073V60.0233H38.0863Z" fill="white"/>
<path d="M40.653 57.2973L40.332 57.2979L40.3367 60.0262L40.6576 60.0257L40.653 57.2973Z" fill="white"/>
<path d="M41.457 60.0233V57.2949H43.383V57.6159H41.778V58.4184H43.2225V58.7394H41.778V59.7023H43.383V60.0233H41.457Z" fill="white"/>
<path d="M43.8652 60.0233V57.2949H44.8282C44.9887 57.2949 45.1492 57.2949 45.3097 57.2949C45.4702 57.2949 45.6307 57.4554 45.6307 57.4554C45.7912 57.6159 45.9517 57.7764 45.9517 57.9369C45.9517 58.0974 46.1121 58.4184 46.1121 58.5789C46.1121 58.7394 46.1121 58.8999 46.1121 59.0604C46.1121 59.2208 45.9517 59.3813 45.9517 59.3813C45.9517 59.5418 45.7912 59.5418 45.6307 59.7023C45.4702 59.7023 45.4702 59.8628 45.3097 59.8628C45.1492 59.8628 44.9887 59.8628 44.8282 59.8628L43.8652 60.0233ZM44.3467 59.7023H44.9887C45.1492 59.7023 45.3097 59.7023 45.4702 59.7023C45.6307 59.7023 45.6307 59.5418 45.7912 59.5418C45.9517 59.3813 45.9517 59.3813 45.9517 59.2208C45.9517 59.0604 45.9517 58.8999 45.9517 58.7394C45.9517 58.4184 45.9517 58.2579 45.7912 58.0974C45.6307 57.7764 45.4702 57.7764 45.3097 57.6159C45.1492 57.6159 44.9887 57.6159 44.8282 57.6159H44.1862L44.3467 59.7023Z" fill="white"/>
<path d="M47.7168 60.0233V57.2949H49.6427V57.6159H48.0378V58.4184H49.3217V58.7394H48.0378V60.0233H47.7168Z" fill="white"/>
<path d="M49.9629 58.7394C49.9629 58.2579 50.1234 57.9369 50.2839 57.6159C50.6049 57.2949 50.7654 57.2949 51.2468 57.2949C51.5678 57.2949 51.7283 57.2949 51.8888 57.4554C52.0493 57.6159 52.2098 57.7764 52.3703 57.9369C52.5308 58.0974 52.5308 58.4184 52.5308 58.7394C52.5308 59.0604 52.5308 59.2208 52.3703 59.5418C52.2098 59.7023 52.0493 59.8628 51.8888 60.0233C51.7283 60.1838 51.4073 60.1838 51.2468 60.1838C50.9259 60.1838 50.7654 60.1838 50.6049 60.0233C50.4444 59.8628 50.2839 59.7023 50.1234 59.5418C49.9629 59.0604 49.9629 58.8999 49.9629 58.7394ZM50.2839 58.7394C50.2839 59.0604 50.4444 59.3813 50.6049 59.5418C50.7654 59.7023 50.9259 59.8628 51.2468 59.8628C51.5678 59.8628 51.7283 59.7023 51.8888 59.5418C52.0493 59.3813 52.2098 59.0604 52.2098 58.7394C52.2098 58.5789 52.2098 58.2579 52.0493 58.0974C52.0493 57.9369 51.8888 57.7764 51.7283 57.7764C51.5678 57.6159 51.4073 57.6159 51.2468 57.6159C50.9259 57.6159 50.7654 57.7764 50.6049 57.9369C50.4444 57.9369 50.2839 58.2579 50.2839 58.7394Z" fill="white"/>
<path d="M53.0117 60.0233V57.2949H54.2957C54.6167 57.2949 54.7771 57.2949 54.7771 57.2949C54.9376 57.2949 54.9376 57.4554 55.0981 57.6159C55.0981 57.7764 55.2586 57.9369 55.2586 58.0974C55.2586 58.2579 55.2586 58.4184 55.0981 58.5789C54.9376 58.7394 54.7771 58.7394 54.4562 58.8999C54.6167 58.8999 54.6167 59.0604 54.6167 59.0604C54.7772 59.2208 54.7772 59.2208 54.9376 59.3813L55.4191 60.1838H54.9376L54.6167 59.3813C54.4562 59.2208 54.4562 59.0604 54.2957 59.0604C54.2957 58.8999 54.1352 58.8999 54.1352 58.8999H53.9747H53.8142H53.3327V60.1838L53.0117 60.0233ZM53.3327 58.4184H54.1352C54.2957 58.4184 54.4562 58.4184 54.4562 58.4184C54.6167 58.4184 54.6167 58.2579 54.6167 58.2579C54.6167 58.2579 54.6167 58.0974 54.6167 57.9369C54.6167 57.7764 54.6167 57.7764 54.4562 57.6159C54.2957 57.4554 54.1352 57.4554 53.9747 57.4554H53.1722L53.3327 58.4184Z" fill="white"/>
<path d="M6.79102 65.3212V62.5928H7.112V65.0002H8.55645V65.3212H6.79102Z" fill="white"/>
<path d="M8.87695 63.878C8.87695 63.3966 9.03745 63.0756 9.19794 62.7546C9.35844 62.5941 9.67942 62.4336 10.1609 62.4336C10.4819 62.4336 10.6424 62.4336 10.8029 62.5941C10.9634 62.7546 11.1239 62.9151 11.2844 63.0756C11.4449 63.2361 11.4449 63.557 11.4449 63.878C11.4449 64.199 11.4449 64.3595 11.2844 64.6805C11.1239 64.841 10.9634 65.0015 10.8029 65.162C10.6424 65.3225 10.3214 65.3225 10.1609 65.3225C9.83992 65.3225 9.67942 65.3225 9.51893 65.162C9.35843 65.0015 9.19794 64.841 9.03745 64.6805C8.87695 64.3595 8.87695 64.199 8.87695 63.878ZM9.19794 64.0385C9.19794 64.3595 9.35843 64.6805 9.51893 64.841C9.67942 65.0015 9.83992 65.162 10.1609 65.162C10.4819 65.162 10.6424 65.0015 10.8029 64.841C10.9634 64.6805 11.1239 64.3595 11.1239 64.0385C11.1239 63.878 11.1239 63.557 10.9634 63.3966C10.9634 63.2361 10.8029 63.0756 10.6424 63.0756C10.4819 62.9151 10.3214 62.9151 10.1609 62.9151C9.83992 62.9151 9.67942 63.0756 9.51893 63.2361C9.35843 63.2361 9.19794 63.5571 9.19794 64.0385Z" fill="white"/>
<path d="M12.4079 65.3212L11.6055 62.5928H11.9265L12.4079 64.3582C12.4079 64.5187 12.5684 64.6792 12.5684 64.8397C12.5684 64.5187 12.7289 64.3582 12.7289 64.3582L13.2104 62.5928H13.6919L14.0129 64.0372C14.1734 64.3582 14.1734 64.6792 14.1734 65.0002C14.1734 64.8397 14.1734 64.6792 14.3339 64.3582L14.8153 62.5928H15.1363L14.3339 65.3212H14.0129L13.3709 63.2348C13.3709 63.0743 13.3709 62.9138 13.2104 62.9138C13.2104 63.0743 13.2104 63.0743 13.2104 63.2348L12.5684 65.3212H12.4079Z" fill="white"/>
<path d="M18.5063 64.3595L18.8273 64.52C18.8273 64.841 18.6668 65.0015 18.3458 65.162C18.1854 65.3225 17.8644 65.3225 17.7039 65.3225C17.3829 65.3225 17.2224 65.3225 17.0619 65.162C16.9014 65.0015 16.7409 64.841 16.5804 64.6805C16.4199 64.52 16.4199 64.199 16.4199 63.878C16.4199 63.557 16.4199 63.3966 16.5804 63.0756C16.7409 62.9151 16.9014 62.7546 17.0619 62.5941C17.2224 62.4336 17.5434 62.4336 17.7039 62.4336C18.0249 62.4336 18.1854 62.4336 18.3458 62.5941C18.5063 62.7546 18.6668 62.9151 18.6668 63.2361L18.3458 63.3966C18.3458 63.2361 18.1854 63.0756 18.0249 62.9151C17.8644 62.7546 17.7039 62.7546 17.5434 62.7546C17.3829 62.7546 17.2224 62.7546 17.0619 62.9151C16.9014 63.0756 16.9014 63.0756 16.7409 63.3966C16.7409 63.557 16.5804 63.7175 16.5804 63.878C16.5804 64.0385 16.5804 64.3595 16.7409 64.52C16.7409 64.6805 16.9014 64.841 17.0619 64.841C17.2224 65.0015 17.3829 65.0015 17.5434 65.0015C17.7039 65.0015 17.8644 65.0015 18.0249 64.841C18.3458 64.6805 18.5063 64.52 18.5063 64.3595Z" fill="white"/>
<path d="M19.3086 65.3212V62.5928H19.6296V63.7162H21.074V62.5928H21.395V65.3212H21.074V64.0372H19.6296V65.3212H19.3086Z" fill="white"/>
<path d="M22.0371 65.3212V62.5928H23.963V62.9138H22.3581V63.7162H23.963V64.0372H22.3581V65.0002H24.1235V65.3212H22.0371Z" fill="white"/>
<path d="M24.6055 65.3212V62.5928H25.087L25.7289 64.5187C25.7289 64.6792 25.8894 64.8397 25.8894 65.0002C25.8894 64.8397 25.8894 64.6792 26.0499 64.5187L26.6919 62.5928H27.1734V65.3212H26.8524V63.0743L26.0499 65.3212H25.7289L24.9265 62.9138V65.3212H24.6055Z" fill="white"/>
<path d="M28.1335 62.5922L27.8125 62.5928L27.8171 65.3212L28.1381 65.3206L28.1335 62.5922Z" fill="white"/>
<path d="M30.7036 64.3595L31.0246 64.52C31.0246 64.841 30.8641 65.0015 30.5431 65.162C30.3826 65.3225 30.0616 65.3225 29.9011 65.3225C29.5801 65.3225 29.4197 65.3225 29.2592 65.162C29.0987 65.0015 28.9382 64.841 28.7777 64.6805C28.6172 64.52 28.6172 64.199 28.6172 63.878C28.6172 63.557 28.6172 63.3966 28.7777 63.0756C28.9382 62.9151 29.0987 62.7546 29.2592 62.5941C29.4197 62.4336 29.7406 62.4336 29.9011 62.4336C30.2221 62.4336 30.3826 62.4336 30.5431 62.5941C30.7036 62.7546 30.8641 62.9151 30.8641 63.2361L30.5431 63.3966C30.5431 63.2361 30.3826 63.0756 30.2221 62.9151C30.0616 62.7546 29.9011 62.7546 29.7406 62.7546C29.5802 62.7546 29.4197 62.7546 29.2592 62.9151C29.0987 63.0756 29.0987 63.0756 28.9382 63.3966C28.9382 63.557 28.7777 63.7175 28.7777 63.878C28.7777 64.0385 28.7777 64.3595 28.9382 64.52C28.9382 64.6805 29.0987 64.841 29.2592 64.841C29.4197 65.0015 29.5802 65.0015 29.7406 65.0015C29.9011 65.0015 30.0616 65.0015 30.2221 64.841C30.7036 64.6805 30.7036 64.52 30.7036 64.3595Z" fill="white"/>
<path d="M31.3457 65.3212L32.3087 62.5928H32.6297L33.7531 65.3212H33.2716L32.9506 64.5187H31.8272L31.5062 65.3212H31.3457ZM31.9877 64.1977H32.9506L32.6297 63.3952C32.4692 63.2347 32.4692 62.9138 32.4692 62.7533C32.4692 62.9138 32.3087 63.0743 32.3087 63.2348L31.9877 64.1977Z" fill="white"/>
<path d="M34.0742 65.3225V62.4336H34.3952V65.0015L35.8397 64.841V65.3225H34.0742Z" fill="white"/>
<path d="M37.123 65.162V62.4336H39.049V62.7546H37.444V63.7175H39.049V64.0385H37.444V64.841H39.2095V65.162H37.123Z" fill="white"/>
<path d="M39.6914 65.162V62.4336H40.1729L40.8149 64.3595C40.8149 64.52 40.9754 64.6805 40.9754 64.841C40.9754 64.6805 40.9754 64.52 41.1358 64.3595L41.7778 62.4336H42.2593V65.162H41.9383V62.9151L41.1358 65.162H40.8149L40.0124 62.7546V65.162H39.6914Z" fill="white"/>
<path d="M43.2194 62.433L42.8984 62.4336L42.9031 65.162L43.2241 65.1614L43.2194 62.433Z" fill="white"/>
<path d="M43.8652 64.3582H44.1862C44.1862 64.5187 44.1862 64.6792 44.3467 64.6792C44.3467 64.8397 44.5072 64.8397 44.6677 64.8397C44.8282 64.8397 44.9887 65.0002 45.1492 65.0002C45.3097 65.0002 45.4702 65.0002 45.4702 65.0002C45.6307 65.0002 45.6307 64.8397 45.6307 64.8397V64.6792C45.6307 64.5187 45.6307 64.5187 45.6307 64.5187C45.6307 64.5187 45.4702 64.3582 45.3097 64.3582C45.3097 64.3582 45.1492 64.3582 44.8282 64.1977C44.5072 64.1977 44.3467 64.0372 44.3467 64.0372C44.1862 64.0372 44.1862 63.8767 44.0257 63.7162C44.0257 63.5557 43.8652 63.5557 43.8652 63.3952C43.8652 63.2347 43.8652 63.0743 44.0257 63.0743C44.0257 62.9138 44.1862 62.9138 44.3467 62.7533C44.5072 62.7533 44.6677 62.5928 44.8282 62.5928C44.9887 62.5928 45.1492 62.5928 45.3097 62.7533C45.4702 62.7533 45.6307 62.9138 45.6307 63.0743C45.7912 63.2347 45.7912 63.3952 45.7912 63.5557H45.4702C45.4702 63.3952 45.3097 63.2348 45.3097 63.2348C45.1492 63.0743 44.9887 63.0743 44.8282 63.0743C44.6677 63.0743 44.5072 63.0743 44.3467 63.2348C44.1862 63.3952 44.1862 63.3952 44.1862 63.5557C44.1862 63.7162 44.1862 63.7162 44.3467 63.8767C44.3467 63.8767 44.6677 64.0372 44.8282 64.0372C45.1492 64.0372 45.3097 64.1977 45.4702 64.1977C45.6307 64.1977 45.7912 64.3582 45.7912 64.5187C45.7912 64.6792 45.9517 64.8397 45.9517 64.8397C45.9517 65.0002 45.9517 65.1607 45.7912 65.3212C45.6307 65.4817 45.6307 65.4817 45.4702 65.6422C45.3097 65.6422 45.1492 65.8026 44.9887 65.8026C44.6677 65.8026 44.5072 65.8027 44.3467 65.6422C44.1862 65.6422 44.0257 65.4817 44.0257 65.3212C43.8652 64.6792 43.8652 64.5187 43.8652 64.3582Z" fill="white"/>
<path d="M46.2715 64.3582H46.5925C46.5925 64.5187 46.5925 64.6792 46.753 64.6792C46.753 64.8397 46.9135 64.8397 47.074 64.8397C47.2344 64.8397 47.3949 65.0002 47.5554 65.0002C47.7159 65.0002 47.8764 65.0002 47.8764 65.0002C48.0369 65.0002 48.0369 64.8397 48.0369 64.8397V64.6792C48.0369 64.5187 48.0369 64.5187 48.0369 64.5187C48.0369 64.5187 47.8764 64.3582 47.7159 64.3582C47.7159 64.3582 47.5554 64.3582 47.2344 64.1977C46.9135 64.1977 46.753 64.0372 46.753 64.0372C46.5925 64.0372 46.5925 63.8767 46.432 63.7162C46.432 63.5557 46.2715 63.5557 46.2715 63.3952C46.2715 63.2347 46.2715 63.0743 46.432 63.0743C46.432 62.9138 46.5925 62.9138 46.753 62.7533C46.9135 62.7533 47.074 62.5928 47.2344 62.5928C47.3949 62.5928 47.5554 62.5928 47.7159 62.7533C47.8764 62.7533 48.0369 62.9138 48.0369 63.0743C48.1974 63.2347 48.1974 63.3952 48.1974 63.5557H47.8764C47.8764 63.3952 47.7159 63.2348 47.7159 63.2348C47.5554 63.0743 47.3949 63.0743 47.2344 63.0743C47.074 63.0743 46.9135 63.0743 46.753 63.2348C46.5925 63.3952 46.5925 63.3952 46.5925 63.5557C46.5925 63.7162 46.5925 63.7162 46.753 63.8767C46.753 63.8767 47.074 64.0372 47.2344 64.0372C47.5554 64.0372 47.7159 64.1977 47.8764 64.1977C48.0369 64.1977 48.1974 64.3582 48.1974 64.5187C48.1974 64.6792 48.3579 64.8397 48.3579 64.8397C48.3579 65.0002 48.3579 65.1607 48.1974 65.3212C48.0369 65.4817 48.0369 65.4817 47.8764 65.6422C47.7159 65.6422 47.5554 65.8026 47.3949 65.8026C47.074 65.8026 46.9135 65.8027 46.753 65.6422C46.5925 65.6422 46.432 65.4817 46.432 65.3212C46.432 64.6792 46.2715 64.5187 46.2715 64.3582Z" fill="white"/>
<path d="M49.319 62.433L48.998 62.4336L49.0027 65.162L49.3237 65.1614L49.319 62.433Z" fill="white"/>
<path d="M49.9629 63.878C49.9629 63.3966 50.1234 63.0756 50.2839 62.7546C50.6049 62.4336 50.7654 62.4336 51.2468 62.4336C51.5678 62.4336 51.7283 62.4336 51.8888 62.5941C52.0493 62.7546 52.2098 62.9151 52.3703 63.0756C52.5308 63.2361 52.5308 63.557 52.5308 63.878C52.5308 64.199 52.5308 64.3595 52.3703 64.6805C52.2098 64.841 52.0493 65.0015 51.8888 65.162C51.7283 65.3225 51.4073 65.3225 51.2468 65.3225C50.9259 65.3225 50.7654 65.3225 50.6049 65.162C50.4444 65.0015 50.2839 64.841 50.1234 64.6805C49.9629 64.3595 49.9629 64.199 49.9629 63.878ZM50.2839 63.878C50.2839 64.199 50.4444 64.52 50.6049 64.6805C50.7654 64.841 50.9259 65.0015 51.2468 65.0015C51.5678 65.0015 51.7283 64.841 51.8888 64.6805C52.0493 64.52 52.2098 64.199 52.2098 63.878C52.2098 63.7175 52.2098 63.3966 52.0493 63.2361C52.0493 63.0756 51.8888 62.9151 51.7283 62.9151C51.5678 62.7546 51.4073 62.7546 51.2468 62.7546C50.9259 62.7546 50.7654 62.9151 50.6049 63.0756C50.4444 63.2361 50.2839 63.557 50.2839 63.878Z" fill="white"/>
<path d="M53.0117 65.162V62.4336H53.3327L54.7771 64.6805V62.4336H55.0981V65.162H54.7771L53.3327 63.0756V65.162H53.0117Z" fill="white"/>
<path d="M55.5801 64.3582H55.9011C55.9011 64.5187 55.9011 64.6792 56.0616 64.6792C56.0616 64.8397 56.2221 64.8397 56.3825 64.8397C56.543 64.8397 56.7035 65.0002 56.864 65.0002C57.0245 65.0002 57.185 65.0002 57.185 65.0002C57.3455 65.0002 57.3455 64.8397 57.3455 64.8397V64.6792C57.3455 64.5187 57.3455 64.5187 57.3455 64.5187C57.3455 64.5187 57.185 64.3582 57.0245 64.3582C57.0245 64.3582 56.864 64.3582 56.543 64.1977C56.2221 64.1977 56.0616 64.0372 56.0616 64.0372C55.9011 64.0372 55.9011 63.8767 55.7406 63.7162C55.7406 63.5557 55.5801 63.5557 55.5801 63.3952C55.5801 63.2347 55.5801 63.0743 55.7406 63.0743C55.9011 63.0743 55.9011 62.9138 56.0616 62.7533C56.2221 62.7533 56.3826 62.5928 56.543 62.5928C56.7035 62.5928 56.864 62.5928 57.0245 62.7533C57.185 62.7533 57.3455 62.9138 57.3455 63.0743C57.506 63.2347 57.506 63.3952 57.506 63.5557H57.185C57.185 63.3952 57.0245 63.2348 57.0245 63.2348C56.864 63.0743 56.7035 63.0743 56.543 63.0743C56.3826 63.0743 56.2221 63.0743 56.0616 63.2348C55.9011 63.3952 55.9011 63.3952 55.9011 63.5557C55.9011 63.7162 55.9011 63.7162 56.0616 63.8767C56.0616 63.8767 56.3826 64.0372 56.543 64.0372C56.864 64.0372 57.0245 64.1977 57.185 64.1977C57.3455 64.1977 57.506 64.3582 57.506 64.5187C57.506 64.6792 57.6665 64.8397 57.6665 64.8397C57.6665 65.0002 57.6665 65.1607 57.506 65.3212C57.3455 65.4817 57.3455 65.4817 57.185 65.6422C57.0245 65.6422 56.864 65.8026 56.7035 65.8026C56.3825 65.8026 56.2221 65.8027 56.0616 65.6422C55.9011 65.6422 55.7406 65.4817 55.7406 65.3212C55.7406 64.6792 55.5801 64.5187 55.5801 64.3582Z" fill="white"/>
<path d="M8.55645 67.5664H8.87743V69.1713C8.87743 69.4923 8.87743 69.6528 8.71694 69.8133C8.71694 69.9738 8.55645 70.1343 8.39595 70.1343C8.23546 70.2948 8.07497 70.2948 7.75398 70.2948C7.43299 70.2948 7.2725 70.2948 7.112 70.1343C7.112 70.1343 6.95151 69.9738 6.95151 69.8133C6.95151 69.6528 6.79102 69.4923 6.79102 69.1713V67.5664H7.112V69.1713C7.112 69.3318 7.112 69.6528 7.112 69.6528C7.112 69.8133 7.2725 69.8133 7.2725 69.9738C7.43299 69.9738 7.43299 70.1343 7.59348 70.1343C7.91447 70.1343 8.07497 70.1343 8.23546 69.9738C8.55645 69.6528 8.55645 69.4923 8.55645 69.1713V67.5664Z" fill="white"/>
<path d="M9.51953 70.2948V67.5664H10.001V69.9738H11.285V70.2948H9.51953Z" fill="white"/>
<path d="M12.0866 69.8149L11.7656 69.8154L11.7662 70.1364L12.0872 70.1359L12.0866 69.8149Z" fill="white"/>
<path d="M14.6548 69.3332L14.9758 69.4936C14.9758 69.8146 14.8153 69.9751 14.4943 70.1356C14.3338 70.2961 14.0128 70.2961 13.8523 70.2961C13.5313 70.2961 13.3708 70.2961 13.2103 70.1356C13.0498 69.9751 12.8893 69.8146 12.7289 69.6541C12.5684 69.4936 12.5684 69.1727 12.5684 68.8517C12.5684 68.5307 12.5684 68.3702 12.7289 68.0492C12.8893 67.8887 13.0498 67.7282 13.2103 67.5677C13.3708 67.4072 13.6918 67.4072 13.8523 67.4072C14.1733 67.4072 14.3338 67.4072 14.4943 67.5677C14.8153 67.8887 14.9758 68.0492 14.9758 68.2097L14.6548 68.3702C14.6548 68.2097 14.4943 68.0492 14.3338 67.8887C14.1733 67.7282 14.0128 67.7282 13.8523 67.7282C13.6918 67.7282 13.5313 67.7282 13.3708 67.8887C13.2103 68.0492 13.2103 68.0492 13.0498 68.3702C13.0498 68.5307 12.8893 68.6912 12.8893 68.8517C12.8893 69.0122 12.8893 69.3332 13.0498 69.4936C13.0498 69.6541 13.2103 69.8146 13.3708 69.8146C13.5313 69.9751 13.6918 69.9751 13.8523 69.9751C14.0128 69.9751 14.1733 69.9751 14.3338 69.8146C14.4943 69.6541 14.6548 69.4936 14.6548 69.3332Z" fill="white"/>
<path d="M15.457 69.0109C15.457 68.5294 15.6175 68.2084 15.778 67.8874C16.099 67.5664 16.2595 67.5664 16.741 67.5664C17.062 67.5664 17.2225 67.5664 17.383 67.7269C17.5435 67.8874 17.7039 68.0479 17.8644 68.2084C18.0249 68.3689 18.0249 68.6899 18.0249 69.0109C18.0249 69.3318 18.0249 69.4923 17.8644 69.8133C17.7039 69.9738 17.5435 70.1343 17.383 70.2948C17.2225 70.4553 16.9015 70.4553 16.741 70.4553C16.42 70.4553 16.2595 70.4553 16.099 70.2948C15.9385 70.1343 15.778 69.9738 15.6175 69.8133C15.457 69.3318 15.457 69.1713 15.457 69.0109ZM15.778 69.0109C15.778 69.3318 15.9385 69.6528 16.099 69.8133C16.2595 69.9738 16.42 70.1343 16.741 70.1343C17.062 70.1343 17.2225 69.9738 17.383 69.8133C17.5435 69.6528 17.7039 69.3318 17.7039 69.0109C17.7039 68.8504 17.7039 68.5294 17.5435 68.3689C17.5435 68.2084 17.383 68.0479 17.2225 68.0479C17.062 67.8874 16.9015 67.8874 16.741 67.8874C16.42 67.8874 16.2595 68.0479 16.099 68.2084C15.778 68.2084 15.778 68.5294 15.778 69.0109Z" fill="white"/>
<path d="M18.5059 70.2948V67.5664H18.9873L19.6293 69.4923C19.6293 69.6528 19.7898 69.8133 19.7898 69.9738C19.7898 69.8133 19.7898 69.6528 19.9503 69.4923L20.5923 67.5664H21.0738V70.2948H20.7528V68.0479L19.9503 70.2948H19.6293L18.8268 67.8874V70.2948H18.5059Z" fill="white"/>
<path d="M21.3945 70.2961L22.197 67.4072H22.3575L21.555 70.2961H21.3945Z" fill="white"/>
<path d="M28.1363 69.1713V69.9738C27.9758 70.1343 27.8153 70.2948 27.6548 70.2948C27.4943 70.2948 27.3338 70.4553 27.0128 70.4553C26.6918 70.4553 26.5313 70.4553 26.2103 70.2948C26.0498 70.1343 25.8893 69.9738 25.7289 69.8133C25.5684 69.6528 25.5684 69.3318 25.5684 69.0109C25.5684 68.6899 25.5684 68.5294 25.7289 68.2084C25.8893 68.0479 26.0498 67.7269 26.2103 67.7269C26.3708 67.5664 26.6918 67.5664 26.8523 67.5664C27.0128 67.5664 27.1733 67.5664 27.3338 67.7269C27.4943 67.7269 27.6548 67.8874 27.6548 68.0479C27.8153 68.2084 27.8153 68.3689 27.8153 68.5294L27.4943 68.6899C27.4943 68.5294 27.3338 68.3689 27.3338 68.3689C27.3338 68.3689 27.1733 68.2084 27.0128 68.2084C26.8523 68.2084 26.8523 68.2084 26.6918 68.2084C26.5313 68.2084 26.3708 68.2084 26.2103 68.2084C26.0498 68.2084 26.0498 68.3689 25.8893 68.3689C25.8893 68.5294 25.7289 68.5294 25.7289 68.6899C25.7289 68.8504 25.5684 69.0109 25.5684 69.1713C25.5684 69.4923 25.5684 69.6528 25.7289 69.8133C25.8893 69.9738 25.8893 70.1343 26.0498 70.1343C26.2103 70.1343 26.3708 70.2948 26.5313 70.2948C26.6918 70.2948 26.8523 70.2948 27.0128 70.1343C27.1733 70.1343 27.3338 69.9738 27.3338 69.9738V69.3318L28.1363 69.1713Z" fill="white"/>
<path d="M25.0874 69.1713V69.9738C24.9269 70.1343 24.7664 70.2948 24.606 70.2948C24.4455 70.2948 24.285 70.4553 23.964 70.4553C23.643 70.4553 23.4825 70.4553 23.1615 70.2948C23.001 70.1343 22.8405 69.9738 22.68 69.8133C22.5195 69.6528 22.5195 69.3318 22.5195 69.0109C22.5195 68.6899 22.5195 68.5294 22.68 68.2084C22.8405 68.0479 23.001 67.7269 23.1615 67.7269C23.322 67.5664 23.643 67.5664 23.8035 67.5664C23.964 67.5664 24.1245 67.5664 24.285 67.7269C24.4455 67.7269 24.606 67.8874 24.606 68.0479C24.7664 68.2084 24.7664 68.3689 24.7664 68.5294L24.4455 68.6899C24.4455 68.5294 24.285 68.3689 24.285 68.3689C24.285 68.3689 24.1245 68.2084 23.964 68.2084C23.8035 68.2084 23.8035 68.2084 23.643 68.2084C23.4825 68.2084 23.322 68.2084 23.1615 68.2084C23.001 68.2084 23.001 68.3689 22.8405 68.3689C22.8405 68.5294 22.68 68.5294 22.68 68.6899C22.68 68.8504 22.5195 69.0109 22.5195 69.1713C22.5195 69.4923 22.5195 69.6528 22.68 69.8133C22.8405 69.9738 22.8405 70.1343 23.001 70.1343C23.1615 70.1343 23.322 70.2948 23.4825 70.2948C23.643 70.2948 23.8035 70.2948 23.964 70.1343C24.1245 70.1343 24.285 69.9738 24.285 69.9738V69.3318L25.0874 69.1713Z" fill="white"/>
<path d="M8.55645 73.1846H8.87743V74.7895C8.87743 75.1105 8.87743 75.271 8.71694 75.4315C8.71694 75.592 8.55645 75.7525 8.39595 75.7525C8.23546 75.913 8.07497 75.913 7.75398 75.913C7.43299 75.913 7.2725 75.913 7.112 75.7525C7.112 75.7525 6.95151 75.592 6.95151 75.4315C6.95151 75.271 6.79102 75.1105 6.79102 74.7895V73.1846H7.112V74.7895C7.112 74.95 7.112 75.271 7.112 75.271C7.112 75.4315 7.2725 75.4315 7.2725 75.592C7.43299 75.592 7.43299 75.7525 7.59348 75.7525C7.91447 75.7525 8.07497 75.7525 8.23546 75.592C8.55645 75.271 8.55645 75.1105 8.55645 74.7895V73.1846Z" fill="white"/>
<path d="M9.51953 75.913V73.1846H10.001V75.592H11.285V75.913H9.51953Z" fill="white"/>
<path d="M14.1736 75.592V75.913H12.4082C12.4082 75.7525 12.4082 75.7525 12.4082 75.7525C12.4082 75.592 12.5687 75.4315 12.5687 75.4315C12.7292 75.271 12.8897 75.1105 13.0502 74.95C13.3712 74.629 13.5317 74.4685 13.6922 74.308C13.8526 74.1475 13.8526 73.987 13.8526 73.8265C13.8526 73.6661 13.8526 73.5056 13.6922 73.5056C13.5317 73.3451 13.5317 73.3451 13.3712 73.3451C13.2107 73.3451 13.0502 73.3451 13.0502 73.5056C12.8897 73.6661 12.8897 73.6661 12.8897 73.987H12.5687C12.5687 73.6661 12.7292 73.5056 12.8897 73.3451C13.0502 73.1846 13.2107 73.1846 13.5317 73.1846C13.8526 73.1846 14.0131 73.1846 14.1736 73.3451C14.3341 73.5056 14.3341 73.6661 14.3341 73.8265C14.3341 73.987 14.3341 73.987 14.3341 74.1475C14.3341 74.308 14.1736 74.308 14.1736 74.4685C14.0131 74.629 13.8526 74.7895 13.6922 74.95C13.5317 75.1105 13.3712 75.271 13.3712 75.271L13.2107 75.4315L14.1736 75.592Z" fill="white"/>
<path d="M15.1365 74.4682C14.976 74.4682 14.8155 74.3077 14.8155 74.3077C14.8155 74.1472 14.655 74.1472 14.655 73.9867C14.655 73.8262 14.655 73.6657 14.8155 73.5052C14.976 73.3447 15.1365 73.3447 15.4574 73.3447C15.6179 73.3447 15.9389 73.3447 16.0994 73.5052C16.2599 73.6657 16.2599 73.8262 16.2599 73.9867C16.2599 74.1472 16.2599 74.1472 16.0994 74.3077C16.0994 74.4682 15.9389 74.4682 15.7784 74.4682C15.9389 74.4682 16.0994 74.6287 16.0994 74.7892C16.2599 74.9497 16.2599 75.1102 16.2599 75.2707C16.2599 75.4311 16.0994 75.7521 15.9389 75.9126C15.7784 76.0731 15.6179 76.0731 15.2969 76.0731C14.976 76.0731 14.8155 76.0731 14.655 75.9126C14.4945 75.7521 14.334 75.5916 14.334 75.2707C14.334 75.1102 14.334 74.9497 14.4945 74.7892C14.8155 74.4682 14.976 74.4682 15.1365 74.4682ZM14.976 75.1102C14.976 75.2706 14.976 75.2707 14.976 75.4311C14.976 75.5916 15.1365 75.5916 15.1365 75.5916C15.2969 75.5916 15.2969 75.5916 15.4574 75.5916C15.6179 75.5916 15.7784 75.5916 15.7784 75.4311C15.9389 75.2707 15.9389 75.2706 15.9389 75.1102C15.9389 74.9497 15.9389 74.7892 15.7784 74.6287C15.6179 74.4682 15.4574 74.4682 15.2969 74.4682C15.1365 74.4682 14.976 74.4682 14.976 74.6287C14.976 74.7892 14.976 74.9497 14.976 75.1102ZM14.976 73.8262C14.976 73.9867 14.976 73.9867 15.1365 74.1472C15.2969 74.3077 15.2969 74.3077 15.4574 74.3077C15.6179 74.3077 15.6179 74.3077 15.7784 74.1472C15.9389 73.9867 15.9389 73.9867 15.9389 73.8262C15.9389 73.6657 15.9389 73.6657 15.7784 73.5052C15.6179 73.3447 15.6179 73.3447 15.4574 73.3447C15.2969 73.3447 15.2969 73.3447 15.1365 73.5052C15.1365 73.6657 14.976 73.6657 14.976 73.8262Z" fill="white"/>
<path d="M18.0255 75.913H17.7045V73.8265C17.544 73.8265 17.544 73.987 17.3835 73.987C17.223 73.987 17.0625 74.1475 17.0625 74.1475V73.8265C17.223 73.6661 17.3835 73.6661 17.544 73.5056C17.7045 73.3451 17.7045 73.1846 17.865 73.1846H18.0255V75.913Z" fill="white"/>
<path d="M19.3083 74.308C19.1478 74.308 18.9873 74.1475 18.9873 74.1475C18.9873 73.987 18.8268 73.987 18.8268 73.8265C18.8268 73.6661 18.8268 73.5056 18.9873 73.3451C19.1478 73.1846 19.3083 73.1846 19.6293 73.1846C19.7898 73.1846 20.1108 73.1846 20.2713 73.3451C20.4318 73.5056 20.4318 73.6661 20.4318 73.8265C20.4318 73.987 20.4318 73.987 20.2713 74.1475C20.2713 74.308 20.1108 74.308 19.9503 74.308C20.1108 74.308 20.2713 74.4685 20.2713 74.629C20.4318 74.7895 20.4318 74.95 20.4318 75.1105C20.4318 75.271 20.2713 75.592 20.1108 75.7525C19.9503 75.913 19.7898 75.913 19.4688 75.913C19.1478 75.913 18.9873 75.913 18.8268 75.7525C18.6664 75.592 18.5059 75.4315 18.5059 75.1105C18.5059 74.95 18.5059 74.7895 18.6664 74.629C18.9873 74.4685 19.1478 74.4685 19.3083 74.308ZM19.1478 75.1105C19.1478 75.271 19.1478 75.271 19.1478 75.4315C19.1478 75.592 19.3083 75.592 19.3083 75.592C19.4688 75.592 19.4688 75.592 19.6293 75.592C19.7898 75.592 19.9503 75.592 19.9503 75.4315C20.1108 75.271 20.1108 75.271 20.1108 75.1105C20.1108 74.95 20.1108 74.7895 19.9503 74.629C19.7898 74.4685 19.6293 74.4685 19.4688 74.4685C19.3083 74.4685 19.1478 74.4685 19.1478 74.629C19.3083 74.7895 19.1478 74.95 19.1478 75.1105ZM19.3083 73.8265C19.3083 73.987 19.3083 73.987 19.4688 74.1475C19.6293 74.308 19.6293 74.308 19.7898 74.308C19.9503 74.308 19.9503 74.308 20.1108 74.1475C20.2713 73.987 20.2713 73.987 20.2713 73.8265C20.2713 73.6661 20.2713 73.6661 20.1108 73.5056C19.9503 73.3451 19.9503 73.3451 19.7898 73.3451C19.6293 73.3451 19.6293 73.3451 19.4688 73.5056C19.3083 73.6661 19.3083 73.6661 19.3083 73.8265Z" fill="white"/>
<path d="M64.7294 52.9122L4.86523 53.0137L4.86632 53.6556L64.7305 53.5542L64.7294 52.9122Z" fill="white"/>
</g>
<defs>
<clipPath id="clip0">
<rect width="68.2099" height="91" fill="white" transform="translate(0.53125)"/>
</clipPath>
</defs>
</svg>
