<svg width="125" height="63" viewBox="0 0 125 63" fill="none" xmlns="http://www.w3.org/2000/svg">
<g clip-path="url(#clip0)">
<path d="M113.728 43.4569C112.283 44.9014 110.197 45.8644 107.95 45.8644C103.456 45.8644 99.9252 42.494 99.9252 38.3211C99.9252 34.1483 103.456 30.7779 107.95 30.7779C110.036 30.7779 111.962 31.5804 113.407 32.8644L123.999 20.1853C119.505 16.494 113.567 14.2471 107.147 14.2471C93.024 14.2471 81.6289 25.0002 81.6289 38.3211C81.6289 51.6421 93.024 62.3952 107.147 62.2347C113.728 62.2347 119.666 59.8273 124.16 56.136L113.728 43.4569Z" fill="#555555"/>
<path d="M80.1854 30.6178C82.7533 19.3832 93.5063 14.2474 93.5063 14.2474H65.7409V0.605469H48.4076V14.2474H25.9384C11.815 14.4079 0.419922 25.161 0.419922 38.482C0.419922 51.803 11.815 62.5561 25.9384 62.3956C32.5187 62.3956 38.457 59.9882 42.9508 56.2968L32.5187 43.6178C31.0742 45.0623 28.9878 46.0252 26.7409 46.0252C22.2471 46.0252 18.7162 42.6549 18.7162 38.482C18.7162 34.3092 22.2471 30.9388 26.7409 30.9388L48.5681 30.7783V46.6672C48.5681 56.6178 58.0372 62.2351 67.3459 62.2351C76.6545 62.2351 81.3088 58.7042 81.3088 58.7042L74.4076 46.9882C72.1607 49.0746 70.2347 48.7536 70.2347 48.7536C66.5434 48.7536 65.7409 45.0623 65.7409 45.0623V30.7783L80.1854 30.6178Z" fill="#555555"/>
</g>
<defs>
<clipPath id="clip0">
<rect width="123.901" height="61.7901" fill="white" transform="translate(0.419922 0.605469)"/>
</clipPath>
</defs>
</svg>
