<svg width="167" height="78" viewBox="0 0 167 78" fill="none" xmlns="http://www.w3.org/2000/svg">
<g clip-path="url(#clip0)">
<path d="M43.2589 65.0024C35.3947 62.595 33.9503 56.0148 34.2713 48.6321H45.5058C45.5058 53.7679 45.6663 57.9407 51.9256 57.9407C55.7774 57.9407 57.5429 55.5333 57.5429 51.8419C57.5429 42.2123 34.9132 41.7308 34.7527 25.8419C34.7527 17.4963 38.7651 10.916 52.4071 10.916C63.3206 10.916 68.7774 15.7308 68.1354 26.8049H57.2219C57.2219 22.7926 56.5799 18.7802 51.9256 18.7802C48.2342 18.7802 46.1478 20.7061 46.1478 24.3975C46.1478 34.5086 68.7774 33.5456 68.9379 50.237C68.9379 59.3852 64.4441 63.237 58.8268 64.6814L43.2589 65.0024Z" fill="#555555"/>
<path d="M96.5429 28.0882C96.5429 23.1129 95.7404 18.7796 89.8022 18.7796C82.7404 18.7796 82.7404 28.0882 82.9009 38.5203C82.9009 55.2117 84.5059 58.1006 90.9256 58.1006C92.8515 58.1006 94.7775 57.6191 96.5429 56.9771V45.2611H90.4441V37.0759H107.777V64.0388C106.654 64.1993 104.728 64.5203 102.642 64.8413H83.3824C72.9503 62.2734 71.5059 54.0882 71.5059 37.8783C71.5059 24.3969 72.1478 10.7549 90.6046 10.7549C101.679 10.7549 108.58 16.8536 107.938 27.9277L96.5429 28.0882Z" fill="#555555"/>
<path d="M128.962 10.916C138.752 10.916 144.209 14.6074 145.011 23.274V26.9654H134.098C134.098 23.1135 133.135 18.9407 128.641 18.9407C124.95 18.9407 122.863 20.8666 122.863 24.558C122.863 33.8666 142.283 33.8666 145.172 47.0271V54.7308C144.048 60.9901 140.036 63.7185 135.382 65.0024H119.653C111.789 62.595 110.345 56.0148 110.666 48.6321H121.9C121.9 53.7679 122.221 57.9407 128.32 57.9407C132.172 57.9407 133.937 55.5333 133.937 51.8419C133.937 42.2123 111.308 41.7308 111.147 25.8419C111.147 17.4963 115.16 10.916 128.962 10.916Z" fill="#555555"/>
<path d="M166.998 64.8615L0.566406 65.1436L0.569399 66.909L167.001 66.6269L166.998 64.8615Z" fill="#555555"/>
<path d="M146.713 -6.25745e-05L144.947 0.00292969L145.079 77.6819L146.844 77.6789L146.713 -6.25745e-05Z" fill="#555555"/>
</g>
<defs>
<clipPath id="clip0">
<rect width="166.432" height="77.8395" fill="white" transform="translate(0.568359)"/>
</clipPath>
</defs>
</svg>
