<svg width="64" height="64" viewBox="0 0 64 64" fill="none" xmlns="http://www.w3.org/2000/svg">
<g clip-path="url(#clip0)">
<path d="M44.6168 27.7797H35.7897V22.002H27.765V27.9402H18.7773V34.5205H27.765V40.2983H35.7897V34.5205L44.6168 34.36V27.7797Z" fill="#555555"/>
<path d="M7.54352 27.1362L6.42007 26.9757L6.58056 26.0127H6.74105H6.90155V25.8522L5.4571 25.5312L5.29661 26.6547L4.65463 26.4942H4.49414V26.6547L5.13612 26.8152L4.81513 27.7782L5.77809 28.0992V28.2596C5.77809 28.2596 5.77809 28.2596 5.93859 28.2596H6.09908H6.25957V28.0992H6.09908L6.25957 27.1362L7.38303 27.4572C7.54352 27.4572 7.54352 27.2967 7.54352 27.1362C7.54352 27.2967 7.54352 27.1362 7.54352 27.1362ZM5.4571 25.6917L6.42007 26.0127L6.25957 26.9757L5.29661 26.8152L5.4571 25.6917ZM5.93859 27.9387L4.97562 27.7782L5.13612 26.8152L6.09908 26.9757L5.93859 27.9387Z" fill="#555555"/>
<path d="M4.97461 23.925L7.54251 25.0484L8.50547 22.641L6.09807 21.5176L4.97461 23.925ZM8.34498 22.641L7.54251 24.7275L5.2956 23.7645L6.09807 21.6781L8.34498 22.641Z" fill="#555555"/>
<path d="M5.77734 23.7674C5.93784 23.7674 5.93784 23.7674 5.77734 23.7674L6.25883 23.1254L6.57981 23.2859L6.41932 23.9279V24.0884C6.41932 24.0884 6.41932 24.0884 6.57981 24.0884L6.9008 23.4464L7.54278 23.7674L7.22179 24.4094V24.5699C7.22179 24.5699 7.22179 24.5699 7.38228 24.5699L7.70327 23.9279C7.70327 23.9279 7.70327 23.9279 7.86376 23.9279V23.7674L8.02426 22.8044V22.6439H7.86376L7.54278 23.2859L6.9008 23.1254L7.22179 22.4834V22.3229H7.06129L6.74031 22.9649L6.41932 22.8044L6.74031 22.1624V22.002H6.57981L5.77734 23.7674C5.77734 23.6069 5.77734 23.7674 5.77734 23.7674Z" fill="#555555"/>
<path d="M9.30874 18.6303L7.86429 17.9883L7.38281 19.1117L8.82726 19.9142L9.30874 18.6303ZM7.54331 19.1117L8.02479 18.3093L9.14824 18.7908L8.82726 19.5932L7.54331 19.1117Z" fill="#555555"/>
<path d="M9.30893 19.5947C9.30893 19.5947 9.14844 19.5947 9.30893 19.5947C9.14844 19.5947 9.14844 19.5947 9.14844 19.7552L9.46943 20.7182C9.46943 20.7182 9.46943 20.7182 9.62992 20.7182V20.5577L9.30893 19.5947Z" fill="#555555"/>
<path d="M10.4321 19.1104H9.46909C9.46909 19.1104 9.30859 19.1104 9.30859 19.2708C9.30859 19.2708 9.30859 19.4313 9.46909 19.4313H10.4321C10.4321 19.2708 10.4321 19.2708 10.4321 19.1104Z" fill="#555555"/>
<path d="M9.62912 20.8758L9.14764 20.5548V20.3943V20.2338H8.98715V20.3943L8.50567 20.0733C8.50567 20.0733 8.50567 20.0733 8.34517 20.0733L7.22172 19.4313V19.2708V19.1104H7.06122V19.2708C7.06122 19.2708 7.06122 19.2708 6.90073 19.2708V19.4313L6.74023 20.0733L8.02419 21.0363L8.66616 21.3573V21.5178V21.6783C8.66616 21.6783 8.66616 21.6783 8.82665 21.6783L9.14764 21.0363L9.62912 21.3573C9.62912 21.0363 9.62912 21.0363 9.62912 20.8758ZM7.5427 20.5548L7.86369 20.0733L8.34517 20.2338L8.02419 20.7153L7.5427 20.5548ZM7.7032 19.9128L7.38221 20.3943L6.90073 20.2338L7.06122 19.7523L7.7032 19.9128ZM8.66616 21.0363L8.18468 20.7153L8.34517 20.2338L8.82665 20.5548L8.66616 21.0363Z" fill="#555555"/>
<path d="M10.2722 17.5049C10.4327 17.5049 10.4327 17.3444 10.2722 17.5049C10.4327 17.3444 10.4327 17.3444 10.2722 17.3444L9.14877 17.0234H8.98828V17.1839L10.2722 17.5049Z" fill="#555555"/>
<path d="M11.2354 16.0629C11.2354 16.0629 11.3959 16.0629 11.2354 16.0629C11.3959 16.0629 11.3959 16.0629 11.2354 16.0629C11.3959 16.0629 11.3959 16.0629 11.3959 15.9024L10.9144 14.9395H10.7539V15.0999L11.2354 16.0629Z" fill="#555555"/>
<path d="M12.5191 15.9011L11.8772 16.7036L9.63026 15.0986H9.46976V15.2591L11.7167 17.0246L11.3957 17.3455L9.14877 15.7406H8.98828V15.9011L11.2352 17.506L10.7537 18.3085V18.469C10.7537 18.469 10.7537 18.469 10.9142 18.469L12.6796 16.0616C12.6796 16.0616 12.6796 15.9011 12.5191 15.9011Z" fill="#555555"/>
<path d="M11.3945 13.6551C11.3945 13.8156 11.3945 13.8156 11.3945 13.6551C11.3945 13.8156 11.3945 13.8156 11.3945 13.6551C11.3945 13.8156 11.3945 13.8156 11.3945 13.6551C11.3945 13.8156 11.3945 13.8156 11.3945 13.6551L11.7155 13.9761V13.8156V13.6551L13.3205 12.0501L13.481 12.3711C13.481 12.3711 13.481 12.3711 13.6414 12.3711V12.2106L13.3205 11.8896L12.3575 12.6921L12.197 12.3711H12.0365V12.5316L12.197 13.0131L11.3945 13.6551Z" fill="#555555"/>
<path d="M14.7655 13.656L13.8025 13.977V12.8536L14.1235 12.5326V12.3721H13.963L12.8396 13.656L12.6791 13.335H12.5186C12.5186 13.335 12.3581 13.4955 12.5186 13.4955L12.6791 13.977L12.0371 14.4585V14.619L12.5186 14.1375L12.8396 14.619L13.4816 14.298V14.619L13.0001 15.4215V15.5819C13.0001 15.5819 13.0001 15.5819 13.1606 15.5819L13.8025 14.7795V14.4585L14.7655 13.977C14.926 13.8165 14.926 13.656 14.7655 13.656C14.926 13.656 14.926 13.656 14.7655 13.656ZM13.0001 14.298L12.8396 13.977L13.642 13.1745V14.1375L13.0001 14.298Z" fill="#555555"/>
<path d="M17.4947 11.086L16.5317 11.8885L16.2107 11.407L17.0132 10.7651V10.6046H16.8527L16.2107 11.2465L15.8898 10.7651L16.8527 9.96259L15.0873 9.6416L14.4453 11.5675L15.4083 10.9256L16.0503 11.407L15.2478 11.8885V12.049C15.2478 12.049 15.2478 12.049 15.4083 12.049L16.0503 11.5675L16.3712 12.049L15.4083 12.691V12.8515C15.4083 12.8515 15.4083 12.8515 15.5688 12.8515L16.5317 12.2095C16.5317 12.2095 16.5317 12.2095 16.6922 12.2095V12.049L17.6552 11.2465C17.6552 11.2465 17.6552 11.2465 17.4947 11.086C17.6552 11.086 17.4947 11.086 17.4947 11.086ZM15.5688 10.6046C15.5688 10.6046 15.5688 10.7651 15.5688 10.6046L14.7663 11.2465L15.0873 9.8021L16.5317 9.96259L15.5688 10.6046C15.7293 10.6046 15.5688 10.6046 15.5688 10.6046Z" fill="#555555"/>
<path d="M20.8636 9.16256L19.4191 9.96502L18.4562 8.0391L19.2586 7.55762L19.7401 8.84157L19.4191 9.16256V9.32305L19.7401 9.00206L19.0981 7.55762L17.9747 8.0391L17.0117 8.52058V8.68107C17.0117 8.68107 17.0117 8.68107 17.1722 8.68107L17.9747 8.19959L19.2586 10.1255L18.2957 10.607V10.7675C18.2957 10.7675 18.2957 10.7675 18.4562 10.7675L19.4191 10.286L20.8636 9.48354C21.0241 9.32305 21.0241 9.16256 20.8636 9.16256C21.0241 9.16256 21.0241 9.16256 20.8636 9.16256Z" fill="#555555"/>
<path d="M24.3954 7.87748L23.1115 8.35896L22.7905 7.55649L23.593 7.2355C23.593 7.2355 23.7534 7.2355 23.593 7.07501C23.593 7.07501 23.593 6.91451 23.4325 7.07501L22.63 7.396L22.4695 6.59353L23.593 6.27254C23.593 6.27254 23.7534 6.27254 23.593 6.11204C23.593 6.11204 23.593 5.95155 23.4325 6.11204L22.4695 6.43303L22.309 5.79106C22.309 5.79106 22.309 5.63056 22.1485 5.79106C22.1485 5.79106 21.988 5.79106 22.1485 5.95155L22.309 6.59353L21.5065 6.91451V6.43303C21.5065 6.43303 21.5065 6.27254 21.346 6.27254C21.346 6.27254 21.1855 6.27254 21.1855 6.43303V7.07501V7.71698C21.1855 7.71698 21.1855 7.87748 21.346 7.87748C21.346 7.87748 21.5065 7.87748 21.5065 7.71698V7.07501L22.4695 6.75402L22.7905 7.396L21.988 7.71698C21.988 7.71698 21.8275 7.71698 21.988 7.87748C21.988 7.87748 21.988 7.87748 22.1485 7.87748L22.951 7.55649L23.272 8.35896L21.988 8.84044C21.988 8.84044 21.8275 9.00093 21.988 9.00093C21.988 9.00093 21.988 9.00093 22.1485 9.00093L23.4325 8.51945C23.4325 8.51945 23.4325 8.51945 23.593 8.51945C23.593 8.51945 23.593 8.51945 23.593 8.35896L24.8769 7.87748C24.5559 8.03797 24.5559 7.87748 24.3954 7.87748C24.5559 7.87748 24.3954 7.71698 24.3954 7.87748Z" fill="#555555"/>
<path d="M25.6798 5.62962C25.8403 5.62962 25.8403 5.62962 25.6798 5.62962C25.8403 5.62962 25.8403 5.62962 25.8403 5.46912L25.6798 5.14814H26.1612C26.1612 5.14814 26.3217 5.14814 26.3217 4.98764C26.3217 4.98764 26.3217 4.82715 26.1612 4.82715L25.5193 4.98764L25.3588 4.82715L24.7168 5.62962V5.79011C24.7168 5.79011 24.7168 5.79011 24.8773 5.79011L25.3588 5.14814L25.6798 5.62962Z" fill="#555555"/>
<path d="M26.3213 5.14753C26.3213 5.14753 26.1608 5.14753 26.3213 5.14753C26.1608 5.30803 26.3213 5.30803 26.3213 5.30803H26.6423C26.6423 5.30803 26.8028 5.30803 26.8028 5.14753V4.98704H26.9633V5.14753C26.9633 5.14753 26.9633 5.30803 27.1238 5.30803L27.2843 5.46852C27.2843 5.46852 27.4448 5.46852 27.4448 5.30803C27.4448 5.14753 27.4448 5.14753 27.2843 5.14753H27.1238V4.82655L27.6053 4.66605C27.6053 4.66605 27.7658 4.66605 27.6053 4.50556C27.6053 4.50556 27.6053 4.34506 27.4448 4.50556L26.9633 4.66605H26.6423V4.34506C26.6423 4.34506 26.6423 4.18457 26.4818 4.18457C26.4818 4.18457 26.3213 4.18457 26.3213 4.34506V4.98704V5.14753Z" fill="#555555"/>
<path d="M27.7658 5.95087L27.6053 5.79038L26.3214 5.95087V5.79038C26.3214 5.79038 26.3214 5.62988 26.1609 5.62988C26.1609 5.62988 26.0004 5.62988 26.0004 5.79038V5.95087L24.877 6.11136V6.59285C24.877 6.59285 24.877 6.75334 25.0374 6.75334C25.0374 6.75334 25.1979 6.75334 25.1979 6.59285V6.11136L27.4449 5.79038V5.95087C27.4449 5.95087 27.4449 6.11136 27.6053 6.11136H27.9263C27.9263 6.11136 27.9263 6.11136 27.7658 5.95087C27.9263 5.95087 27.9263 5.95087 27.7658 5.95087Z" fill="#555555"/>
<path d="M27.6056 7.23445V6.91346L26.0007 7.23445V7.07395L27.2846 6.91346V6.43198L25.6797 6.75297V7.55544C25.6797 7.55544 25.6797 7.71593 25.8402 7.71593C25.8402 7.71593 25.8402 7.71593 26.0007 7.71593V8.3579C26.0007 8.3579 26.0007 8.5184 26.1612 8.5184C26.1612 8.5184 26.3217 8.5184 26.3217 8.3579L27.2846 7.55544C27.2846 7.55544 27.2846 7.71593 27.4451 7.71593C27.4451 7.71593 27.6056 7.71593 27.6056 7.55544V7.39494C27.6056 7.39494 27.6056 7.39494 27.6056 7.23445ZM27.1241 6.59247L25.8402 6.75297V6.43198L27.2846 6.27148L27.1241 6.59247ZM25.8402 7.71593V7.39494L27.2846 7.07395V7.39494L25.8402 7.71593Z" fill="#555555"/>
<path d="M31.6177 6.91297H30.8153V6.43148H31.6177C31.6177 6.43148 31.7782 6.43148 31.7782 6.27099C31.7782 6.27099 31.7782 6.1105 31.6177 6.1105H30.8153V5.62901H31.4573V4.34506C31.4573 4.34506 31.4572 4.18457 31.2968 4.18457H29.8523C29.8523 4.18457 29.6918 4.18457 29.6918 4.34506V5.62901C29.6918 5.62901 29.6918 5.62901 29.6918 5.78951V5.95C29.6918 5.95 29.6918 6.1105 29.8523 6.1105C29.8523 6.1105 30.0128 6.1105 30.0128 5.95H30.6548V6.43148L29.3708 6.75247V5.95H29.6918C29.6918 5.95 29.8523 5.95 29.8523 5.78951C29.8523 5.78951 29.8523 5.62901 29.6918 5.62901H29.3708V4.98704H29.6918C29.6918 4.98704 29.8523 4.98704 29.8523 4.82655C29.8523 4.82655 29.8523 4.66605 29.6918 4.66605H29.2103H28.7289C28.7289 4.66605 28.5684 4.66605 28.5684 4.82655C28.5684 4.82655 28.5684 4.98704 28.7289 4.98704H29.2103V5.78951H28.7289C28.7289 5.78951 28.5684 5.78951 28.5684 5.95C28.5684 5.95 28.5684 6.1105 28.7289 6.1105H29.2103V7.07346L28.8893 7.23395C28.8893 7.23395 28.7289 7.23395 28.8893 7.39445C28.8893 7.39445 28.8893 7.55494 29.0498 7.55494L29.3708 7.39445L30.6548 7.07346V7.55494H29.8523C29.8523 7.55494 29.6918 7.55494 29.6918 7.71543C29.6918 7.71543 29.6918 7.87593 29.8523 7.87593H30.6548H31.6177C31.7782 7.07346 31.7782 7.07346 31.6177 6.91297C31.7782 6.91297 31.7782 6.91297 31.6177 6.91297ZM30.8153 4.50556H31.2968V4.98704H30.8153V4.50556ZM30.6548 4.98704H30.0128V4.50556H30.6548V4.98704ZM31.2968 5.14753V5.62901H30.8153V5.14753H31.2968ZM30.0128 5.62901V5.14753H30.6548V5.62901H30.0128Z" fill="#555555"/>
<path d="M33.5434 4.18393C33.5434 4.02344 33.5434 4.02344 33.5434 4.18393C33.5434 4.02344 33.3829 4.02344 33.3829 4.02344L32.4199 5.46788V5.62838C32.4199 5.62838 32.4199 5.62838 32.5804 5.62838L32.9014 5.30739L32.7409 7.07282C32.7409 7.07282 32.7409 7.23331 32.9014 7.23331C32.9014 7.23331 33.0619 7.23331 33.0619 7.07282L33.2224 4.66541L33.5434 4.18393Z" fill="#555555"/>
<path d="M35.4699 4.82722H34.5069V4.02475C34.5069 4.02475 34.5069 3.86426 34.3464 3.86426C34.3464 3.86426 34.186 3.86426 34.186 4.02475V4.66673H33.3835C33.3835 4.66673 33.223 4.66673 33.223 4.82722C33.223 4.82722 33.223 4.98771 33.3835 4.98771H34.0255L33.0625 6.27167V6.43216C33.0625 6.43216 33.0625 6.43216 33.223 6.43216L34.3464 4.98771L34.186 6.27167H33.7045C33.7045 6.27167 33.544 6.27167 33.544 6.43216C33.544 6.43216 33.544 6.59265 33.7045 6.59265H34.186V7.23463C34.186 7.23463 34.186 7.39512 34.3464 7.39512C34.3464 7.39512 34.5069 7.39512 34.5069 7.23463V6.59265H34.8279C34.8279 6.59265 34.9884 6.59265 34.9884 6.43216C34.9884 6.43216 34.9884 6.27167 34.8279 6.27167H34.5069V5.14821L35.3094 6.59265C35.3094 6.59265 35.3094 6.59265 35.4699 6.59265V6.43216L34.5069 4.98771H35.4699C35.6304 5.14821 35.6304 4.98771 35.4699 4.82722C35.6304 4.98771 35.6304 4.82722 35.4699 4.82722Z" fill="#555555"/>
<path d="M39.3215 4.82685L36.9141 4.50586C36.9141 4.50586 36.7536 4.50586 36.7536 4.66635C36.7536 4.66635 36.7536 4.82685 36.9141 4.82685L37.8771 4.98734L37.0746 5.46882V5.62932C37.0746 5.62932 37.0746 5.62932 37.2351 5.62932H37.3956L37.5561 5.9503L36.7536 6.27129V6.43178L35.9512 7.07376V7.23425C35.9512 7.23425 35.9512 7.23425 36.1117 7.23425L36.9141 6.75277V6.59228L37.7166 6.1108C37.7166 6.1108 37.7166 6.1108 37.7166 5.9503L38.5191 5.46882V5.30833H38.3586L37.5561 5.78981V5.46882L38.1981 4.98734L39.3215 5.14783C39.3215 5.14783 39.3215 4.98734 39.3215 4.82685C39.3215 4.98734 39.3215 4.82685 39.3215 4.82685Z" fill="#555555"/>
<path d="M38.5193 6.1106C38.5193 5.95011 38.3588 5.95011 38.5193 6.1106C38.3588 6.1106 38.3588 6.2711 38.3588 6.2711H38.5193H37.8774C37.8774 6.2711 37.8774 6.2711 37.7169 6.2711H37.5564H37.3959C37.3959 6.2711 37.2354 6.2711 37.2354 6.43159C37.2354 6.43159 37.2354 6.59209 37.3959 6.59209H37.5564L37.3959 7.55505H36.9144C36.9144 7.55505 36.7539 7.55505 36.7539 7.71554C36.7539 7.71554 36.7539 7.87604 36.9144 7.87604H37.3959L37.5564 6.75258H38.3588L38.6798 7.07357C38.6798 7.07357 38.6798 7.07357 38.8403 7.07357V6.91307L38.5193 6.1106Z" fill="#555555"/>
<path d="M38.1985 6.91139C38.1985 6.75089 38.1985 6.75089 38.1985 6.91139C38.038 6.91139 38.038 6.91139 38.1985 6.91139L38.68 7.87435V7.71386L38.1985 6.91139Z" fill="#555555"/>
<path d="M40.9259 7.7133C40.9259 7.7133 40.7654 7.7133 40.9259 7.7133L40.1234 8.03429L40.6049 6.58984H40.1234C40.1234 6.58984 39.9629 6.58984 39.9629 6.75034C39.9629 6.91083 39.9629 6.91083 40.1234 6.91083H40.4444L39.9629 8.51577L40.9259 7.7133C40.9259 7.87379 40.9259 7.87379 40.9259 7.7133Z" fill="#555555"/>
<path d="M40.766 6.59221C40.9265 6.59221 40.9265 6.43171 40.766 6.59221L40.9265 5.62924C40.9265 5.62924 40.9265 5.46875 40.766 5.46875C40.766 5.46875 40.6055 5.46875 40.6055 5.62924L40.766 6.59221C40.766 6.43171 40.766 6.59221 40.766 6.59221Z" fill="#555555"/>
<path d="M42.2095 6.27174C42.2095 6.27174 42.2095 6.11124 42.2095 6.27174C42.049 6.11124 42.049 6.11124 42.049 6.27174C41.407 8.51865 40.2835 8.51865 40.2835 8.51865C40.2835 8.51865 40.123 8.51865 40.123 8.67915C40.123 8.67915 40.123 8.83964 40.2835 8.83964C40.444 8.83964 41.086 8.83964 41.5675 7.87668C41.5675 8.83964 41.8885 9.32112 41.8885 9.48161C41.8885 9.48161 41.8885 9.48161 42.049 9.48161V9.32112C42.049 9.32112 41.728 8.67915 41.728 7.55569C42.049 7.07421 42.049 6.75322 42.2095 6.27174Z" fill="#555555"/>
<path d="M44.1365 9.32106C43.976 9.32106 43.976 9.32106 44.1365 9.32106L43.655 9.48155L44.2969 8.51859L43.8155 8.03711H43.655V8.1976L44.1365 8.51859L43.334 9.80254L44.1365 9.32106C44.1365 9.48155 44.1365 9.48155 44.1365 9.32106Z" fill="#555555"/>
<path d="M44.4577 8.19734C44.6182 8.19734 44.6182 8.03684 44.4577 8.19734V7.39487C44.4577 7.39487 44.4577 7.23438 44.2972 7.23438C44.2972 7.23438 44.1367 7.23437 44.1367 7.39487L44.4577 8.19734C44.4577 8.03684 44.4577 8.19734 44.4577 8.19734Z" fill="#555555"/>
<path d="M45.9012 9.48223L45.4197 9.16124L45.7407 8.35877L46.5432 8.84025C46.5432 8.84025 46.5432 8.84025 46.7037 8.84025V8.67976L45.2592 7.7168H45.0987V7.87729L45.7407 8.35877L45.4197 9.16124H45.2592H45.0987V9.32174H45.2592L44.6173 10.2847L44.1358 9.96371L44.7778 8.67976V8.51927H44.6173L43.9753 9.80322L43.8148 9.64272H43.6543V9.80322L43.9753 9.96371L44.6173 10.2847L45.2592 10.7662C45.2592 10.7662 45.2592 10.7662 45.4197 10.7662V10.6057L44.7778 10.1242L45.2592 9.16124L45.7407 9.48223C45.9012 9.64272 45.9012 9.64272 45.9012 9.48223C46.0617 9.64272 45.9012 9.48223 45.9012 9.48223Z" fill="#555555"/>
<path d="M47.5063 11.2472C47.5063 11.2472 47.5063 11.4077 47.5063 11.2472C47.6668 11.4077 47.6668 11.2472 47.6668 11.2472V10.4447L47.8273 10.2843L48.1482 10.6052C48.1482 10.6052 48.1482 10.6052 48.3087 10.6052V10.4447L47.9878 10.1238L48.4692 9.48178V9.32129H48.3087L47.8273 9.96326L47.5063 9.64228H47.3458V9.80277L47.6668 10.1238L47.5063 10.2843L46.5433 10.4447C46.5433 10.4447 46.3828 10.4447 46.3828 10.6052C46.3828 10.6052 46.3828 10.7657 46.5433 10.7657L47.3458 10.6052L46.3828 11.8892V12.0497C46.3828 12.0497 46.3828 12.0497 46.5433 12.0497L47.5063 10.9262V11.2472Z" fill="#555555"/>
<path d="M48.6297 12.8511C48.6297 12.8511 48.4692 13.0116 48.3087 13.0116C48.1482 13.0116 48.3087 12.6906 48.3087 12.6906L49.9137 10.9252L49.1112 10.2832L47.8273 11.8881H46.8643C46.8643 11.8881 46.7038 11.8881 46.8643 12.0486C46.8643 12.0486 46.8643 12.0486 47.0248 12.0486L47.6668 11.8881L48.9507 10.2832L49.5927 10.7647L48.1482 12.3696C48.1482 12.5301 47.9878 12.8511 48.3087 13.0116H48.4692C48.4692 13.3326 48.7902 13.0116 48.6297 12.8511C48.7902 13.0116 48.7902 13.0116 48.6297 12.8511C48.7902 12.8511 48.6297 12.8511 48.6297 12.8511Z" fill="#555555"/>
<path d="M50.2355 13.1723V13.6538C50.2355 13.6538 50.2355 13.8143 50.396 13.8143C50.396 13.8143 50.5564 13.8143 50.5564 13.6538V13.1723C50.5564 13.1723 50.7169 13.1723 50.7169 13.0118C50.7169 13.0118 50.7169 12.8513 50.5564 12.8513L50.8774 12.6908L51.0379 12.8513C51.0379 12.8513 51.0379 12.8513 51.1984 12.8513V12.6908L51.0379 12.5303L51.3589 12.2093V12.0488H51.1984L50.7169 12.5303L50.396 12.2093H50.2355V12.3698L50.5564 12.6908L50.075 13.0118H49.2725C49.2725 13.0118 49.112 13.0118 49.112 13.1723C49.112 13.1723 49.112 13.3328 49.2725 13.3328H49.754L48.791 14.2957V14.4562L50.2355 13.1723Z" fill="#555555"/>
<path d="M50.8767 14.7768C50.8767 14.9373 50.8767 14.9373 50.8767 14.7768C51.0372 14.9373 51.0372 14.9373 50.8767 14.7768C51.0372 14.9373 51.0372 14.9373 50.8767 14.7768C51.0372 14.7768 51.0372 14.7768 50.8767 14.7768C51.0372 14.7768 51.0372 14.7768 50.8767 14.7768C51.0372 14.7768 51.0372 14.7768 50.8767 14.7768C51.0372 14.7768 51.0372 14.7768 51.0372 14.7768L51.3582 14.2953V14.1348H51.1977L51.0372 14.4558L50.5557 13.9743L51.3582 13.8139C51.3582 13.8139 51.5187 13.8139 51.3582 13.6534C51.3582 13.6534 51.3582 13.4929 51.1977 13.6534L50.0742 13.9743L50.8767 14.7768Z" fill="#555555"/>
<path d="M52.4823 14.1349L51.6798 13.1719L52.1613 13.0114C52.1613 13.0114 52.3218 13.0114 52.3218 12.8509C52.3218 12.8509 52.3218 12.6904 52.1613 12.6904L51.3589 13.0114L50.7169 13.1719C50.7169 13.1719 50.5564 13.1719 50.5564 13.3324C50.5564 13.3324 50.5564 13.4929 50.7169 13.4929L51.3589 13.3324L52.1613 14.1349C52.0008 14.2954 51.3589 15.0978 50.8774 15.2583C50.7169 15.2583 50.7169 15.4188 50.5564 15.2583C50.3959 15.2583 50.3959 15.0978 50.3959 14.9373C50.3959 14.9373 50.3959 14.7768 50.2354 14.9373C50.2354 14.9373 50.0749 14.9373 50.2354 15.0978C50.2354 15.0978 50.3959 15.4188 50.5564 15.4188H50.7169C50.8774 15.4188 50.8774 15.4188 51.0379 15.2583C51.5193 15.2583 52.4823 14.1349 52.4823 14.1349Z" fill="#555555"/>
<path d="M53.6043 14.9395L51.3574 16.5444L52.8019 18.6308L55.0488 17.0259L53.6043 14.9395ZM51.6784 16.5444L53.6043 15.0999L54.8883 16.8654L52.8019 18.3098L51.6784 16.5444Z" fill="#555555"/>
<path d="M54.4071 16.865L53.9256 16.223C53.9256 16.223 53.9256 16.223 53.9256 16.0625C53.9256 16.0625 53.9256 16.0625 53.7651 16.0625L53.4441 15.5811H53.2836V15.7415L53.6046 16.223L53.2836 16.3835L52.9626 15.902H52.8021V16.0625L53.2836 16.544L52.6416 16.865L52.3206 16.3835H52.1602V16.544L52.9626 17.6675C52.9626 17.6675 52.9626 17.6675 53.1231 17.6675V17.507L52.6416 17.0255L53.2836 16.7045L53.6046 17.186C53.6046 17.186 53.6046 17.186 53.7651 17.186V17.0255L53.4441 16.7045L53.7651 16.544L54.2466 17.186C54.2466 17.186 54.2466 17.186 54.4071 17.186C54.4071 17.186 54.4071 17.0255 54.4071 16.865C54.4071 17.0255 54.4071 17.0255 54.4071 16.865Z" fill="#555555"/>
<path d="M55.0488 18.4701C55.0488 18.4701 55.2093 18.4701 55.0488 18.4701C55.2093 18.4701 55.2093 18.4701 55.0488 18.4701H55.6908L56.6538 20.717L56.1723 20.8775V21.038C56.1723 21.038 56.1723 21.038 56.3328 21.038L56.8143 20.717L56.3328 19.5935H56.4933C56.4933 19.5935 56.6538 19.5935 56.4933 19.433C56.4933 19.433 56.4933 19.2725 56.3328 19.433H56.1723L55.8513 18.3096L55.0488 18.4701C55.0488 18.3096 55.0488 18.4701 55.0488 18.4701Z" fill="#555555"/>
<path d="M54.8881 21.6799C54.8881 21.6799 54.8881 21.038 55.2091 20.8775C55.2091 20.8775 55.3696 20.717 55.5301 20.717H55.6906H55.8511V20.5565C55.6906 20.5565 55.5301 20.5565 55.5301 20.5565L55.0486 20.2355V20.075V19.9145C55.0486 19.754 55.2091 19.754 55.2091 19.754C55.2091 19.754 55.2091 19.754 55.2091 19.5935L55.5301 20.396C55.5301 20.396 55.5301 20.396 55.6906 20.396V20.2355L55.3696 19.433L55.0486 18.7911C55.0486 18.7911 54.8881 18.6306 54.8881 18.7911V18.9516L55.0486 19.433C55.0486 19.433 55.0486 19.433 54.8881 19.433L54.5672 18.7911H54.4067V18.9516L55.2091 19.5935L55.0486 19.754L53.9252 18.9516H53.7647V19.112L54.8881 19.9145V20.075L53.4437 19.2725H53.2832V19.433L54.5672 20.2355C54.2462 20.396 53.7647 20.2355 53.7647 20.2355C53.7647 20.2355 53.6042 20.2355 53.6042 20.396C53.6042 20.396 53.6042 20.5565 53.7647 20.5565C53.7647 20.5565 53.9252 20.5565 54.0857 20.5565C54.2462 20.5565 54.5672 20.5565 54.7276 20.396L55.0486 20.5565C55.0486 20.5565 55.0486 20.5565 54.8881 20.5565C54.4067 20.8775 54.4067 21.5195 54.4067 21.5195C54.7276 21.6799 54.7276 21.6799 54.8881 21.6799C54.7276 21.6799 54.7276 21.6799 54.8881 21.6799Z" fill="#555555"/>
<path d="M56.1726 23.4438C56.3331 23.2833 56.3331 23.2833 56.1726 23.2833L55.5306 22.9623L56.8146 22.6413V21.9994C56.8146 21.9994 56.8146 21.8389 56.6541 21.8389C56.6541 21.8389 56.4936 21.8389 56.4936 21.9994V22.4808L54.8887 22.9623L56.1726 23.4438Z" fill="#555555"/>
<path d="M57.4563 22.8018C57.6168 22.6413 57.7773 22.3203 57.9378 21.9994V21.8389H57.7773C57.4563 22.3203 57.2958 22.6413 57.4563 22.8018C57.2958 22.8018 57.2958 22.8018 57.4563 22.8018Z" fill="#555555"/>
<path d="M57.4562 23.9239C57.7772 23.9239 58.0982 23.7634 58.4192 23.6029V23.4424H58.2587C56.1723 24.4053 55.2093 23.4424 55.2093 23.4424H55.0488V23.6029C55.0488 23.6029 55.5303 24.0844 56.4933 24.0844C56.6538 24.0844 56.6538 24.0844 56.8143 24.0844C56.0118 24.7263 55.8513 25.3683 55.8513 25.3683V25.5288H56.0118C56.0118 25.3683 56.3328 24.4053 57.4562 23.9239Z" fill="#555555"/>
<path d="M56.334 26.4938H56.976V27.6173L58.2599 27.4568L58.0994 26.1729L56.334 26.4938C56.334 26.3333 56.334 26.3333 56.334 26.4938ZM58.0994 26.3333V27.1358L57.1365 27.2963V26.4938L58.0994 26.3333Z" fill="#555555"/>
<path d="M58.7401 25.5312C58.5796 25.5312 58.5796 25.5312 58.5796 25.5312L58.9006 27.6177C58.2586 27.7782 56.9747 28.2596 56.4932 27.9387C56.4932 27.9387 56.3327 27.9387 56.3327 27.7782C56.3327 27.7782 56.3327 27.6177 56.1722 27.6177C56.1722 27.6177 56.0117 27.6177 56.0117 27.7782C56.0117 27.9387 56.1722 27.9387 56.1722 28.0992C56.3327 28.0992 56.4932 28.2596 56.6537 28.2596C57.2957 28.2596 58.2586 27.9387 58.5796 27.9387V28.4201C58.5796 28.4201 58.5796 28.5806 58.7401 28.5806C58.7401 28.5806 58.9006 28.5806 58.9006 28.4201L58.7401 25.5312Z" fill="#555555"/>
<path d="M31.6167 17.023C31.4562 17.023 31.1352 17.023 30.9747 17.023C23.4315 17.023 17.4932 23.1218 17.4932 30.665C17.4932 38.2082 23.592 44.1464 31.1352 44.1464C31.4562 44.1464 31.9377 44.1464 32.2586 44.1464L31.9377 55.2205C31.9377 55.2205 26.3204 55.381 22.1475 52.8131L23.271 50.2452C23.271 50.2452 19.4191 48.1588 17.8142 46.5539L15.7278 48.4798C15.7278 48.4798 12.1969 44.9489 11.0735 42.06L12.9994 40.6156C12.9994 40.6156 11.7154 37.4057 11.234 34.8378L9.62902 34.6773C9.62902 34.6773 9.46853 29.2205 10.592 26.6526H12.3574C12.3574 26.6526 14.1228 22.4798 14.4438 21.9983L13.9624 21.0353C13.9624 21.0353 15.7278 16.8625 19.4191 15.8995L20.2216 16.5415C20.2216 16.5415 22.95 14.9366 25.0364 14.6156V12.6897C25.0364 12.6897 28.2463 11.7267 31.4562 11.8872L31.6167 17.023Z" fill="#555555"/>
<path d="M32.098 11.4053C32.098 11.4053 34.5054 11.4053 35.4684 13.8127C36.4313 16.2201 36.2708 17.1831 37.7153 17.3435V16.8621C37.7153 16.8621 36.5918 15.7386 36.5918 14.9361C36.5918 14.1337 36.4313 12.6892 35.9499 11.8868C35.9499 11.8868 39.3202 11.7263 39.9622 14.7756L40.1227 18.3065H41.2462L40.9252 13.1707C40.9252 13.1707 43.9745 14.6152 44.135 17.1831C44.135 19.751 42.8511 19.43 43.1721 20.3929C43.4931 21.3559 43.9745 21.6769 43.9745 21.6769C43.9745 21.6769 43.9745 19.109 44.456 18.467C44.9375 18.146 44.9375 16.0596 44.9375 16.0596C44.9375 16.0596 47.8264 17.6645 47.5054 19.9114C47.1844 21.9979 45.5795 23.7633 45.419 24.5658C45.419 25.3682 45.74 25.6892 45.9005 25.6892C46.061 25.6892 45.9005 24.2448 46.8634 23.2818C47.6659 22.3189 48.7894 19.5905 48.7894 19.5905C48.7894 19.5905 50.5548 21.1954 50.3943 23.1213C50.2338 25.0472 49.4313 26.3312 46.7029 28.8991V29.2201C46.7029 29.2201 46.8634 29.5411 47.0239 29.5411C47.1844 29.5411 48.4684 27.2942 49.5918 26.8127C50.7153 26.3312 51.3573 25.5287 51.5178 24.2448C51.5178 24.2448 52.8017 25.5287 52.6412 26.9732C52.4807 28.4176 51.9992 30.9855 49.7523 31.6275C47.5054 32.2695 46.382 33.2324 46.5424 34.1954C46.5424 34.1954 46.8634 34.5164 48.1474 33.2324C49.4313 31.9485 51.0363 31.788 51.3573 31.6275C51.6783 31.467 52.8017 30.6645 53.2832 29.5411C53.2832 29.5411 53.9252 30.3435 53.9252 31.6275C53.9252 32.9114 53.4437 35.3189 50.3943 36.4423C47.3449 37.5658 45.5795 37.5658 45.098 38.2077C44.777 38.8497 45.74 38.6892 46.7029 38.2077C47.6659 37.7263 48.7894 37.5658 50.0733 37.4053C51.3573 37.4053 52.9622 37.0843 53.2832 36.2818V35.9608C53.2832 35.9608 54.2462 38.8497 51.6783 40.2942C49.2708 41.7386 46.7029 41.8991 45.5795 41.4176C44.2955 40.9361 42.0486 40.7756 41.4066 42.2201C41.4066 42.2201 45.419 42.0596 46.061 42.3806C46.7029 42.7016 49.7523 43.504 50.8758 42.2201C50.8758 42.2201 51.0363 45.751 46.2215 46.2324C46.2215 46.2324 43.9745 46.3929 42.6906 45.109C41.4066 43.825 39.9622 43.6645 38.6783 43.9855C38.6783 43.9855 41.0857 45.109 41.7276 45.9114C42.3696 46.7139 44.135 47.9979 47.0239 47.8374C47.0239 47.8374 43.0116 52.1707 39.1597 48.6398C39.1597 48.6398 38.0363 47.3559 37.5548 46.3929C37.0733 45.2695 37.0733 44.9485 36.4313 44.9485C35.7894 44.9485 35.6289 45.751 35.7894 46.5534C35.9499 47.5164 37.7153 50.8868 42.0486 51.5287C42.0486 51.5287 40.7647 53.1337 37.7153 53.1337C34.8264 53.1337 32.5795 50.0843 32.5795 47.8374C32.5795 45.5905 34.3449 43.825 35.6289 43.3435C36.9128 43.0226 39.3202 41.8991 42.2091 39.3312C45.098 36.7633 45.74 32.43 45.74 30.504C45.74 28.5781 44.777 23.7633 41.5671 20.8744C38.3573 17.9855 34.8264 17.3435 33.8634 16.7016C33.061 16.0596 31.6165 14.2942 32.098 11.4053Z" fill="#555555"/>
<path d="M25.0374 31.147C25.0374 32.4309 24.2349 33.2334 23.1115 33.2334C21.988 33.2334 21.1855 32.4309 21.1855 31.147C21.1855 29.863 21.988 29.0605 23.1115 29.0605C24.2349 29.0605 25.0374 29.863 25.0374 31.147ZM21.988 31.147C21.988 31.9494 22.4695 32.4309 23.1115 32.4309C23.7534 32.4309 24.0744 31.9494 24.0744 31.147C24.0744 30.3445 23.593 29.863 22.951 29.863C22.4695 29.7025 21.988 30.3445 21.988 31.147Z" fill="#555555"/>
<path d="M27.605 30.3461C27.605 30.0251 27.284 29.7041 26.8025 29.7041C26.4816 29.7041 26.1606 29.8646 26.1606 30.1856C26.1606 30.5066 26.642 30.5066 27.284 30.8276C27.926 30.9881 28.4075 31.3091 28.4075 31.9511C28.4075 32.914 27.605 33.235 26.8025 33.235C25.6791 33.235 25.1976 32.7535 25.1976 31.7906H26.0001C26.0001 32.272 26.3211 32.593 26.8025 32.593C27.284 32.593 27.4445 32.4325 27.4445 32.1115C27.4445 31.7906 27.1235 31.7906 26.3211 31.4696C25.6791 31.3091 25.0371 31.1486 25.0371 30.3461C25.0371 29.7041 25.6791 29.2227 26.4816 29.2227C27.284 29.2227 27.926 29.5436 27.926 30.5066L27.605 30.3461Z" fill="#555555"/>
<path d="M34.8281 29.0605H35.9516L36.9145 31.7889L37.717 29.0605H38.8405V33.0729H38.038V30.184L37.2355 33.0729H36.5936L35.6306 30.3445V33.0729H34.8281V29.0605Z" fill="#555555"/>
<path d="M41.4067 30.3461C41.4067 30.0251 41.0857 29.7041 40.7648 29.7041C40.4438 29.7041 40.1228 29.8646 40.1228 30.1856C40.1228 30.5066 40.4438 30.5066 41.2462 30.8276C41.8882 30.9881 42.3697 31.3091 42.3697 31.9511C42.3697 32.914 41.5672 33.235 40.9253 33.235C39.9623 33.235 39.3203 32.7535 39.3203 31.7906H40.1228C40.1228 32.272 40.4438 32.593 40.9253 32.593C41.4067 32.593 41.5672 32.4325 41.5672 32.1115C41.5672 31.7906 41.2462 31.7906 40.6043 31.4696C39.9623 31.3091 39.4808 31.1486 39.4808 30.3461C39.4808 29.7041 39.9623 29.2227 40.9253 29.2227C41.7277 29.2227 42.3697 29.5436 42.3697 30.5066L41.4067 30.3461Z" fill="#555555"/>
<path d="M32.5806 24.5693V29.5446H30.8152V24.5693H29.5312V37.0879H30.8152V32.273H32.5806V37.0879H33.8646V24.5693H32.5806Z" fill="#555555"/>
<path d="M4.17383 33.3959C4.17383 33.2354 4.17383 33.0749 4.33432 32.9144C4.49482 32.7539 4.65531 32.7539 4.9763 32.7539C5.45778 32.7539 5.45778 32.7539 5.77877 32.9144C5.93926 33.0749 5.93926 33.2354 5.93926 33.3959C5.93926 33.7169 5.77877 34.0379 5.45778 34.0379V33.8774C5.77877 33.7169 5.77877 33.5564 5.77877 33.3959C5.77877 33.2354 5.77877 33.0749 5.61827 33.0749C5.45778 32.9144 5.29728 32.9144 4.9763 33.0749C4.65531 33.0749 4.49482 33.0749 4.33432 33.2354C4.33432 33.2354 4.33432 33.2354 4.17383 33.3959C4.33432 33.5564 4.49482 33.7169 4.8158 33.8774V34.0379C4.49482 34.0379 4.17383 33.7169 4.17383 33.3959Z" fill="#555555"/>
<path d="M5.29695 35.4805C5.45744 35.4805 5.61793 35.32 5.61793 35.1596C5.61793 34.9991 5.45744 34.8386 5.13645 34.8386L4.33398 34.9991V34.8386L6.09942 34.5176V34.6781L5.45744 34.8386C5.61794 34.8386 5.61793 34.9991 5.61793 35.1596C5.77843 35.32 5.61793 35.641 5.29695 35.4805L4.65497 35.8015V35.641L5.29695 35.4805Z" fill="#555555"/>
<path d="M5.93791 36.2826L4.81445 36.6036V36.4431L5.93791 36.2826ZM6.41939 36.1221L6.2589 36.2826L6.41939 36.1221Z" fill="#555555"/>
<path d="M5.77708 38.0469C5.93757 38.0469 6.09807 37.8865 6.09807 37.5655C6.09807 37.405 5.93757 37.2445 5.61658 37.2445L4.97461 37.5655V37.405L6.09807 37.084V37.2445H5.93757C6.09807 37.2445 6.09807 37.405 6.09807 37.5655C6.09807 37.726 6.09807 37.8865 6.09807 37.8865C6.09807 38.0469 5.93757 38.2074 5.77708 38.0469L5.1351 38.3679V38.2074L5.77708 38.0469Z" fill="#555555"/>
<path d="M5.61752 39.8139C5.45703 39.8139 5.45703 39.6534 5.45703 39.4929C5.45703 39.3324 5.45703 39.1719 5.45703 39.1719L5.61752 39.0114C5.77802 39.0114 5.93851 39.0114 6.09901 39.3324L6.2595 39.6534H6.41999C6.58049 39.6534 6.74098 39.4929 6.58049 39.1719C6.58049 39.0114 6.41999 39.0114 6.41999 38.8509V38.6904C6.58049 38.6904 6.74098 38.8509 6.74098 39.0114C6.90148 39.3324 6.74098 39.4929 6.41999 39.4929L5.61752 39.8139ZM5.93851 39.3324C5.93851 39.1719 5.77802 39.0114 5.61752 39.1719C5.45703 39.1719 5.45703 39.3324 5.45703 39.4929C5.45703 39.6534 5.45703 39.6534 5.61752 39.8139H5.77802H5.93851V39.3324Z" fill="#555555"/>
<path d="M7.70455 41.2591L6.2601 41.9011L6.09961 41.7406L7.86504 41.0986V41.2591L6.74158 42.7036L8.18603 42.2221L8.34652 42.3826L6.58109 43.0246V42.8641L7.70455 41.2591Z" fill="#555555"/>
<path d="M7.38255 44.308C7.22206 44.308 7.22206 44.1475 7.06156 43.987C7.06156 43.8265 6.90107 43.6661 7.06156 43.6661L7.22206 43.5056C7.38255 43.3451 7.54305 43.5056 7.70354 43.8265L7.86403 44.1475H8.02453C8.18502 44.1475 8.18502 43.987 8.18502 43.6661C8.18502 43.5056 8.02453 43.5056 7.86403 43.3451V43.1846C8.02453 43.1846 8.18502 43.3451 8.18502 43.5056C8.34552 43.8265 8.18502 43.987 8.02453 44.1475L7.22206 44.4685L7.38255 44.308ZM7.54305 43.8265C7.38255 43.6661 7.38255 43.5056 7.22206 43.6661C7.06156 43.6661 7.06156 43.8265 7.06156 43.987C7.06156 44.1475 7.22206 44.1475 7.22206 44.1475H7.38255H7.54305V43.8265Z" fill="#555555"/>
<path d="M7.86362 45.1114L8.50559 44.7904V44.6299H8.66609V44.7904L8.98708 44.6299V44.7904L8.66609 44.9509L8.82658 45.2719H8.66609L8.50559 44.9509L7.86362 45.1114C7.86362 45.2719 7.70312 45.4324 7.86362 45.4324H7.70313V45.2719C7.70312 45.4324 7.70312 45.2719 7.86362 45.1114Z" fill="#555555"/>
<path d="M9.14851 45.7546L8.18555 46.3966V46.2361L9.14851 45.7546ZM9.79049 45.4336L9.62999 45.5941L9.79049 45.4336Z" fill="#555555"/>
<path d="M9.14818 47.6768C8.98768 47.6768 8.98768 47.5163 8.82719 47.5163C8.82719 47.3558 8.6667 47.3558 8.82719 47.1953C8.82719 47.0349 8.98768 46.8744 9.14818 46.8744C9.30867 46.7139 9.46917 46.7139 9.62966 46.7139C9.79015 46.7139 9.79015 46.8744 9.95065 46.8744C9.95065 47.0349 10.1111 47.0349 9.95065 47.1953C9.95065 47.3558 9.79015 47.5163 9.62966 47.5163C9.46917 47.6768 9.30867 47.8373 9.14818 47.6768ZM9.79015 47.1953C9.79015 47.0349 9.79015 47.0349 9.79015 46.8744C9.79015 46.7139 9.62966 46.7139 9.62966 46.7139C9.46917 46.7139 9.30867 46.7139 9.14818 46.8744C8.98768 46.8744 8.82719 47.0349 8.82719 47.1953C8.82719 47.3558 8.82719 47.3558 8.82719 47.5163C8.82719 47.6768 8.98768 47.6768 8.98768 47.6768C9.14818 47.6768 9.30867 47.6768 9.46917 47.5163C9.62966 47.3558 9.79015 47.3558 9.79015 47.1953Z" fill="#555555"/>
<path d="M10.5919 48.8038C10.7524 48.6433 10.7524 48.4828 10.7524 48.3223C10.5919 48.1618 10.4314 48.1618 10.2709 48.1618L9.62891 48.6433V48.4828L10.5919 47.8408V48.0013H10.4314C10.5919 48.0013 10.7524 48.1618 10.7524 48.1618C10.7524 48.3223 10.9129 48.3223 10.9129 48.4828C10.9129 48.8038 10.7524 48.8038 10.5919 48.8038L10.1104 49.2853V49.1248L10.5919 48.8038Z" fill="#555555"/>
<path d="M11.0733 50.5688C10.9128 50.5688 10.9128 50.5688 10.7523 50.4083C10.5918 50.2478 10.5918 50.2478 10.5918 50.0873C10.5918 49.9268 10.5918 49.9268 10.7523 49.9268C10.9128 49.7663 11.0733 49.7663 11.2338 50.0873L11.3943 50.4083L11.5548 50.2478C11.7153 50.0873 11.7153 49.9268 11.5548 49.7663C11.3943 49.6058 11.3943 49.6058 11.2338 49.6058V49.4453C11.3943 49.4453 11.5548 49.4453 11.7153 49.6058C11.8757 49.9268 11.8757 50.0873 11.7153 50.2478L11.0733 50.7293V50.5688ZM11.2338 49.9268C11.0733 49.7663 10.9128 49.7663 10.9128 49.7663C10.7523 49.9268 10.7523 49.9268 10.9128 50.0873C10.9128 50.4083 10.9128 50.4083 11.0733 50.4083H11.2338L11.3943 50.2478L11.2338 49.9268Z" fill="#555555"/>
<path d="M11.7152 51.211L12.8386 50.248L12.9991 50.4085L11.7152 51.211C11.7152 51.3715 11.7152 51.532 11.7152 51.532H11.5547V51.3715L11.7152 51.211Z" fill="#555555"/>
<path d="M13.9633 53.1365L13.3213 52.4945L12.8398 52.8155V52.655L14.4448 51.8525L14.6053 52.013L13.8028 53.7785V53.618L13.9633 53.1365ZM13.4818 52.4945L13.9633 52.976L14.4448 52.013L13.4818 52.4945Z" fill="#555555"/>
<path d="M14.7663 54.4213C14.4453 54.2608 14.4453 53.9398 14.6058 53.6188C14.9268 53.2979 15.0873 53.2979 15.4083 53.4583C15.5688 53.6188 15.5688 53.6188 15.5688 53.7793H15.4083C15.4083 53.6188 15.4083 53.6188 15.2478 53.4583C15.0873 53.2979 15.0873 53.2979 14.9268 53.2979C14.7663 53.2979 14.7663 53.4583 14.6058 53.4583C14.4453 53.6188 14.4453 53.6188 14.4453 53.7793C14.6058 54.1003 14.6058 54.2608 14.7663 54.4213C14.9268 54.4213 15.0873 54.4213 15.2478 54.4213V54.5818C14.9268 54.5818 14.7663 54.5818 14.7663 54.4213Z" fill="#555555"/>
<path d="M15.8892 55.3851C15.5682 55.2246 15.5682 54.9036 15.8892 54.5826C16.0497 54.2616 16.3707 54.2616 16.6916 54.4221C16.8521 54.5826 16.8521 54.5826 16.8521 54.7431H16.6916C16.6916 54.5826 16.6916 54.5826 16.5312 54.4221C16.3707 54.2616 16.3707 54.2616 16.2102 54.4221C16.0497 54.4221 16.0497 54.5826 15.8892 54.5826C15.7287 54.7431 15.7287 54.7431 15.7287 54.9036C15.8892 55.0641 15.8892 55.2246 15.8892 55.3851C16.0497 55.3851 16.2102 55.3851 16.3707 55.3851V55.5456C16.2102 55.5456 16.0497 55.5456 15.8892 55.3851Z" fill="#555555"/>
<path d="M17.8145 55.3831C17.654 55.2227 17.4935 55.3832 17.333 55.5436L17.0121 56.1856H16.8516L17.4935 55.2227H17.654H17.4935C17.654 55.2227 17.8145 55.2227 17.8145 55.3831C17.975 55.3831 18.1355 55.3832 18.1355 55.5436H17.975C17.975 55.3832 17.975 55.3831 17.8145 55.3831Z" fill="#555555"/>
<path d="M18.4566 56.8277C18.617 56.8277 18.617 56.8277 18.7775 56.8277V56.9882C18.7775 56.9882 18.617 56.9882 18.4566 56.8277C18.1356 56.8277 17.9751 56.5067 18.2961 56.1857C18.4566 55.8647 18.7775 55.7042 18.938 55.8647C19.259 56.0252 19.259 56.3462 19.0985 56.6672L18.2961 56.3462C18.1356 56.5067 18.2961 56.6672 18.4566 56.8277ZM19.0985 56.3462C19.0985 56.1857 19.0985 56.0252 18.938 56.0252C18.7775 56.0252 18.617 56.0252 18.617 56.0252L18.4566 56.1857L19.0985 56.5067C19.0985 56.3462 19.0985 56.3462 19.0985 56.3462Z" fill="#555555"/>
<path d="M20.2217 57.629C20.0612 57.7895 19.9007 57.629 19.9007 57.629C19.7402 57.629 19.7402 57.4685 19.7402 57.4685C19.7402 57.308 19.7402 57.1475 19.7402 56.987C19.7402 56.8265 19.9007 56.6661 20.0612 56.5056C20.2217 56.5056 20.2217 56.5056 20.3822 56.5056C20.5427 56.5056 20.5427 56.6661 20.7032 56.8265L21.0242 56.1846H21.1847L20.3822 57.7895L20.2217 57.629ZM20.3822 56.6661C20.0612 56.5056 19.9007 56.8265 19.9007 56.987C19.7402 57.1475 19.7402 57.4685 20.0612 57.629C20.3822 57.7895 20.5427 57.4685 20.5427 57.308C20.5427 56.987 20.7032 56.8266 20.3822 56.6661Z" fill="#555555"/>
<path d="M21.5069 56.9893L21.1859 58.1128H21.0254L21.5069 56.9893ZM21.6674 56.5078L21.8279 56.6683L21.6674 56.5078Z" fill="#555555"/>
<path d="M22.1484 58.2703L22.4694 57.4678H22.3089V57.3073H22.4694L22.6299 56.9863H22.7904L22.6299 57.3073L22.9509 57.4678V57.6283L22.4694 57.4678L22.1484 58.2703C22.1484 58.4308 22.3089 58.5913 22.3089 58.5913H22.4694V58.7518H22.3089C22.1484 58.5913 22.1484 58.4308 22.1484 58.2703Z" fill="#555555"/>
<path d="M23.9135 58.9157C23.753 58.9157 23.753 58.9157 23.5925 58.9157C23.432 58.9157 23.2715 58.7552 23.2715 58.7552C23.2715 58.7552 23.2715 58.5947 23.2715 58.4342C23.2715 58.2737 23.5925 58.1132 23.753 58.2737L24.074 58.4342V58.2737C24.074 58.1132 24.074 57.9527 23.753 57.9527C23.5925 57.9527 23.432 57.9527 23.432 57.9527V57.7922C23.5925 57.6318 23.753 57.6318 23.9135 57.7922C24.2344 57.9527 24.3949 58.1132 24.2344 58.2737L23.9135 58.9157ZM23.5925 58.4342C23.432 58.4342 23.2715 58.4342 23.2715 58.5947C23.2715 58.7552 23.2715 58.9157 23.5925 58.9157C23.753 58.9157 23.753 58.9157 23.9135 58.9157L24.074 58.7552V58.5947L23.5925 58.4342Z" fill="#555555"/>
<path d="M24.877 58.9138L25.0374 58.1114H24.877V57.9509H25.0374L25.1979 57.6299H25.3584L25.1979 57.9509H25.5189V58.1114H25.1979L24.877 58.9138C25.0374 59.0743 25.0374 59.0743 25.1979 59.2348H25.3584V59.3953H25.1979C24.877 59.3953 24.877 59.2348 24.877 58.9138Z" fill="#555555"/>
<path d="M26.1608 58.2705L26.0003 59.5545H25.8398L26.1608 58.2705ZM26.1608 57.7891L26.3213 57.9496L26.1608 57.7891Z" fill="#555555"/>
<path d="M27.6052 59.7162C27.4447 59.7162 27.4447 59.8767 27.2842 59.8767C27.1237 59.8767 27.1237 59.8767 26.9632 59.7162C26.8027 59.5557 26.8027 59.3952 26.8027 59.2348C26.8027 59.0743 26.8027 58.9138 26.9632 58.7533C27.1237 58.7533 27.1237 58.5928 27.2842 58.5928C27.4447 58.5928 27.4447 58.5928 27.6052 58.7533C27.7657 58.9138 27.7657 59.0743 27.7657 59.2348C27.7657 59.3952 27.7657 59.5557 27.6052 59.7162ZM27.6052 58.7533L27.4447 58.5928C27.2842 58.5928 27.2842 58.5928 27.1237 58.5928C26.9632 58.7533 26.9632 58.9138 26.9632 58.9138C26.9632 59.0743 26.9632 59.2347 26.9632 59.3952L27.1237 59.5557C27.2842 59.5557 27.2842 59.5557 27.4447 59.5557C27.6052 59.3952 27.6052 59.2348 27.6052 59.2348C27.7657 59.0743 27.7657 58.9138 27.6052 58.7533Z" fill="#555555"/>
<path d="M29.3708 59.2334C29.3708 59.0729 29.2103 58.9124 29.0498 58.9124C28.8893 58.9124 28.7289 59.0729 28.7289 59.2334V60.0359H28.5684L28.7289 58.752H28.8893V58.9124C29.0498 58.752 29.0498 58.752 29.2103 58.752C29.3708 58.752 29.3708 58.752 29.5313 58.9124C29.5313 58.9124 29.5313 59.0729 29.3708 59.2334V60.0359H29.2103L29.3708 59.2334Z" fill="#555555"/>
<path d="M31.4577 60.0382L31.2972 58.9148H31.1367V58.7543H31.2972V58.4333C31.2972 58.2728 31.4577 58.1123 31.6182 58.1123H31.7787V58.2728H31.6182C31.4577 58.2728 31.4577 58.2728 31.4577 58.4333V58.7543H31.7787V58.9148H31.4577V60.0382Z" fill="#555555"/>
<path d="M33.0626 59.8754C32.9021 60.0359 32.9021 60.0359 32.7416 60.0359C32.5811 60.0359 32.4206 60.0359 32.4206 59.8754C32.2601 59.7149 32.2601 59.5544 32.2601 59.3939C32.2601 59.2334 32.2601 59.0729 32.4206 58.9124C32.5811 58.752 32.5811 58.752 32.7416 58.752C32.9021 58.752 33.0626 58.752 33.0626 58.9124C33.2231 59.0729 33.2231 59.2334 33.2231 59.3939C33.2231 59.5544 33.2231 59.8754 33.0626 59.8754ZM32.9021 59.0729C32.9021 59.0729 32.7416 58.9124 32.5811 58.9124C32.4206 58.9124 32.4206 58.9124 32.2601 59.0729C32.0996 59.2334 32.0996 59.3939 32.0996 59.5544C32.0996 59.7149 32.0996 59.8754 32.2601 59.8754C32.2601 59.8754 32.4206 60.0359 32.5811 60.0359C32.7416 60.0359 32.7416 60.0359 32.9021 59.8754C33.0626 59.7149 33.0626 59.5544 33.0626 59.3939C33.0626 59.2334 33.0626 59.0729 32.9021 59.0729Z" fill="#555555"/>
<path d="M34.3448 58.9124C34.1843 58.9124 34.0238 59.0729 34.0238 59.2334V60.0359H33.8633V58.752H34.0238V58.9124C34.0238 58.9124 34.1843 58.752 34.3448 58.9124C34.5053 58.752 34.5053 58.752 34.6658 58.9124L34.5053 59.0729C34.5053 58.9124 34.3448 58.9124 34.3448 58.9124Z" fill="#555555"/>
<path d="M37.2351 59.5532C37.0746 59.7137 36.9141 59.7137 36.7536 59.8742C36.5931 59.8742 36.4327 59.8742 36.2722 59.7137C36.1117 59.5532 36.1117 59.3927 35.9512 59.0717C35.9512 58.7507 35.9512 58.5902 35.9512 58.2692C36.1117 58.1087 36.2722 58.1087 36.4327 57.9482C36.5931 57.9482 36.7536 57.9482 36.9141 58.1087C37.0746 58.2692 37.0746 58.4297 37.2351 58.7507C37.3956 59.2322 37.3956 59.3927 37.2351 59.5532ZM36.9141 58.1087C36.7536 58.1087 36.7536 57.9482 36.5931 57.9482C36.4327 57.9482 36.4327 58.1087 36.2722 58.1087C36.1117 58.2692 36.1117 58.4297 36.2722 58.7507C36.2722 59.0717 36.4327 59.2322 36.4327 59.3927C36.5931 59.3927 36.5931 59.5532 36.7536 59.5532C36.9141 59.5532 36.9141 59.3927 37.0746 59.3927C37.2351 59.2322 37.2351 59.0717 37.0746 58.7507C37.0746 58.4297 37.0746 58.2692 36.9141 58.1087Z" fill="#555555"/>
<path d="M38.6794 59.3953C38.3584 59.3953 38.1979 59.3953 38.0374 59.2348V59.0743C38.3584 59.3953 38.5189 59.3953 38.6794 59.3953C39.0004 59.2348 39.1609 59.0743 39.0004 58.7533C39.0004 58.5928 39.0004 58.5928 38.8399 58.5928C38.8399 58.5928 38.6794 58.5928 38.5189 58.5928H38.3584C38.1979 58.5928 38.0374 58.5928 38.0374 58.5928C37.877 58.5928 37.877 58.4324 37.877 58.2719C37.877 57.9509 38.0374 57.7904 38.3584 57.6299C38.5189 57.6299 38.6794 57.6299 38.8399 57.7904V57.9509C38.6794 57.9509 38.5189 57.7904 38.3584 57.9509C38.0374 57.9509 38.0374 58.1114 38.0374 58.4324C38.0374 58.5928 38.0374 58.5928 38.1979 58.5928C38.1979 58.5928 38.3584 58.5928 38.5189 58.5928H38.6794C38.8399 58.5928 39.0004 58.5928 39.0004 58.5928C39.1609 58.5928 39.1609 58.7533 39.1609 58.9138C39.3214 59.0743 39.1609 59.3953 38.6794 59.3953Z" fill="#555555"/>
<path d="M40.9265 57.9493L39.9636 58.2703L40.2846 59.0728H40.1241L39.6426 57.4678L39.8031 57.3073L39.9636 58.1098L40.9265 57.9493L40.6055 57.1468L40.766 56.9863L41.2475 58.7518H41.087L40.9265 57.9493Z" fill="#555555"/>
<path d="M42.8523 56.6657V57.9497H42.6918L41.7289 57.1472L42.3708 58.4311H42.2103L41.5684 56.8262H41.7289L42.6918 57.7892L42.8523 56.3447H43.0128L43.4943 57.9497L42.8523 56.6657Z" fill="#555555"/>
<path d="M44.7782 57.4675C44.6177 57.628 44.2967 57.628 44.1362 57.4675V57.307C44.4572 57.307 44.6177 57.307 44.7782 57.4675C44.9387 57.307 45.0992 56.986 44.9387 56.8255C44.9387 56.665 44.7782 56.665 44.7782 56.665C44.6177 56.665 44.6177 56.665 44.4572 56.665H44.2967C44.1362 56.665 43.9757 56.665 43.9757 56.665C43.8153 56.665 43.8153 56.5045 43.6548 56.5045C43.4943 56.1835 43.6548 56.0231 43.9757 55.8626C44.1362 55.7021 44.2967 55.7021 44.4572 55.8626V56.023C44.2967 56.023 44.1362 56.023 43.9757 56.023C43.8153 56.1835 43.6548 56.344 43.8153 56.5045C43.8153 56.665 43.9757 56.665 43.9757 56.665C43.9757 56.665 44.1362 56.665 44.2967 56.665H44.4572C44.6177 56.665 44.7782 56.665 44.7782 56.665C44.9387 56.665 44.9387 56.8255 45.0992 56.986C45.2597 56.986 45.2597 57.1465 44.7782 57.4675Z" fill="#555555"/>
<path d="M47.3464 55.8659C47.186 56.0264 47.0255 56.0264 46.865 56.0264C46.7045 56.0264 46.544 55.8659 46.3835 55.5449C46.223 55.224 46.0625 55.0635 46.0625 54.903C46.0625 54.7425 46.223 54.582 46.3835 54.582C46.7045 54.4215 47.0255 54.4215 47.186 54.7425H47.0255C46.865 54.582 46.544 54.582 46.3835 54.7425C46.223 54.7425 46.223 54.903 46.223 55.0635C46.223 55.224 46.223 55.3845 46.544 55.7054C46.865 56.0264 46.865 56.1869 47.0255 56.1869C47.186 55.8659 47.186 55.8659 47.3464 55.8659C47.5069 55.7054 47.5069 55.3845 47.5069 55.224H47.6674C47.8279 55.5449 47.6674 55.7054 47.3464 55.8659Z" fill="#555555"/>
<path d="M48.9507 54.7409C49.1112 54.5804 49.1112 54.5804 49.1112 54.4199H49.2717C49.1112 54.5804 49.1112 54.7409 48.9507 54.7409C48.7902 55.0619 48.4692 55.0619 48.1482 54.7409C47.8272 54.4199 47.9877 54.0989 48.1482 53.9384C48.3087 53.7779 48.6297 53.7779 48.9507 54.0989L48.3087 54.5804C48.4692 54.9014 48.6297 54.9014 48.9507 54.7409ZM48.6297 53.9384C48.4692 53.9384 48.3087 53.9384 48.3087 53.9384C48.1482 54.0989 48.1482 54.0989 48.1482 54.2594C48.1482 54.2594 48.1482 54.4199 48.3087 54.4199L48.7902 53.9384C48.6297 53.9384 48.6297 53.9384 48.6297 53.9384Z" fill="#555555"/>
<path d="M49.4327 52.9759C49.2722 53.1364 49.2722 53.2969 49.4327 53.4574L49.9141 53.9389L49.7536 54.0994L48.9512 53.1364L49.1117 52.9759L49.2722 53.1364C49.2722 52.9759 49.2722 52.8154 49.4327 52.9759C49.4327 52.8154 49.5931 52.8154 49.5931 52.8154V52.9759C49.5931 52.8154 49.5931 52.8154 49.4327 52.9759Z" fill="#555555"/>
<path d="M50.7169 52.8155L50.0749 52.334L49.9144 52.4945L50.0749 52.334L49.7539 52.013L49.9144 51.8525L50.2354 52.1735L50.3959 52.013L50.2354 52.1735L50.7169 52.8155C50.8774 52.8155 51.0379 52.8155 51.0379 52.8155H51.1984C51.0379 52.976 50.8774 52.976 50.7169 52.8155Z" fill="#555555"/>
<path d="M50.3945 51.0488H50.555H50.3945ZM50.876 51.3698L51.839 52.0118L51.6785 52.1723L50.876 51.3698Z" fill="#555555"/>
<path d="M52.4821 51.3706L51.5191 50.7286L51.3587 50.8891L51.5191 50.7286L51.3587 50.5681C51.1982 50.4076 51.1982 50.2471 51.3587 50.0866V49.9261H51.5191C51.5191 50.0866 51.5191 50.0866 51.5191 50.2471L51.6796 50.4076L51.8401 50.2471L51.6796 50.4076L52.4821 51.3706ZM51.3587 49.7656H51.5191H51.3587ZM51.8401 50.0866L52.8031 50.7286V50.8891L51.8401 50.0866Z" fill="#555555"/>
<path d="M53.7656 49.7667C53.6052 50.0877 53.2842 50.0877 52.9632 49.7667C52.6422 49.6062 52.6422 49.2852 52.8027 48.9642C52.9632 48.8037 52.9632 48.8037 53.1237 48.8037V48.9642C52.9632 48.9642 52.9632 48.9642 52.8027 49.1247C52.8027 49.2852 52.6422 49.2852 52.8027 49.4457C52.8027 49.6062 52.9632 49.6062 52.9632 49.7667C53.1237 49.9272 53.1237 49.9272 53.2842 49.9272C53.4447 49.9272 53.6052 49.7667 53.7656 49.7667C53.7656 49.6062 53.7656 49.4457 53.7656 49.2852H53.9261C53.7656 49.4457 53.7656 49.6062 53.7656 49.7667Z" fill="#555555"/>
<path d="M54.5672 48.1602C54.5672 48.3207 54.5672 48.3207 54.5672 48.4812C54.4067 48.6417 54.4067 48.6417 54.2462 48.8022C54.2462 48.8022 54.0857 48.8022 53.9252 48.8022C53.7647 48.6417 53.7647 48.4812 53.9252 48.3207L54.0857 47.9997H53.9252C53.7647 47.8392 53.6042 47.9997 53.4437 48.1602C53.2832 48.3207 53.2832 48.4812 53.4437 48.4812H53.2832C53.2832 48.3207 53.2832 48.1602 53.2832 47.9997C53.4437 47.6787 53.6042 47.6787 53.9252 47.8392L54.5672 48.3207V48.1602ZM53.9252 48.1602C53.7647 48.3207 53.7647 48.4812 53.9252 48.4812C54.0857 48.6417 54.2462 48.4812 54.2462 48.3207C54.2462 48.1602 54.4067 48.1602 54.2462 47.9997C54.2462 47.9997 54.2462 47.8392 54.0857 47.8392L53.9252 47.6787V48.1602Z" fill="#555555"/>
<path d="M54.8891 47.1967L54.2471 46.8757V47.0362H54.0866V46.8757L53.7656 46.7152V46.5547L54.0866 46.7152L54.2471 46.5547H54.4076L54.2471 46.7152L54.8891 47.1967C55.0496 47.1967 55.2101 47.1967 55.2101 47.0362H55.3706V47.1967C55.2101 47.1967 55.0496 47.1967 54.8891 47.1967Z" fill="#555555"/>
<path d="M54.0859 45.5928H54.2464H54.0859ZM54.5674 45.7533L55.6909 46.2347V46.3952L54.5674 45.7533Z" fill="#555555"/>
<path d="M56.3324 44.7917C56.3324 44.9522 56.3324 44.9522 56.3324 45.1127C56.3324 45.2732 56.1719 45.2732 56.0115 45.4337C55.851 45.4337 55.6905 45.4337 55.53 45.4337C55.3695 45.4337 55.209 45.2732 55.209 45.1127C55.209 44.9522 55.209 44.9522 55.209 44.7917C55.209 44.6312 55.3695 44.6312 55.53 44.4707C55.6905 44.4707 55.851 44.4707 56.0115 44.4707C56.1719 44.4707 56.3324 44.6312 56.3324 44.7917ZM55.53 44.4707C55.3695 44.4707 55.3695 44.6312 55.3695 44.6312C55.3695 44.7917 55.3695 44.7917 55.3695 44.9522C55.3695 45.1127 55.53 45.1127 55.6905 45.2732C55.851 45.2732 56.0115 45.4337 56.1719 45.2732C56.3324 45.2732 56.3324 45.1127 56.3324 45.1127C56.3324 44.9522 56.3324 44.9522 56.3324 44.7917C56.3324 44.6312 56.1719 44.6312 56.0115 44.4707C55.6905 44.4707 55.53 44.4707 55.53 44.4707Z" fill="#555555"/>
<path d="M56.3337 42.8626C56.1732 42.7021 56.0127 42.8626 55.8522 43.0231C55.8522 43.1836 55.8522 43.3441 56.0127 43.5046L56.6547 43.8256V43.9861L55.5312 43.5046V43.3441H55.6917C55.6917 43.1836 55.6917 43.0231 55.6917 43.0231C55.6917 42.8626 55.8522 42.8626 55.8522 42.7021C56.1732 42.7021 56.3337 42.7021 56.3337 42.8626L57.1362 43.0231V43.1836L56.3337 42.8626Z" fill="#555555"/>
<path d="M57.9376 40.6184L57.7771 41.2603L56.0117 40.7789L56.1722 40.1369C56.3327 39.8159 56.4932 39.6554 56.8142 39.8159C56.9747 39.8159 57.1352 39.9764 57.1352 40.1369C57.2957 39.9764 57.4562 39.9764 57.6167 39.9764C57.9376 40.1369 57.9376 40.2974 57.9376 40.6184ZM56.3327 40.2974L56.1722 40.7789L56.8142 40.9394L56.9747 40.4579C56.9747 40.2974 56.9747 39.9764 56.8142 39.9764C56.4932 39.8159 56.3327 39.9764 56.3327 40.2974ZM57.1352 40.4579L56.9747 40.9394L57.6167 41.0998L57.7771 40.6184C57.7771 40.4579 57.7772 40.1369 57.6167 40.1369C57.2957 40.1369 57.1352 40.1369 57.1352 40.4579Z" fill="#555555"/>
<path d="M58.2592 38.532C58.2592 38.6925 58.4197 38.6925 58.2592 38.853C58.2592 39.0134 58.0988 39.0134 58.0988 39.1739C57.9383 39.3344 57.7778 39.1739 57.6173 39.1739C57.4568 39.1739 57.2963 39.0134 57.1358 38.853C57.1358 38.6925 56.9753 38.6925 57.1358 38.532C57.1358 38.3715 57.2963 38.3715 57.2963 38.211C57.4568 38.0505 57.6173 38.211 57.7778 38.211C57.9383 38.3715 58.2592 38.3715 58.2592 38.532ZM57.4568 38.532C57.2963 38.532 57.2963 38.6925 57.2963 38.6925C57.2963 38.853 57.2963 38.853 57.2963 39.0134C57.2963 39.1739 57.4568 39.1739 57.6173 39.1739C57.7778 39.1739 57.9383 39.1739 58.0988 39.1739C58.2592 39.1739 58.2592 39.0134 58.2592 39.0134C58.2592 38.853 58.2592 38.853 58.2592 38.6925C58.2592 38.532 58.0987 38.532 57.9383 38.532C57.6173 38.3715 57.4568 38.3715 57.4568 38.532Z" fill="#555555"/>
<path d="M58.5812 36.9252C58.7417 37.0857 58.7417 37.2462 58.7417 37.2462C58.7417 37.4067 58.5812 37.4067 58.5812 37.5672C58.4207 37.7276 58.2602 37.7276 58.0997 37.5672C57.9392 37.5672 57.7787 37.4067 57.6182 37.2462C57.6182 37.2462 57.6182 37.0857 57.6182 36.9252C57.6182 36.7647 57.6182 36.6042 57.7787 36.6042L57.1367 36.4437V36.2832L58.9022 36.6042L58.5812 36.9252ZM57.6182 37.0857C57.6182 37.4067 57.7787 37.4067 58.0997 37.5672C58.4207 37.5672 58.5812 37.5672 58.5812 37.2462C58.5812 36.9252 58.4207 36.9252 58.0997 36.7647C57.9392 36.7647 57.6182 36.7647 57.6182 37.0857Z" fill="#555555"/>
<path d="M58.5812 35.9619L57.1367 35.8015V35.641L58.5812 35.9619C58.7417 35.8015 58.7417 35.8015 58.9022 35.641V35.4805H59.0626V35.641C58.9022 35.9619 58.7417 36.1224 58.5812 35.9619Z" fill="#555555"/>
<path d="M58.9021 34.6807C58.9021 34.5202 58.9021 34.5202 58.7416 34.3597L58.9021 34.1992C59.0626 34.3597 59.0626 34.3597 58.9021 34.6807C58.9021 35.0017 58.7416 35.1622 58.4207 35.1622C58.0997 35.1622 57.7787 34.8412 57.9392 34.6807C57.9392 34.3597 58.2602 34.1992 58.5812 34.1992L58.4207 35.0017C58.7416 35.0017 58.9021 34.8412 58.9021 34.6807ZM58.2602 34.1992C58.0997 34.1992 58.0997 34.3597 58.0997 34.5202C58.0997 34.6807 58.0997 34.8412 58.2602 34.8412H58.4207L58.5812 34.1992C58.2602 34.1992 58.2602 34.1992 58.2602 34.1992Z" fill="#555555"/>
<path d="M59.2231 33.0756C59.2231 33.2361 59.0626 33.3966 59.0626 33.5571L58.9021 33.3966C59.0626 33.3966 59.0626 33.2361 59.2231 33.0756C59.0626 32.9151 59.0626 32.7546 58.9021 32.7546C58.7416 32.7546 58.7416 32.7546 58.7416 32.9151V33.0756C58.7416 33.3966 58.5811 33.3966 58.4206 33.3966C58.2601 33.3966 58.0996 33.2361 58.0996 32.9151C58.0996 32.7546 58.0996 32.5941 58.2601 32.4336V32.5941C58.2601 32.7546 58.0996 32.7546 58.0996 32.9151C58.0996 33.0756 58.0996 33.2361 58.2601 33.2361C58.4206 33.2361 58.4206 33.2361 58.4206 33.0756V32.9151C58.4206 32.7546 58.5811 32.5941 58.7416 32.5941C59.2231 32.5941 59.2231 32.7546 59.2231 33.0756Z" fill="#555555"/>
<path d="M31.6173 0.654297C14.1235 0.654297 0 14.9382 0 32.4321C0 49.9259 14.284 64.0494 31.6173 64.0494C49.1111 64.0494 63.2346 49.7654 63.2346 32.4321C63.2346 14.7778 49.1111 0.654297 31.6173 0.654297ZM31.6173 62.1234C15.2469 62.1234 1.92593 48.8024 1.92593 32.2716C1.92593 15.9012 15.0864 2.58022 31.6173 2.58022C47.9877 2.58022 61.4691 15.9012 61.4691 32.2716C61.4691 48.642 48.1482 61.9629 31.6173 62.1234Z" fill="#555555"/>
</g>
<defs>
<clipPath id="clip0">
<rect width="63.2346" height="63.2346" fill="white" transform="translate(0 0.654297)"/>
</clipPath>
</defs>
</svg>
