<svg width="82" height="62" viewBox="0 0 82 62" fill="none" xmlns="http://www.w3.org/2000/svg">
<g clip-path="url(#clip0)">
<path d="M36.4321 52.4684C35.6296 52.4684 34.9877 52.6289 34.1852 52.6289C21.0247 52.6289 10.2716 43.1598 10.2716 31.2832C10.2716 19.5672 20.8642 9.93755 34.1852 9.93755C34.9877 9.93755 35.7901 9.93755 36.4321 10.098V0.949894C35.4691 0.7894 34.5062 0.628906 33.7037 0.628906C15.0864 0.7894 0 14.4314 0 31.1227C0 47.8141 15.0864 61.4561 33.7037 61.4561C34.6667 61.4561 35.4691 61.4561 36.4321 61.2956V52.4684Z" fill="#555555"/>
<path d="M79.4446 9.77705C80.2471 9.77705 81.0496 9.77705 81.6915 9.93755V0.7894C80.8891 0.628906 80.0866 0.628906 79.1236 0.628906C60.5063 0.628906 45.4199 14.2709 45.4199 30.9622C45.4199 47.6536 60.5063 61.2956 79.1236 61.2956C80.0866 61.2956 80.8891 61.2956 81.852 61.1351V52.3079C81.0495 52.3079 80.4076 52.4684 79.6051 52.4684C68.0495 52.4684 58.4199 45.0857 56.173 35.4561H75.1113V26.6289H56.173C58.5804 16.9993 68.0496 9.77705 79.4446 9.77705Z" fill="#555555"/>
</g>
<defs>
<clipPath id="clip0">
<rect width="81.8519" height="60.8272" fill="white" transform="translate(0 0.628906)"/>
</clipPath>
</defs>
</svg>
