<svg width="40" height="40" viewBox="0 0 40 40" fill="none" xmlns="http://www.w3.org/2000/svg">
<circle cx="20" cy="20" r="20" fill="#F59124"/>
<path d="M25.5808 13.1577C24.0116 11.7192 22.1154 11 19.7615 11C17.3423 11 15.25 11.7846 13.55 13.4192C11.85 15.0538 11 17.0808 11 19.5C11 21.8538 11.7846 23.8154 13.4192 25.5154C15.0539 27.2154 17.2116 28 20.0231 28C21.6577 28 23.2923 27.6731 24.9269 26.9538C25.45 26.7577 25.7115 26.1038 25.5154 25.5808C25.3192 25.0577 24.6654 24.7962 24.1423 24.9923C22.7692 25.5808 21.3962 25.9077 20.0885 25.9077C17.9962 25.9077 16.3615 25.2538 15.1846 23.9462C14.0077 22.6385 13.4192 21.1346 13.4192 19.4346C13.4192 17.5385 14.0731 15.9692 15.25 14.7269C16.4923 13.4846 17.9962 12.8308 19.8269 12.8308C21.4615 12.8308 22.9 13.3538 24.0769 14.4C25.2538 15.4462 25.7769 16.7538 25.7769 18.3231C25.7769 19.3692 25.5154 20.2846 24.9923 21.0038C24.4692 21.7231 23.9462 22.05 23.3577 22.05C23.0308 22.05 22.9 21.9192 22.9 21.5269C22.9 21.2654 22.9 20.9385 22.9654 20.6115L23.6192 15.3154H21.3962L21.2654 15.8385C20.6769 15.3808 20.0885 15.1192 19.4346 15.1192C18.3885 15.1192 17.4731 15.5769 16.6885 16.4269C15.9039 17.2769 15.5769 18.3885 15.5769 19.6962C15.5769 21.0038 15.9039 22.05 16.6231 22.9C17.2769 23.6846 18.1269 24.0769 19.0423 24.0769C19.8923 24.0769 20.6115 23.75 21.2 23.0308C21.6577 23.6846 22.3115 24.0769 23.2269 24.0769C24.5346 24.0769 25.6462 23.4885 26.6269 22.3769C27.6077 21.2654 28.0654 19.8923 28.0654 18.2577C27.8692 16.2962 27.0846 14.5308 25.5808 13.1577ZM20.4154 21.1346C20.0231 21.6577 19.5654 21.9192 18.9769 21.9192C18.5846 21.9192 18.3231 21.7231 18.0616 21.3308C17.8 20.9385 17.7346 20.4808 17.7346 19.8923C17.7346 19.1731 17.8654 18.5846 18.1923 18.1923C18.5192 17.7346 18.9116 17.5385 19.3692 17.5385C19.7616 17.5385 20.1538 17.6692 20.4808 18.0615C20.8077 18.3885 20.9385 18.8462 20.9385 19.3692C21.0039 20.0231 20.8077 20.6115 20.4154 21.1346Z" fill="white"/>
</svg>
