<?xml version="1.0" encoding="utf-8"?>
<!-- Generator: Adobe Illustrator 23.0.2, SVG Export Plug-In . SVG Version: 6.00 Build 0)  -->
<svg version="1.1" id="Слой_2" xmlns="http://www.w3.org/2000/svg" xmlns:xlink="http://www.w3.org/1999/xlink" x="0px" y="0px" viewBox="0 0 1600 770" style="enable-background:new 0 0 1600 770;" xml:space="preserve">
    <style type="text/css">
    .st0 {
        fill: #51FF17;
    }

    .st1 {
        fill: #FF2E98;
    }

    .st2 {
        fill: #FF0000;
    }
    .st3 {
        fill: #00D0CD;
    }

    .st4 {
        fill: #CAE700;
    }

    .st5 {
        fill: #A617FF;
    }
    </style>
    <path class="st0" d="M0,0h82.94v609.15c0,0-18.51-0.09-24.16,1.07c-5.65,1.16-8.22,2.7-12.59,3.08c-4.37,0.39-7.33-0.51-8.61,1.67
	s-4.24,7.58-4.88,12.08s-1.16,9.25-1.16,9.25L0,638.36V0z" />
    <path class="st0" d="M531.97,0h184.8v392.38H579.9c0,0-4.88-26.35-6.3-29.94c-1.41-3.6-1.8-8.35-8.1-8.35s-33.54,0-33.54,0V0z" />
    <path class="st1" d="M82.94,0v609.15c0,0,21.13,1.81,24.41,3.55c3.28,1.74,6.83,7.77,7.03,9.44c0.2,1.67,1.54,5.22,1.54,5.22
	l116.31-8.5l128.09-10.58V480.32l112.62-4.15c0,0,0.54-6.49,3.08-9.04c2.54-2.54,4.75-3.41,4.75-3.41l0.8-0.4
	c0,0-8.77-36.09-9.78-41.72c-1-5.62-3.88-23.77-3.75-37.3c0.13-13.53,0.13-13.53,0.13-13.53s-4.02-0.47-4.02-4.95
	c0-4.49,3.88-5.42,4.08-5.49c0.2-0.07,5.76-0.2,5.76-0.2s2.41-5.49,5.02-6.09c2.61-0.6,8.1-1,8.1-1l44.83,1.05V0H82.94z" />
    <polygon class="st2" points="1374.18,635.25 1374.18,602.45 1413.71,596.02 1600,608.28 1600,653.02 " />
    <polygon class="st2" points="1412.49,589.28 1412.49,557.4 1448.34,552.5 1600,559.24 1600,600.92 " />
    <polygon class="st2" points="1448.15,545.81 1448.15,513.26 1480.7,510.57 1600,514.6 1600,552.5 " />
    <polygon class="st2" points="1482.23,502.91 1482.23,471.89 1510.96,469.79 1600,471.32 1600,507.32 " />
    <polygon class="st2" points="1514.98,463.28 1514.98,432.45 1537.57,430.53 1600,430.53 1600,465 " />
    <rect x="1546.38" y="394.15" class="st2" width="53.62" height="29.87" />
    <rect x="1576.64" y="357.77" class="st2" width="23.36" height="29.68" />
    <polygon class="st3" points="506.1,496.17 566.92,493.85 566.92,572.96 591.43,574.55 1150.94,530.79 1150.94,467.15 1210.92,465.2 
	1210.92,635.13 506.1,732.53 " />
    <path class="st4" d="M0,680.94l36.87-3.7c0,0,11.36,18.13,17.62,18.38s36.51,0,36.51,0s13.15-7.02,17.87-17.11l4.09-8.81
	l246.38-23.74v79.02l25.15,3.7v13.02l114.64,18l702.64-105.19v-1.4l84.77,5.36l83.49-12.51L1600,664.21V770H0V680.94z" />
    <path class="st5" d="M1220.28,457.15l-69.41-1.53v-64.58l-434.09,1.34H496.02l0.05,34.61l70.85,1.01l0.16,44.94l-206.76,7.39v127.96
	l-0.98,37.68v79.02l25.15,3.7v13.02l114.64,18l702.64-105.19l-0.38-10.21l18.89-2.17V457.15z M1210.92,635.13l-704.82,97.4V496.17
	l60.83-2.32v79.11l24.5,1.58l559.52-43.76v-63.63l59.97-1.95V635.13z" />
</svg>